ISO-10303-21;
HEADER;
/* Generated by software containing ST-Developer
 * from STEP Tools, Inc. (www.steptools.com) 
 */
/* OPTION: using custom renumber hook */

FILE_DESCRIPTION(
/* description */ ('STEP AP242 Edition 2',
'CAx-IF Rec.Pracs.---Representation and Presentation of Product Manufa
cturing Information (PMI)---4.0---2014-10-13',
'CAx-IF Rec.Pracs.---3D Tessellated Geometry---0.4---2014-09-14','2;1',
'CAx-IF Rec.Pracs.---User Defined Attributes---1.5---2016-08-15'),
/* implementation_level */ '2;1');

FILE_NAME(
/* name */ '6a32da38fc247f6640c6bebb',
/* time_stamp */ '2026-06-17T17:32:40Z',
/* author */ (''),
/* organization */ (''),
/* preprocessor_version */ 'ST-DEVELOPER v20',
/* originating_system */ 'ONSHAPE BY PTC INC, 1.216',
/* authorisation */ '  ');

FILE_SCHEMA (('AP242_MANAGED_MODEL_BASED_3D_ENGINEERING_MIM_LF { 1 0 10303 442 3 1 4 }'));
ENDSEC;

DATA;
#10=CONTEXT_DEPENDENT_SHAPE_REPRESENTATION(#12,#192);
#11=NEXT_ASSEMBLY_USAGE_OCCURRENCE('NAUO1','Part 2','Part 2',#193,#194,
'');
#12=(
REPRESENTATION_RELATIONSHIP(' ',' ',#110,#109)
REPRESENTATION_RELATIONSHIP_WITH_TRANSFORMATION(#13)
SHAPE_REPRESENTATION_RELATIONSHIP()
);
#13=ITEM_DEFINED_TRANSFORMATION(' ',' ',#111,#124);
#14=SHAPE_REPRESENTATION_RELATIONSHIP('','',#110,#15);
#15=ADVANCED_BREP_SHAPE_REPRESENTATION('',(#106),#184);
#16=CYLINDRICAL_SURFACE('',#114,0.0015);
#17=CYLINDRICAL_SURFACE('',#119,0.005);
#18=CIRCLE('',#113,0.0015);
#19=CIRCLE('',#115,0.0015);
#20=CIRCLE('',#116,0.0015);
#21=CIRCLE('',#120,0.005);
#22=CIRCLE('',#121,0.005);
#23=ORIENTED_EDGE('',*,*,#41,.F.);
#24=ORIENTED_EDGE('',*,*,#42,.F.);
#25=ORIENTED_EDGE('',*,*,#43,.T.);
#26=ORIENTED_EDGE('',*,*,#44,.T.);
#27=ORIENTED_EDGE('',*,*,#42,.T.);
#28=ORIENTED_EDGE('',*,*,#45,.F.);
#29=ORIENTED_EDGE('',*,*,#46,.F.);
#30=ORIENTED_EDGE('',*,*,#41,.T.);
#31=ORIENTED_EDGE('',*,*,#44,.F.);
#32=ORIENTED_EDGE('',*,*,#47,.F.);
#33=ORIENTED_EDGE('',*,*,#45,.T.);
#34=ORIENTED_EDGE('',*,*,#43,.F.);
#35=ORIENTED_EDGE('',*,*,#47,.T.);
#36=ORIENTED_EDGE('',*,*,#48,.F.);
#37=ORIENTED_EDGE('',*,*,#49,.T.);
#38=ORIENTED_EDGE('',*,*,#48,.T.);
#39=ORIENTED_EDGE('',*,*,#46,.T.);
#40=ORIENTED_EDGE('',*,*,#49,.F.);
#41=EDGE_CURVE('',#50,#51,#57,.T.);
#42=EDGE_CURVE('',#51,#50,#18,.T.);
#43=EDGE_CURVE('',#52,#53,#19,.T.);
#44=EDGE_CURVE('',#53,#51,#58,.T.);
#45=EDGE_CURVE('',#52,#50,#59,.T.);
#46=EDGE_CURVE('',#54,#54,#20,.T.);
#47=EDGE_CURVE('',#52,#53,#60,.T.);
#48=EDGE_CURVE('',#55,#55,#21,.T.);
#49=EDGE_CURVE('',#56,#56,#22,.T.);
#50=VERTEX_POINT('',#160);
#51=VERTEX_POINT('',#161);
#52=VERTEX_POINT('',#165);
#53=VERTEX_POINT('',#166);
#54=VERTEX_POINT('',#170);
#55=VERTEX_POINT('',#176);
#56=VERTEX_POINT('',#178);
#57=LINE('',#159,#61);
#58=LINE('',#167,#62);
#59=LINE('',#168,#63);
#60=LINE('',#172,#64);
#61=VECTOR('',#129,1.);
#62=VECTOR('',#136,1.);
#63=VECTOR('',#137,1.);
#64=VECTOR('',#142,1.);
#65=EDGE_LOOP('',(#23,#24));
#66=EDGE_LOOP('',(#25,#26,#27,#28));
#67=EDGE_LOOP('',(#29));
#68=EDGE_LOOP('',(#30,#31,#32,#33));
#69=EDGE_LOOP('',(#34,#35));
#70=EDGE_LOOP('',(#36));
#71=EDGE_LOOP('',(#37));
#72=EDGE_LOOP('',(#38));
#73=EDGE_LOOP('',(#39));
#74=EDGE_LOOP('',(#40));
#75=FACE_BOUND('',#65,.T.);
#76=FACE_BOUND('',#66,.T.);
#77=FACE_BOUND('',#67,.T.);
#78=FACE_BOUND('',#68,.T.);
#79=FACE_BOUND('',#69,.T.);
#80=FACE_BOUND('',#70,.T.);
#81=FACE_BOUND('',#71,.T.);
#82=FACE_BOUND('',#72,.T.);
#83=FACE_BOUND('',#73,.T.);
#84=FACE_BOUND('',#74,.T.);
#85=PLANE('',#112);
#86=PLANE('',#117);
#87=PLANE('',#118);
#88=PLANE('',#122);
#89=PLANE('',#123);
#90=ADVANCED_FACE('',(#75),#85,.F.);
#91=ADVANCED_FACE('',(#76,#77),#16,.T.);
#92=ADVANCED_FACE('',(#78),#86,.F.);
#93=ADVANCED_FACE('',(#79),#87,.T.);
#94=ADVANCED_FACE('',(#80,#81),#17,.T.);
#95=ADVANCED_FACE('',(#82),#88,.T.);
#96=ADVANCED_FACE('',(#83,#84),#89,.F.);
#97=CLOSED_SHELL('',(#90,#91,#92,#93,#94,#95,#96));
#98=STYLED_ITEM('',(#99),#106);
#99=PRESENTATION_STYLE_ASSIGNMENT((#100));
#100=SURFACE_STYLE_USAGE(.BOTH.,#101);
#101=SURFACE_SIDE_STYLE('',(#102));
#102=SURFACE_STYLE_FILL_AREA(#103);
#103=FILL_AREA_STYLE('',(#104));
#104=FILL_AREA_STYLE_COLOUR('',#105);
#105=COLOUR_RGB('',0.647058823529412,0.647058823529412,0.647058823529412);
#106=MANIFOLD_SOLID_BREP('Part 2',#97);
#107=SHAPE_DEFINITION_REPRESENTATION(#190,#109);
#108=SHAPE_DEFINITION_REPRESENTATION(#191,#110);
#109=SHAPE_REPRESENTATION('Assembly 1',(#111,#124),#183);
#110=SHAPE_REPRESENTATION('Part 2',(#111),#184);
#111=AXIS2_PLACEMENT_3D('',#157,#125,#126);
#112=AXIS2_PLACEMENT_3D('',#158,#127,#128);
#113=AXIS2_PLACEMENT_3D('',#162,#130,#131);
#114=AXIS2_PLACEMENT_3D('',#163,#132,#133);
#115=AXIS2_PLACEMENT_3D('',#164,#134,#135);
#116=AXIS2_PLACEMENT_3D('',#169,#138,#139);
#117=AXIS2_PLACEMENT_3D('',#171,#140,#141);
#118=AXIS2_PLACEMENT_3D('',#173,#143,#144);
#119=AXIS2_PLACEMENT_3D('',#174,#145,#146);
#120=AXIS2_PLACEMENT_3D('',#175,#147,#148);
#121=AXIS2_PLACEMENT_3D('',#177,#149,#150);
#122=AXIS2_PLACEMENT_3D('',#179,#151,#152);
#123=AXIS2_PLACEMENT_3D('',#180,#153,#154);
#124=AXIS2_PLACEMENT_3D('',#181,#155,#156);
#125=DIRECTION('',(0.,0.,1.));
#126=DIRECTION('',(1.,0.,0.));
#127=DIRECTION('',(0.,0.,1.));
#128=DIRECTION('',(1.,0.,0.));
#129=DIRECTION('',(-0.992289783504211,0.12393944308882,0.));
#130=DIRECTION('',(0.,0.,1.));
#131=DIRECTION('',(1.,0.,0.));
#132=DIRECTION('',(0.,0.,-1.));
#133=DIRECTION('',(-1.,0.,0.));
#134=DIRECTION('',(0.,0.,1.));
#135=DIRECTION('',(1.,0.,0.));
#136=DIRECTION('',(0.,0.,-1.));
#137=DIRECTION('',(0.,0.,-1.));
#138=DIRECTION('',(0.,0.,1.));
#139=DIRECTION('',(1.,0.,0.));
#140=DIRECTION('',(-0.12393944308882,-0.992289783504211,0.));
#141=DIRECTION('',(0.992289783504211,-0.12393944308882,0.));
#142=DIRECTION('',(-0.992289783504211,0.12393944308882,0.));
#143=DIRECTION('',(0.,0.,-1.));
#144=DIRECTION('',(1.,0.,0.));
#145=DIRECTION('',(0.,0.,-1.));
#146=DIRECTION('',(-1.,0.,0.));
#147=DIRECTION('',(0.,0.,1.));
#148=DIRECTION('',(1.,0.,0.));
#149=DIRECTION('',(0.,0.,1.));
#150=DIRECTION('',(1.,0.,0.));
#151=DIRECTION('',(0.,0.,1.));
#152=DIRECTION('',(1.,0.,0.));
#153=DIRECTION('',(0.,0.,1.));
#154=DIRECTION('',(1.,0.,0.));
#155=DIRECTION('',(0.,0.,1.));
#156=DIRECTION('',(1.,0.,0.));
#157=CARTESIAN_POINT('',(0.,0.,0.));
#158=CARTESIAN_POINT('',(-0.0250381458920374,0.0138414630410043,0.));
#159=CARTESIAN_POINT('',(-0.0249163834944181,0.0148163228609405,0.));
#160=CARTESIAN_POINT('',(-0.0237916230248162,0.0146758375021993,0.));
#161=CARTESIAN_POINT('',(-0.0260411439640202,0.0149568082196817,0.));
#162=CARTESIAN_POINT('',(-0.0250381458920374,0.0138414630410043,0.));
#163=CARTESIAN_POINT('',(-0.0250381458920374,0.0138414630410043,0.01));
#164=CARTESIAN_POINT('',(-0.0250381458920374,0.0138414630410043,0.007));
#165=CARTESIAN_POINT('',(-0.0237916230248162,0.0146758375021993,0.007));
#166=CARTESIAN_POINT('',(-0.0260411439640202,0.0149568082196817,0.007));
#167=CARTESIAN_POINT('',(-0.0260411439640202,0.0149568082196817,0.007));
#168=CARTESIAN_POINT('',(-0.0237916230248162,0.0146758375021993,0.007));
#169=CARTESIAN_POINT('',(-0.0250381458920374,0.0138414630410043,0.01));
#170=CARTESIAN_POINT('',(-0.0235381458920374,0.0138414630410043,0.01));
#171=CARTESIAN_POINT('',(-0.0249163834944181,0.0148163228609405,0.007));
#172=CARTESIAN_POINT('',(-0.0249163834944181,0.0148163228609405,0.007));
#173=CARTESIAN_POINT('',(-0.0250381458920374,0.0138414630410043,0.007));
#174=CARTESIAN_POINT('',(-0.0250381458920374,0.0138414630410043,0.015));
#175=CARTESIAN_POINT('',(-0.0250381458920374,0.0138414630410043,0.015));
#176=CARTESIAN_POINT('',(-0.0200381458920374,0.0138414630410043,0.015));
#177=CARTESIAN_POINT('',(-0.0250381458920374,0.0138414630410043,0.01));
#178=CARTESIAN_POINT('',(-0.0200381458920374,0.0138414630410043,0.01));
#179=CARTESIAN_POINT('',(-0.0250381458920374,0.0138414630410043,0.015));
#180=CARTESIAN_POINT('',(-0.0250381458920374,0.0138414630410043,0.01));
#181=CARTESIAN_POINT('',(0.0132163958883352,-0.0169114768714426,-0.0188302554115653));
#182=MECHANICAL_DESIGN_GEOMETRIC_PRESENTATION_REPRESENTATION('',(#98),#183);
#183=(
GEOMETRIC_REPRESENTATION_CONTEXT(3)
GLOBAL_UNCERTAINTY_ASSIGNED_CONTEXT((#185))
GLOBAL_UNIT_ASSIGNED_CONTEXT((#189,#188,#187))
REPRESENTATION_CONTEXT('Assembly 1','TOP_LEVEL_ASSEMBLY_PART')
);
#184=(
GEOMETRIC_REPRESENTATION_CONTEXT(3)
GLOBAL_UNCERTAINTY_ASSIGNED_CONTEXT((#186))
GLOBAL_UNIT_ASSIGNED_CONTEXT((#189,#188,#187))
REPRESENTATION_CONTEXT('Part 2','COMPONENT_PART')
);
#185=UNCERTAINTY_MEASURE_WITH_UNIT(LENGTH_MEASURE(1.E-8),#189,
'DISTANCE_ACCURACY_VALUE','Maximum Tolerance applied to model');
#186=UNCERTAINTY_MEASURE_WITH_UNIT(LENGTH_MEASURE(1.E-8),#189,
'DISTANCE_ACCURACY_VALUE','Maximum Tolerance applied to model');
#187=(
NAMED_UNIT(*)
SI_UNIT($,.STERADIAN.)
SOLID_ANGLE_UNIT()
);
#188=(
NAMED_UNIT(*)
PLANE_ANGLE_UNIT()
SI_UNIT($,.RADIAN.)
);
#189=(
LENGTH_UNIT()
NAMED_UNIT(*)
SI_UNIT($,.METRE.)
);
#190=PRODUCT_DEFINITION_SHAPE('','',#193);
#191=PRODUCT_DEFINITION_SHAPE('','',#194);
#192=PRODUCT_DEFINITION_SHAPE(' ','NAUO PRDDFN',#11);
#193=PRODUCT_DEFINITION('','',#197,#195);
#194=PRODUCT_DEFINITION('','',#198,#196);
#195=PRODUCT_DEFINITION_CONTEXT('',#208,'design');
#196=PRODUCT_DEFINITION_CONTEXT('',#208,'design');
#197=PRODUCT_DEFINITION_FORMATION_WITH_SPECIFIED_SOURCE('','',#201,
 .NOT_KNOWN.);
#198=PRODUCT_DEFINITION_FORMATION_WITH_SPECIFIED_SOURCE('','',#202,
 .NOT_KNOWN.);
#199=PRODUCT_RELATED_PRODUCT_CATEGORY('','',(#201));
#200=PRODUCT_RELATED_PRODUCT_CATEGORY('','',(#202));
#201=PRODUCT('Assembly 1','Assembly 1','Assembly 1',(#205));
#202=PRODUCT('Part 2','Part 2','Part 2',(#206));
#203=PRODUCT_CATEGORY('','');
#204=PRODUCT_CATEGORY('','');
#205=PRODUCT_CONTEXT('',#208,'mechanical');
#206=PRODUCT_CONTEXT('',#208,'mechanical');
#207=APPLICATION_PROTOCOL_DEFINITION('international standard',
'ap242_managed_model_based_3d_engineering',2020,#208);
#208=APPLICATION_CONTEXT('managed model based 3d engineering');
ENDSEC;
END-ISO-10303-21;
