ISO-10303-21;
HEADER;
/* Generated by software containing ST-Developer
 * from STEP Tools, Inc. (www.steptools.com) 
 */
/* OPTION: using custom renumber hook */

FILE_DESCRIPTION(
/* description */ ('STEP AP242 Edition 2',
'CAx-IF Rec.Pracs.---Representation and Presentation of Product Manufa
cturing Information (PMI)---4.0---2014-10-13',
'CAx-IF Rec.Pracs.---3D Tessellated Geometry---0.4---2014-09-14','2;1',
'CAx-IF Rec.Pracs.---User Defined Attributes---1.5---2016-08-15'),
/* implementation_level */ '2;1');

FILE_NAME(
/* name */ 'Part Studio 1 - Part 2',
/* time_stamp */ '2026-06-21T02:41:21Z',
/* author */ (''),
/* organization */ (''),
/* preprocessor_version */ 'ST-DEVELOPER v20',
/* originating_system */ 'ONSHAPE BY PTC INC, 1.216',
/* authorisation */ '  ');

FILE_SCHEMA (('AP242_MANAGED_MODEL_BASED_3D_ENGINEERING_MIM_LF { 1 0 10303 442 3 1 4 }'));
ENDSEC;

DATA;
#10=SHAPE_REPRESENTATION_RELATIONSHIP('','',#929,#11);
#11=ADVANCED_BREP_SHAPE_REPRESENTATION('',(#927),#1563);
#12=SPHERICAL_SURFACE('',#1017,0.001);
#13=SPHERICAL_SURFACE('',#1019,0.001);
#14=SPHERICAL_SURFACE('',#1029,0.001);
#15=SPHERICAL_SURFACE('',#1031,0.001);
#16=CYLINDRICAL_SURFACE('',#972,0.00175);
#17=CYLINDRICAL_SURFACE('',#973,0.00175);
#18=CYLINDRICAL_SURFACE('',#974,0.00175);
#19=CYLINDRICAL_SURFACE('',#975,0.00175);
#20=CYLINDRICAL_SURFACE('',#980,0.00075);
#21=CYLINDRICAL_SURFACE('',#983,0.00075);
#22=CYLINDRICAL_SURFACE('',#986,0.00075);
#23=CYLINDRICAL_SURFACE('',#989,0.00075);
#24=CYLINDRICAL_SURFACE('',#992,0.00075);
#25=CYLINDRICAL_SURFACE('',#995,0.00075);
#26=CYLINDRICAL_SURFACE('',#998,0.00075);
#27=CYLINDRICAL_SURFACE('',#1001,0.00075);
#28=CYLINDRICAL_SURFACE('',#1004,0.00075);
#29=CYLINDRICAL_SURFACE('',#1007,0.00075);
#30=CYLINDRICAL_SURFACE('',#1010,0.001);
#31=CYLINDRICAL_SURFACE('',#1012,0.001);
#32=CYLINDRICAL_SURFACE('',#1014,0.001);
#33=CYLINDRICAL_SURFACE('',#1021,0.001);
#34=CYLINDRICAL_SURFACE('',#1023,0.001);
#35=CYLINDRICAL_SURFACE('',#1025,0.001);
#36=CYLINDRICAL_SURFACE('',#1027,0.001);
#37=CYLINDRICAL_SURFACE('',#1033,0.001);
#38=LINE('',#1316,#106);
#39=LINE('',#1319,#107);
#40=LINE('',#1321,#108);
#41=LINE('',#1323,#109);
#42=LINE('',#1324,#110);
#43=LINE('',#1327,#111);
#44=LINE('',#1329,#112);
#45=LINE('',#1331,#113);
#46=LINE('',#1333,#114);
#47=LINE('',#1336,#115);
#48=LINE('',#1338,#116);
#49=LINE('',#1340,#117);
#50=LINE('',#1345,#118);
#51=LINE('',#1348,#119);
#52=LINE('',#1350,#120);
#53=LINE('',#1352,#121);
#54=LINE('',#1354,#122);
#55=LINE('',#1357,#123);
#56=LINE('',#1359,#124);
#57=LINE('',#1361,#125);
#58=LINE('',#1363,#126);
#59=LINE('',#1365,#127);
#60=LINE('',#1367,#128);
#61=LINE('',#1369,#129);
#62=LINE('',#1391,#130);
#63=LINE('',#1396,#131);
#64=LINE('',#1400,#132);
#65=LINE('',#1404,#133);
#66=LINE('',#1407,#134);
#67=LINE('',#1408,#135);
#68=LINE('',#1410,#136);
#69=LINE('',#1413,#137);
#70=LINE('',#1414,#138);
#71=LINE('',#1420,#139);
#72=LINE('',#1423,#140);
#73=LINE('',#1424,#141);
#74=LINE('',#1426,#142);
#75=LINE('',#1428,#143);
#76=LINE('',#1430,#144);
#77=LINE('',#1436,#145);
#78=LINE('',#1439,#146);
#79=LINE('',#1440,#147);
#80=LINE('',#1442,#148);
#81=LINE('',#1445,#149);
#82=LINE('',#1447,#150);
#83=LINE('',#1449,#151);
#84=LINE('',#1451,#152);
#85=LINE('',#1453,#153);
#86=LINE('',#1455,#154);
#87=LINE('',#1457,#155);
#88=LINE('',#1459,#156);
#89=LINE('',#1460,#157);
#90=LINE('',#1462,#158);
#91=LINE('',#1464,#159);
#92=LINE('',#1466,#160);
#93=LINE('',#1468,#161);
#94=LINE('',#1470,#162);
#95=LINE('',#1473,#163);
#96=LINE('',#1474,#164);
#97=LINE('',#1476,#165);
#98=LINE('',#1477,#166);
#99=LINE('',#1479,#167);
#100=LINE('',#1482,#168);
#101=LINE('',#1484,#169);
#102=LINE('',#1491,#170);
#103=LINE('',#1492,#171);
#104=LINE('',#1494,#172);
#105=LINE('',#1495,#173);
#106=VECTOR('',#1042,1.);
#107=VECTOR('',#1043,1.);
#108=VECTOR('',#1044,1.);
#109=VECTOR('',#1045,1.);
#110=VECTOR('',#1046,1.);
#111=VECTOR('',#1047,1.);
#112=VECTOR('',#1048,1.);
#113=VECTOR('',#1049,1.);
#114=VECTOR('',#1052,1.);
#115=VECTOR('',#1053,1.);
#116=VECTOR('',#1054,1.);
#117=VECTOR('',#1055,1.);
#118=VECTOR('',#1060,1.);
#119=VECTOR('',#1061,1.);
#120=VECTOR('',#1062,1.);
#121=VECTOR('',#1063,1.);
#122=VECTOR('',#1066,1.);
#123=VECTOR('',#1067,1.);
#124=VECTOR('',#1068,1.);
#125=VECTOR('',#1069,1.);
#126=VECTOR('',#1070,1.);
#127=VECTOR('',#1071,1.);
#128=VECTOR('',#1072,1.);
#129=VECTOR('',#1073,1.);
#130=VECTOR('',#1096,1.);
#131=VECTOR('',#1099,1.);
#132=VECTOR('',#1102,1.);
#133=VECTOR('',#1105,1.);
#134=VECTOR('',#1108,1.);
#135=VECTOR('',#1109,1.);
#136=VECTOR('',#1112,1.);
#137=VECTOR('',#1113,1.);
#138=VECTOR('',#1114,1.);
#139=VECTOR('',#1121,1.);
#140=VECTOR('',#1122,1.);
#141=VECTOR('',#1123,1.);
#142=VECTOR('',#1126,1.);
#143=VECTOR('',#1127,1.);
#144=VECTOR('',#1128,1.);
#145=VECTOR('',#1135,1.);
#146=VECTOR('',#1136,1.);
#147=VECTOR('',#1137,1.);
#148=VECTOR('',#1140,1.);
#149=VECTOR('',#1141,1.);
#150=VECTOR('',#1142,1.);
#151=VECTOR('',#1143,1.);
#152=VECTOR('',#1146,1.);
#153=VECTOR('',#1149,1.);
#154=VECTOR('',#1152,1.);
#155=VECTOR('',#1153,1.);
#156=VECTOR('',#1154,1.);
#157=VECTOR('',#1155,1.);
#158=VECTOR('',#1156,1.);
#159=VECTOR('',#1157,1.);
#160=VECTOR('',#1160,1.);
#161=VECTOR('',#1161,1.);
#162=VECTOR('',#1164,1.);
#163=VECTOR('',#1165,1.);
#164=VECTOR('',#1166,1.);
#165=VECTOR('',#1167,1.);
#166=VECTOR('',#1168,1.);
#167=VECTOR('',#1171,1.);
#168=VECTOR('',#1176,1.);
#169=VECTOR('',#1179,1.);
#170=VECTOR('',#1192,1.);
#171=VECTOR('',#1193,1.);
#172=VECTOR('',#1196,1.);
#173=VECTOR('',#1197,1.);
#174=ORIENTED_EDGE('',*,*,#398,.F.);
#175=ORIENTED_EDGE('',*,*,#399,.F.);
#176=ORIENTED_EDGE('',*,*,#400,.F.);
#177=ORIENTED_EDGE('',*,*,#401,.F.);
#178=ORIENTED_EDGE('',*,*,#402,.T.);
#179=ORIENTED_EDGE('',*,*,#403,.T.);
#180=ORIENTED_EDGE('',*,*,#404,.F.);
#181=ORIENTED_EDGE('',*,*,#405,.T.);
#182=ORIENTED_EDGE('',*,*,#406,.T.);
#183=ORIENTED_EDGE('',*,*,#407,.F.);
#184=ORIENTED_EDGE('',*,*,#408,.T.);
#185=ORIENTED_EDGE('',*,*,#409,.F.);
#186=ORIENTED_EDGE('',*,*,#410,.F.);
#187=ORIENTED_EDGE('',*,*,#411,.T.);
#188=ORIENTED_EDGE('',*,*,#412,.T.);
#189=ORIENTED_EDGE('',*,*,#413,.T.);
#190=ORIENTED_EDGE('',*,*,#414,.F.);
#191=ORIENTED_EDGE('',*,*,#415,.T.);
#192=ORIENTED_EDGE('',*,*,#416,.T.);
#193=ORIENTED_EDGE('',*,*,#417,.F.);
#194=ORIENTED_EDGE('',*,*,#418,.F.);
#195=ORIENTED_EDGE('',*,*,#419,.T.);
#196=ORIENTED_EDGE('',*,*,#420,.F.);
#197=ORIENTED_EDGE('',*,*,#421,.F.);
#198=ORIENTED_EDGE('',*,*,#422,.T.);
#199=ORIENTED_EDGE('',*,*,#423,.T.);
#200=ORIENTED_EDGE('',*,*,#424,.F.);
#201=ORIENTED_EDGE('',*,*,#425,.F.);
#202=ORIENTED_EDGE('',*,*,#426,.F.);
#203=ORIENTED_EDGE('',*,*,#427,.F.);
#204=ORIENTED_EDGE('',*,*,#428,.F.);
#205=ORIENTED_EDGE('',*,*,#429,.F.);
#206=ORIENTED_EDGE('',*,*,#430,.F.);
#207=ORIENTED_EDGE('',*,*,#431,.F.);
#208=ORIENTED_EDGE('',*,*,#432,.F.);
#209=ORIENTED_EDGE('',*,*,#433,.F.);
#210=ORIENTED_EDGE('',*,*,#434,.F.);
#211=ORIENTED_EDGE('',*,*,#435,.F.);
#212=ORIENTED_EDGE('',*,*,#436,.T.);
#213=ORIENTED_EDGE('',*,*,#437,.T.);
#214=ORIENTED_EDGE('',*,*,#438,.T.);
#215=ORIENTED_EDGE('',*,*,#439,.T.);
#216=ORIENTED_EDGE('',*,*,#440,.F.);
#217=ORIENTED_EDGE('',*,*,#441,.T.);
#218=ORIENTED_EDGE('',*,*,#442,.F.);
#219=ORIENTED_EDGE('',*,*,#443,.T.);
#220=ORIENTED_EDGE('',*,*,#444,.F.);
#221=ORIENTED_EDGE('',*,*,#400,.T.);
#222=ORIENTED_EDGE('',*,*,#445,.T.);
#223=ORIENTED_EDGE('',*,*,#408,.F.);
#224=ORIENTED_EDGE('',*,*,#446,.T.);
#225=ORIENTED_EDGE('',*,*,#447,.T.);
#226=ORIENTED_EDGE('',*,*,#442,.T.);
#227=ORIENTED_EDGE('',*,*,#448,.T.);
#228=ORIENTED_EDGE('',*,*,#449,.F.);
#229=ORIENTED_EDGE('',*,*,#450,.F.);
#230=ORIENTED_EDGE('',*,*,#451,.T.);
#231=ORIENTED_EDGE('',*,*,#452,.T.);
#232=ORIENTED_EDGE('',*,*,#436,.F.);
#233=ORIENTED_EDGE('',*,*,#453,.T.);
#234=ORIENTED_EDGE('',*,*,#438,.F.);
#235=ORIENTED_EDGE('',*,*,#454,.T.);
#236=ORIENTED_EDGE('',*,*,#455,.T.);
#237=ORIENTED_EDGE('',*,*,#456,.T.);
#238=ORIENTED_EDGE('',*,*,#457,.F.);
#239=ORIENTED_EDGE('',*,*,#458,.F.);
#240=ORIENTED_EDGE('',*,*,#459,.T.);
#241=ORIENTED_EDGE('',*,*,#460,.T.);
#242=ORIENTED_EDGE('',*,*,#440,.T.);
#243=ORIENTED_EDGE('',*,*,#461,.T.);
#244=ORIENTED_EDGE('',*,*,#462,.T.);
#245=ORIENTED_EDGE('',*,*,#463,.T.);
#246=ORIENTED_EDGE('',*,*,#464,.T.);
#247=ORIENTED_EDGE('',*,*,#465,.T.);
#248=ORIENTED_EDGE('',*,*,#444,.T.);
#249=ORIENTED_EDGE('',*,*,#411,.F.);
#250=ORIENTED_EDGE('',*,*,#466,.F.);
#251=ORIENTED_EDGE('',*,*,#401,.T.);
#252=ORIENTED_EDGE('',*,*,#445,.F.);
#253=ORIENTED_EDGE('',*,*,#403,.F.);
#254=ORIENTED_EDGE('',*,*,#467,.T.);
#255=ORIENTED_EDGE('',*,*,#409,.T.);
#256=ORIENTED_EDGE('',*,*,#468,.T.);
#257=ORIENTED_EDGE('',*,*,#424,.T.);
#258=ORIENTED_EDGE('',*,*,#469,.F.);
#259=ORIENTED_EDGE('',*,*,#470,.F.);
#260=ORIENTED_EDGE('',*,*,#471,.T.);
#261=ORIENTED_EDGE('',*,*,#420,.T.);
#262=ORIENTED_EDGE('',*,*,#472,.F.);
#263=ORIENTED_EDGE('',*,*,#473,.F.);
#264=ORIENTED_EDGE('',*,*,#402,.F.);
#265=ORIENTED_EDGE('',*,*,#466,.T.);
#266=ORIENTED_EDGE('',*,*,#410,.T.);
#267=ORIENTED_EDGE('',*,*,#467,.F.);
#268=ORIENTED_EDGE('',*,*,#471,.F.);
#269=ORIENTED_EDGE('',*,*,#474,.F.);
#270=ORIENTED_EDGE('',*,*,#475,.T.);
#271=ORIENTED_EDGE('',*,*,#421,.T.);
#272=ORIENTED_EDGE('',*,*,#476,.T.);
#273=ORIENTED_EDGE('',*,*,#477,.T.);
#274=ORIENTED_EDGE('',*,*,#470,.T.);
#275=ORIENTED_EDGE('',*,*,#478,.F.);
#276=ORIENTED_EDGE('',*,*,#479,.F.);
#277=ORIENTED_EDGE('',*,*,#474,.T.);
#278=ORIENTED_EDGE('',*,*,#473,.T.);
#279=ORIENTED_EDGE('',*,*,#480,.F.);
#280=ORIENTED_EDGE('',*,*,#469,.T.);
#281=ORIENTED_EDGE('',*,*,#423,.F.);
#282=ORIENTED_EDGE('',*,*,#481,.F.);
#283=ORIENTED_EDGE('',*,*,#478,.T.);
#284=ORIENTED_EDGE('',*,*,#475,.F.);
#285=ORIENTED_EDGE('',*,*,#479,.T.);
#286=ORIENTED_EDGE('',*,*,#481,.T.);
#287=ORIENTED_EDGE('',*,*,#422,.F.);
#288=ORIENTED_EDGE('',*,*,#472,.T.);
#289=ORIENTED_EDGE('',*,*,#419,.F.);
#290=ORIENTED_EDGE('',*,*,#482,.F.);
#291=ORIENTED_EDGE('',*,*,#480,.T.);
#292=ORIENTED_EDGE('',*,*,#468,.F.);
#293=ORIENTED_EDGE('',*,*,#477,.F.);
#294=ORIENTED_EDGE('',*,*,#483,.T.);
#295=ORIENTED_EDGE('',*,*,#425,.T.);
#296=ORIENTED_EDGE('',*,*,#482,.T.);
#297=ORIENTED_EDGE('',*,*,#418,.T.);
#298=ORIENTED_EDGE('',*,*,#483,.F.);
#299=ORIENTED_EDGE('',*,*,#476,.F.);
#300=ORIENTED_EDGE('',*,*,#450,.T.);
#301=ORIENTED_EDGE('',*,*,#412,.F.);
#302=ORIENTED_EDGE('',*,*,#449,.T.);
#303=ORIENTED_EDGE('',*,*,#413,.F.);
#304=ORIENTED_EDGE('',*,*,#399,.T.);
#305=ORIENTED_EDGE('',*,*,#458,.T.);
#306=ORIENTED_EDGE('',*,*,#398,.T.);
#307=ORIENTED_EDGE('',*,*,#457,.T.);
#308=ORIENTED_EDGE('',*,*,#484,.F.);
#309=ORIENTED_EDGE('',*,*,#415,.F.);
#310=ORIENTED_EDGE('',*,*,#485,.T.);
#311=ORIENTED_EDGE('',*,*,#404,.T.);
#312=ORIENTED_EDGE('',*,*,#417,.T.);
#313=ORIENTED_EDGE('',*,*,#486,.T.);
#314=ORIENTED_EDGE('',*,*,#406,.F.);
#315=ORIENTED_EDGE('',*,*,#487,.F.);
#316=ORIENTED_EDGE('',*,*,#485,.F.);
#317=ORIENTED_EDGE('',*,*,#414,.T.);
#318=ORIENTED_EDGE('',*,*,#487,.T.);
#319=ORIENTED_EDGE('',*,*,#405,.F.);
#320=ORIENTED_EDGE('',*,*,#484,.T.);
#321=ORIENTED_EDGE('',*,*,#407,.T.);
#322=ORIENTED_EDGE('',*,*,#486,.F.);
#323=ORIENTED_EDGE('',*,*,#416,.F.);
#324=ORIENTED_EDGE('',*,*,#488,.F.);
#325=ORIENTED_EDGE('',*,*,#435,.T.);
#326=ORIENTED_EDGE('',*,*,#488,.T.);
#327=ORIENTED_EDGE('',*,*,#489,.F.);
#328=ORIENTED_EDGE('',*,*,#434,.T.);
#329=ORIENTED_EDGE('',*,*,#489,.T.);
#330=ORIENTED_EDGE('',*,*,#490,.F.);
#331=ORIENTED_EDGE('',*,*,#433,.T.);
#332=ORIENTED_EDGE('',*,*,#490,.T.);
#333=ORIENTED_EDGE('',*,*,#491,.F.);
#334=ORIENTED_EDGE('',*,*,#432,.T.);
#335=ORIENTED_EDGE('',*,*,#491,.T.);
#336=ORIENTED_EDGE('',*,*,#492,.F.);
#337=ORIENTED_EDGE('',*,*,#431,.T.);
#338=ORIENTED_EDGE('',*,*,#492,.T.);
#339=ORIENTED_EDGE('',*,*,#493,.F.);
#340=ORIENTED_EDGE('',*,*,#430,.T.);
#341=ORIENTED_EDGE('',*,*,#493,.T.);
#342=ORIENTED_EDGE('',*,*,#494,.F.);
#343=ORIENTED_EDGE('',*,*,#429,.T.);
#344=ORIENTED_EDGE('',*,*,#494,.T.);
#345=ORIENTED_EDGE('',*,*,#495,.F.);
#346=ORIENTED_EDGE('',*,*,#428,.T.);
#347=ORIENTED_EDGE('',*,*,#495,.T.);
#348=ORIENTED_EDGE('',*,*,#496,.F.);
#349=ORIENTED_EDGE('',*,*,#427,.T.);
#350=ORIENTED_EDGE('',*,*,#496,.T.);
#351=ORIENTED_EDGE('',*,*,#497,.F.);
#352=ORIENTED_EDGE('',*,*,#426,.T.);
#353=ORIENTED_EDGE('',*,*,#497,.T.);
#354=ORIENTED_EDGE('',*,*,#443,.F.);
#355=ORIENTED_EDGE('',*,*,#447,.F.);
#356=ORIENTED_EDGE('',*,*,#498,.F.);
#357=ORIENTED_EDGE('',*,*,#453,.F.);
#358=ORIENTED_EDGE('',*,*,#441,.F.);
#359=ORIENTED_EDGE('',*,*,#460,.F.);
#360=ORIENTED_EDGE('',*,*,#499,.F.);
#361=ORIENTED_EDGE('',*,*,#448,.F.);
#362=ORIENTED_EDGE('',*,*,#500,.F.);
#363=ORIENTED_EDGE('',*,*,#446,.F.);
#364=ORIENTED_EDGE('',*,*,#501,.F.);
#365=ORIENTED_EDGE('',*,*,#465,.F.);
#366=ORIENTED_EDGE('',*,*,#498,.T.);
#367=ORIENTED_EDGE('',*,*,#500,.T.);
#368=ORIENTED_EDGE('',*,*,#502,.F.);
#369=ORIENTED_EDGE('',*,*,#501,.T.);
#370=ORIENTED_EDGE('',*,*,#499,.T.);
#371=ORIENTED_EDGE('',*,*,#503,.F.);
#372=ORIENTED_EDGE('',*,*,#502,.T.);
#373=ORIENTED_EDGE('',*,*,#464,.F.);
#374=ORIENTED_EDGE('',*,*,#504,.F.);
#375=ORIENTED_EDGE('',*,*,#451,.F.);
#376=ORIENTED_EDGE('',*,*,#437,.F.);
#377=ORIENTED_EDGE('',*,*,#452,.F.);
#378=ORIENTED_EDGE('',*,*,#505,.F.);
#379=ORIENTED_EDGE('',*,*,#454,.F.);
#380=ORIENTED_EDGE('',*,*,#439,.F.);
#381=ORIENTED_EDGE('',*,*,#456,.F.);
#382=ORIENTED_EDGE('',*,*,#506,.F.);
#383=ORIENTED_EDGE('',*,*,#461,.F.);
#384=ORIENTED_EDGE('',*,*,#503,.T.);
#385=ORIENTED_EDGE('',*,*,#459,.F.);
#386=ORIENTED_EDGE('',*,*,#507,.F.);
#387=ORIENTED_EDGE('',*,*,#462,.F.);
#388=ORIENTED_EDGE('',*,*,#505,.T.);
#389=ORIENTED_EDGE('',*,*,#504,.T.);
#390=ORIENTED_EDGE('',*,*,#508,.F.);
#391=ORIENTED_EDGE('',*,*,#507,.T.);
#392=ORIENTED_EDGE('',*,*,#506,.T.);
#393=ORIENTED_EDGE('',*,*,#509,.F.);
#394=ORIENTED_EDGE('',*,*,#508,.T.);
#395=ORIENTED_EDGE('',*,*,#463,.F.);
#396=ORIENTED_EDGE('',*,*,#509,.T.);
#397=ORIENTED_EDGE('',*,*,#455,.F.);
#398=EDGE_CURVE('',#510,#510,#590,.T.);
#399=EDGE_CURVE('',#511,#511,#591,.T.);
#400=EDGE_CURVE('',#512,#513,#38,.T.);
#401=EDGE_CURVE('',#514,#512,#39,.T.);
#402=EDGE_CURVE('',#514,#515,#40,.T.);
#403=EDGE_CURVE('',#515,#513,#41,.T.);
#404=EDGE_CURVE('',#516,#517,#42,.T.);
#405=EDGE_CURVE('',#516,#518,#43,.T.);
#406=EDGE_CURVE('',#518,#519,#44,.T.);
#407=EDGE_CURVE('',#517,#519,#45,.T.);
#408=EDGE_CURVE('',#520,#521,#46,.T.);
#409=EDGE_CURVE('',#522,#521,#47,.T.);
#410=EDGE_CURVE('',#523,#522,#48,.T.);
#411=EDGE_CURVE('',#523,#520,#49,.T.);
#412=EDGE_CURVE('',#524,#524,#592,.T.);
#413=EDGE_CURVE('',#525,#525,#593,.T.);
#414=EDGE_CURVE('',#526,#527,#50,.T.);
#415=EDGE_CURVE('',#526,#528,#51,.T.);
#416=EDGE_CURVE('',#528,#529,#52,.T.);
#417=EDGE_CURVE('',#527,#529,#53,.T.);
#418=EDGE_CURVE('',#530,#531,#54,.T.);
#419=EDGE_CURVE('',#530,#532,#55,.T.);
#420=EDGE_CURVE('',#533,#532,#56,.T.);
#421=EDGE_CURVE('',#534,#533,#57,.T.);
#422=EDGE_CURVE('',#534,#535,#58,.T.);
#423=EDGE_CURVE('',#535,#536,#59,.T.);
#424=EDGE_CURVE('',#537,#536,#60,.T.);
#425=EDGE_CURVE('',#531,#537,#61,.T.);
#426=EDGE_CURVE('',#538,#538,#594,.T.);
#427=EDGE_CURVE('',#539,#539,#595,.T.);
#428=EDGE_CURVE('',#540,#540,#596,.T.);
#429=EDGE_CURVE('',#541,#541,#597,.T.);
#430=EDGE_CURVE('',#542,#542,#598,.T.);
#431=EDGE_CURVE('',#543,#543,#599,.T.);
#432=EDGE_CURVE('',#544,#544,#600,.T.);
#433=EDGE_CURVE('',#545,#545,#601,.T.);
#434=EDGE_CURVE('',#546,#546,#602,.T.);
#435=EDGE_CURVE('',#547,#547,#603,.T.);
#436=EDGE_CURVE('',#548,#549,#62,.T.);
#437=EDGE_CURVE('',#549,#550,#604,.T.);
#438=EDGE_CURVE('',#550,#551,#63,.T.);
#439=EDGE_CURVE('',#551,#552,#605,.T.);
#440=EDGE_CURVE('',#553,#552,#64,.T.);
#441=EDGE_CURVE('',#553,#554,#606,.T.);
#442=EDGE_CURVE('',#555,#554,#65,.T.);
#443=EDGE_CURVE('',#555,#548,#607,.T.);
#444=EDGE_CURVE('',#512,#520,#66,.T.);
#445=EDGE_CURVE('',#513,#521,#67,.T.);
#446=EDGE_CURVE('',#556,#557,#68,.F.);
#447=EDGE_CURVE('',#557,#555,#69,.T.);
#448=EDGE_CURVE('',#554,#556,#70,.F.);
#449=EDGE_CURVE('',#558,#558,#608,.T.);
#450=EDGE_CURVE('',#559,#559,#609,.T.);
#451=EDGE_CURVE('',#560,#561,#71,.T.);
#452=EDGE_CURVE('',#561,#549,#72,.T.);
#453=EDGE_CURVE('',#548,#560,#73,.F.);
#454=EDGE_CURVE('',#550,#562,#74,.F.);
#455=EDGE_CURVE('',#562,#563,#75,.T.);
#456=EDGE_CURVE('',#563,#551,#76,.T.);
#457=EDGE_CURVE('',#564,#564,#610,.T.);
#458=EDGE_CURVE('',#565,#565,#611,.T.);
#459=EDGE_CURVE('',#566,#567,#77,.F.);
#460=EDGE_CURVE('',#567,#553,#78,.T.);
#461=EDGE_CURVE('',#552,#566,#79,.F.);
#462=EDGE_CURVE('',#568,#569,#80,.T.);
#463=EDGE_CURVE('',#569,#570,#81,.F.);
#464=EDGE_CURVE('',#570,#571,#82,.F.);
#465=EDGE_CURVE('',#571,#568,#83,.T.);
#466=EDGE_CURVE('',#514,#523,#84,.T.);
#467=EDGE_CURVE('',#515,#522,#85,.T.);
#468=EDGE_CURVE('',#572,#537,#86,.T.);
#469=EDGE_CURVE('',#573,#536,#87,.T.);
#470=EDGE_CURVE('',#572,#573,#88,.T.);
#471=EDGE_CURVE('',#574,#533,#89,.T.);
#472=EDGE_CURVE('',#575,#532,#90,.T.);
#473=EDGE_CURVE('',#574,#575,#91,.T.);
#474=EDGE_CURVE('',#576,#574,#92,.T.);
#475=EDGE_CURVE('',#576,#534,#93,.T.);
#476=EDGE_CURVE('',#577,#578,#94,.T.);
#477=EDGE_CURVE('',#578,#572,#95,.T.);
#478=EDGE_CURVE('',#579,#573,#96,.T.);
#479=EDGE_CURVE('',#576,#579,#97,.T.);
#480=EDGE_CURVE('',#577,#575,#98,.T.);
#481=EDGE_CURVE('',#579,#535,#99,.T.);
#482=EDGE_CURVE('',#577,#530,#100,.T.);
#483=EDGE_CURVE('',#578,#531,#101,.T.);
#484=EDGE_CURVE('',#528,#517,#102,.T.);
#485=EDGE_CURVE('',#526,#516,#103,.T.);
#486=EDGE_CURVE('',#529,#519,#104,.T.);
#487=EDGE_CURVE('',#527,#518,#105,.T.);
#488=EDGE_CURVE('',#580,#580,#612,.T.);
#489=EDGE_CURVE('',#581,#581,#613,.T.);
#490=EDGE_CURVE('',#582,#582,#614,.T.);
#491=EDGE_CURVE('',#583,#583,#615,.T.);
#492=EDGE_CURVE('',#584,#584,#616,.T.);
#493=EDGE_CURVE('',#585,#585,#617,.T.);
#494=EDGE_CURVE('',#586,#586,#618,.T.);
#495=EDGE_CURVE('',#587,#587,#619,.T.);
#496=EDGE_CURVE('',#588,#588,#620,.T.);
#497=EDGE_CURVE('',#589,#589,#621,.T.);
#498=EDGE_CURVE('',#560,#557,#622,.T.);
#499=EDGE_CURVE('',#556,#567,#623,.T.);
#500=EDGE_CURVE('',#557,#571,#624,.T.);
#501=EDGE_CURVE('',#568,#556,#625,.T.);
#502=EDGE_CURVE('',#560,#571,#626,.F.);
#503=EDGE_CURVE('',#568,#567,#627,.F.);
#504=EDGE_CURVE('',#561,#570,#628,.T.);
#505=EDGE_CURVE('',#562,#561,#629,.T.);
#506=EDGE_CURVE('',#566,#563,#630,.T.);
#507=EDGE_CURVE('',#569,#566,#631,.T.);
#508=EDGE_CURVE('',#562,#570,#632,.F.);
#509=EDGE_CURVE('',#569,#563,#633,.F.);
#510=VERTEX_POINT('',#1313);
#511=VERTEX_POINT('',#1315);
#512=VERTEX_POINT('',#1317);
#513=VERTEX_POINT('',#1318);
#514=VERTEX_POINT('',#1320);
#515=VERTEX_POINT('',#1322);
#516=VERTEX_POINT('',#1325);
#517=VERTEX_POINT('',#1326);
#518=VERTEX_POINT('',#1328);
#519=VERTEX_POINT('',#1330);
#520=VERTEX_POINT('',#1334);
#521=VERTEX_POINT('',#1335);
#522=VERTEX_POINT('',#1337);
#523=VERTEX_POINT('',#1339);
#524=VERTEX_POINT('',#1342);
#525=VERTEX_POINT('',#1344);
#526=VERTEX_POINT('',#1346);
#527=VERTEX_POINT('',#1347);
#528=VERTEX_POINT('',#1349);
#529=VERTEX_POINT('',#1351);
#530=VERTEX_POINT('',#1355);
#531=VERTEX_POINT('',#1356);
#532=VERTEX_POINT('',#1358);
#533=VERTEX_POINT('',#1360);
#534=VERTEX_POINT('',#1362);
#535=VERTEX_POINT('',#1364);
#536=VERTEX_POINT('',#1366);
#537=VERTEX_POINT('',#1368);
#538=VERTEX_POINT('',#1372);
#539=VERTEX_POINT('',#1374);
#540=VERTEX_POINT('',#1376);
#541=VERTEX_POINT('',#1378);
#542=VERTEX_POINT('',#1380);
#543=VERTEX_POINT('',#1382);
#544=VERTEX_POINT('',#1384);
#545=VERTEX_POINT('',#1386);
#546=VERTEX_POINT('',#1388);
#547=VERTEX_POINT('',#1390);
#548=VERTEX_POINT('',#1392);
#549=VERTEX_POINT('',#1393);
#550=VERTEX_POINT('',#1395);
#551=VERTEX_POINT('',#1397);
#552=VERTEX_POINT('',#1399);
#553=VERTEX_POINT('',#1401);
#554=VERTEX_POINT('',#1403);
#555=VERTEX_POINT('',#1405);
#556=VERTEX_POINT('',#1411);
#557=VERTEX_POINT('',#1412);
#558=VERTEX_POINT('',#1417);
#559=VERTEX_POINT('',#1419);
#560=VERTEX_POINT('',#1421);
#561=VERTEX_POINT('',#1422);
#562=VERTEX_POINT('',#1427);
#563=VERTEX_POINT('',#1429);
#564=VERTEX_POINT('',#1433);
#565=VERTEX_POINT('',#1435);
#566=VERTEX_POINT('',#1437);
#567=VERTEX_POINT('',#1438);
#568=VERTEX_POINT('',#1443);
#569=VERTEX_POINT('',#1444);
#570=VERTEX_POINT('',#1446);
#571=VERTEX_POINT('',#1448);
#572=VERTEX_POINT('',#1456);
#573=VERTEX_POINT('',#1458);
#574=VERTEX_POINT('',#1461);
#575=VERTEX_POINT('',#1463);
#576=VERTEX_POINT('',#1467);
#577=VERTEX_POINT('',#1471);
#578=VERTEX_POINT('',#1472);
#579=VERTEX_POINT('',#1475);
#580=VERTEX_POINT('',#1500);
#581=VERTEX_POINT('',#1504);
#582=VERTEX_POINT('',#1508);
#583=VERTEX_POINT('',#1512);
#584=VERTEX_POINT('',#1516);
#585=VERTEX_POINT('',#1520);
#586=VERTEX_POINT('',#1524);
#587=VERTEX_POINT('',#1528);
#588=VERTEX_POINT('',#1532);
#589=VERTEX_POINT('',#1536);
#590=CIRCLE('',#932,0.00175);
#591=CIRCLE('',#933,0.00175);
#592=CIRCLE('',#935,0.00175);
#593=CIRCLE('',#936,0.00175);
#594=CIRCLE('',#939,0.00075);
#595=CIRCLE('',#940,0.00075);
#596=CIRCLE('',#941,0.00075);
#597=CIRCLE('',#942,0.00075);
#598=CIRCLE('',#943,0.00075);
#599=CIRCLE('',#944,0.00075);
#600=CIRCLE('',#945,0.00075);
#601=CIRCLE('',#946,0.00075);
#602=CIRCLE('',#947,0.00075);
#603=CIRCLE('',#948,0.00075);
#604=CIRCLE('',#949,0.001);
#605=CIRCLE('',#950,0.001);
#606=CIRCLE('',#951,0.001);
#607=CIRCLE('',#952,0.001);
#608=CIRCLE('',#955,0.00175);
#609=CIRCLE('',#956,0.00175);
#610=CIRCLE('',#959,0.00175);
#611=CIRCLE('',#960,0.00175);
#612=CIRCLE('',#981,0.00075);
#613=CIRCLE('',#984,0.00075);
#614=CIRCLE('',#987,0.00075);
#615=CIRCLE('',#990,0.00075);
#616=CIRCLE('',#993,0.00075);
#617=CIRCLE('',#996,0.00075);
#618=CIRCLE('',#999,0.00075);
#619=CIRCLE('',#1002,0.00075);
#620=CIRCLE('',#1005,0.00075);
#621=CIRCLE('',#1008,0.00075);
#622=CIRCLE('',#1011,0.001);
#623=CIRCLE('',#1013,0.001);
#624=CIRCLE('',#1015,0.001);
#625=CIRCLE('',#1016,0.001);
#626=CIRCLE('',#1018,0.001);
#627=CIRCLE('',#1020,0.001);
#628=CIRCLE('',#1022,0.001);
#629=CIRCLE('',#1024,0.001);
#630=CIRCLE('',#1026,0.001);
#631=CIRCLE('',#1028,0.001);
#632=CIRCLE('',#1030,0.001);
#633=CIRCLE('',#1032,0.001);
#634=EDGE_LOOP('',(#174));
#635=EDGE_LOOP('',(#175));
#636=EDGE_LOOP('',(#176,#177,#178,#179));
#637=EDGE_LOOP('',(#180,#181,#182,#183));
#638=EDGE_LOOP('',(#184,#185,#186,#187));
#639=EDGE_LOOP('',(#188));
#640=EDGE_LOOP('',(#189));
#641=EDGE_LOOP('',(#190,#191,#192,#193));
#642=EDGE_LOOP('',(#194,#195,#196,#197,#198,#199,#200,#201));
#643=EDGE_LOOP('',(#202));
#644=EDGE_LOOP('',(#203));
#645=EDGE_LOOP('',(#204));
#646=EDGE_LOOP('',(#205));
#647=EDGE_LOOP('',(#206));
#648=EDGE_LOOP('',(#207));
#649=EDGE_LOOP('',(#208));
#650=EDGE_LOOP('',(#209));
#651=EDGE_LOOP('',(#210));
#652=EDGE_LOOP('',(#211));
#653=EDGE_LOOP('',(#212,#213,#214,#215,#216,#217,#218,#219));
#654=EDGE_LOOP('',(#220,#221,#222,#223));
#655=EDGE_LOOP('',(#224,#225,#226,#227));
#656=EDGE_LOOP('',(#228));
#657=EDGE_LOOP('',(#229));
#658=EDGE_LOOP('',(#230,#231,#232,#233));
#659=EDGE_LOOP('',(#234,#235,#236,#237));
#660=EDGE_LOOP('',(#238));
#661=EDGE_LOOP('',(#239));
#662=EDGE_LOOP('',(#240,#241,#242,#243));
#663=EDGE_LOOP('',(#244,#245,#246,#247));
#664=EDGE_LOOP('',(#248,#249,#250,#251));
#665=EDGE_LOOP('',(#252,#253,#254,#255));
#666=EDGE_LOOP('',(#256,#257,#258,#259));
#667=EDGE_LOOP('',(#260,#261,#262,#263));
#668=EDGE_LOOP('',(#264,#265,#266,#267));
#669=EDGE_LOOP('',(#268,#269,#270,#271));
#670=EDGE_LOOP('',(#272,#273,#274,#275,#276,#277,#278,#279));
#671=EDGE_LOOP('',(#280,#281,#282,#283));
#672=EDGE_LOOP('',(#284,#285,#286,#287));
#673=EDGE_LOOP('',(#288,#289,#290,#291));
#674=EDGE_LOOP('',(#292,#293,#294,#295));
#675=EDGE_LOOP('',(#296,#297,#298,#299));
#676=EDGE_LOOP('',(#300));
#677=EDGE_LOOP('',(#301));
#678=EDGE_LOOP('',(#302));
#679=EDGE_LOOP('',(#303));
#680=EDGE_LOOP('',(#304));
#681=EDGE_LOOP('',(#305));
#682=EDGE_LOOP('',(#306));
#683=EDGE_LOOP('',(#307));
#684=EDGE_LOOP('',(#308,#309,#310,#311));
#685=EDGE_LOOP('',(#312,#313,#314,#315));
#686=EDGE_LOOP('',(#316,#317,#318,#319));
#687=EDGE_LOOP('',(#320,#321,#322,#323));
#688=EDGE_LOOP('',(#324));
#689=EDGE_LOOP('',(#325));
#690=EDGE_LOOP('',(#326));
#691=EDGE_LOOP('',(#327));
#692=EDGE_LOOP('',(#328));
#693=EDGE_LOOP('',(#329));
#694=EDGE_LOOP('',(#330));
#695=EDGE_LOOP('',(#331));
#696=EDGE_LOOP('',(#332));
#697=EDGE_LOOP('',(#333));
#698=EDGE_LOOP('',(#334));
#699=EDGE_LOOP('',(#335));
#700=EDGE_LOOP('',(#336));
#701=EDGE_LOOP('',(#337));
#702=EDGE_LOOP('',(#338));
#703=EDGE_LOOP('',(#339));
#704=EDGE_LOOP('',(#340));
#705=EDGE_LOOP('',(#341));
#706=EDGE_LOOP('',(#342));
#707=EDGE_LOOP('',(#343));
#708=EDGE_LOOP('',(#344));
#709=EDGE_LOOP('',(#345));
#710=EDGE_LOOP('',(#346));
#711=EDGE_LOOP('',(#347));
#712=EDGE_LOOP('',(#348));
#713=EDGE_LOOP('',(#349));
#714=EDGE_LOOP('',(#350));
#715=EDGE_LOOP('',(#351));
#716=EDGE_LOOP('',(#352));
#717=EDGE_LOOP('',(#353));
#718=EDGE_LOOP('',(#354,#355,#356,#357));
#719=EDGE_LOOP('',(#358,#359,#360,#361));
#720=EDGE_LOOP('',(#362,#363,#364,#365));
#721=EDGE_LOOP('',(#366,#367,#368));
#722=EDGE_LOOP('',(#369,#370,#371));
#723=EDGE_LOOP('',(#372,#373,#374,#375));
#724=EDGE_LOOP('',(#376,#377,#378,#379));
#725=EDGE_LOOP('',(#380,#381,#382,#383));
#726=EDGE_LOOP('',(#384,#385,#386,#387));
#727=EDGE_LOOP('',(#388,#389,#390));
#728=EDGE_LOOP('',(#391,#392,#393));
#729=EDGE_LOOP('',(#394,#395,#396,#397));
#730=FACE_BOUND('',#634,.T.);
#731=FACE_BOUND('',#635,.T.);
#732=FACE_BOUND('',#636,.T.);
#733=FACE_BOUND('',#637,.T.);
#734=FACE_BOUND('',#638,.T.);
#735=FACE_BOUND('',#639,.T.);
#736=FACE_BOUND('',#640,.T.);
#737=FACE_BOUND('',#641,.T.);
#738=FACE_BOUND('',#642,.T.);
#739=FACE_BOUND('',#643,.T.);
#740=FACE_BOUND('',#644,.T.);
#741=FACE_BOUND('',#645,.T.);
#742=FACE_BOUND('',#646,.T.);
#743=FACE_BOUND('',#647,.T.);
#744=FACE_BOUND('',#648,.T.);
#745=FACE_BOUND('',#649,.T.);
#746=FACE_BOUND('',#650,.T.);
#747=FACE_BOUND('',#651,.T.);
#748=FACE_BOUND('',#652,.T.);
#749=FACE_BOUND('',#653,.T.);
#750=FACE_BOUND('',#654,.T.);
#751=FACE_BOUND('',#655,.T.);
#752=FACE_BOUND('',#656,.T.);
#753=FACE_BOUND('',#657,.T.);
#754=FACE_BOUND('',#658,.T.);
#755=FACE_BOUND('',#659,.T.);
#756=FACE_BOUND('',#660,.T.);
#757=FACE_BOUND('',#661,.T.);
#758=FACE_BOUND('',#662,.T.);
#759=FACE_BOUND('',#663,.T.);
#760=FACE_BOUND('',#664,.T.);
#761=FACE_BOUND('',#665,.T.);
#762=FACE_BOUND('',#666,.T.);
#763=FACE_BOUND('',#667,.T.);
#764=FACE_BOUND('',#668,.T.);
#765=FACE_BOUND('',#669,.T.);
#766=FACE_BOUND('',#670,.T.);
#767=FACE_BOUND('',#671,.T.);
#768=FACE_BOUND('',#672,.T.);
#769=FACE_BOUND('',#673,.T.);
#770=FACE_BOUND('',#674,.T.);
#771=FACE_BOUND('',#675,.T.);
#772=FACE_BOUND('',#676,.T.);
#773=FACE_BOUND('',#677,.T.);
#774=FACE_BOUND('',#678,.T.);
#775=FACE_BOUND('',#679,.T.);
#776=FACE_BOUND('',#680,.T.);
#777=FACE_BOUND('',#681,.T.);
#778=FACE_BOUND('',#682,.T.);
#779=FACE_BOUND('',#683,.T.);
#780=FACE_BOUND('',#684,.T.);
#781=FACE_BOUND('',#685,.T.);
#782=FACE_BOUND('',#686,.T.);
#783=FACE_BOUND('',#687,.T.);
#784=FACE_BOUND('',#688,.T.);
#785=FACE_BOUND('',#689,.T.);
#786=FACE_BOUND('',#690,.T.);
#787=FACE_BOUND('',#691,.T.);
#788=FACE_BOUND('',#692,.T.);
#789=FACE_BOUND('',#693,.T.);
#790=FACE_BOUND('',#694,.T.);
#791=FACE_BOUND('',#695,.T.);
#792=FACE_BOUND('',#696,.T.);
#793=FACE_BOUND('',#697,.T.);
#794=FACE_BOUND('',#698,.T.);
#795=FACE_BOUND('',#699,.T.);
#796=FACE_BOUND('',#700,.T.);
#797=FACE_BOUND('',#701,.T.);
#798=FACE_BOUND('',#702,.T.);
#799=FACE_BOUND('',#703,.T.);
#800=FACE_BOUND('',#704,.T.);
#801=FACE_BOUND('',#705,.T.);
#802=FACE_BOUND('',#706,.T.);
#803=FACE_BOUND('',#707,.T.);
#804=FACE_BOUND('',#708,.T.);
#805=FACE_BOUND('',#709,.T.);
#806=FACE_BOUND('',#710,.T.);
#807=FACE_BOUND('',#711,.T.);
#808=FACE_BOUND('',#712,.T.);
#809=FACE_BOUND('',#713,.T.);
#810=FACE_BOUND('',#714,.T.);
#811=FACE_BOUND('',#715,.T.);
#812=FACE_BOUND('',#716,.T.);
#813=FACE_BOUND('',#717,.T.);
#814=FACE_BOUND('',#718,.T.);
#815=FACE_BOUND('',#719,.T.);
#816=FACE_BOUND('',#720,.T.);
#817=FACE_BOUND('',#721,.T.);
#818=FACE_BOUND('',#722,.T.);
#819=FACE_BOUND('',#723,.T.);
#820=FACE_BOUND('',#724,.T.);
#821=FACE_BOUND('',#725,.T.);
#822=FACE_BOUND('',#726,.T.);
#823=FACE_BOUND('',#727,.T.);
#824=FACE_BOUND('',#728,.T.);
#825=FACE_BOUND('',#729,.T.);
#826=PLANE('',#931);
#827=PLANE('',#934);
#828=PLANE('',#937);
#829=PLANE('',#938);
#830=PLANE('',#953);
#831=PLANE('',#954);
#832=PLANE('',#957);
#833=PLANE('',#958);
#834=PLANE('',#961);
#835=PLANE('',#962);
#836=PLANE('',#963);
#837=PLANE('',#964);
#838=PLANE('',#965);
#839=PLANE('',#966);
#840=PLANE('',#967);
#841=PLANE('',#968);
#842=PLANE('',#969);
#843=PLANE('',#970);
#844=PLANE('',#971);
#845=PLANE('',#976);
#846=PLANE('',#977);
#847=PLANE('',#978);
#848=PLANE('',#979);
#849=PLANE('',#982);
#850=PLANE('',#985);
#851=PLANE('',#988);
#852=PLANE('',#991);
#853=PLANE('',#994);
#854=PLANE('',#997);
#855=PLANE('',#1000);
#856=PLANE('',#1003);
#857=PLANE('',#1006);
#858=PLANE('',#1009);
#859=ADVANCED_FACE('',(#730,#731,#732,#733),#826,.T.);
#860=ADVANCED_FACE('',(#734,#735,#736,#737),#827,.F.);
#861=ADVANCED_FACE('',(#738),#828,.T.);
#862=ADVANCED_FACE('',(#739,#740,#741,#742,#743,#744,#745,#746,#747,#748,
#749,#750),#829,.T.);
#863=ADVANCED_FACE('',(#751),#830,.F.);
#864=ADVANCED_FACE('',(#752,#753,#754),#831,.T.);
#865=ADVANCED_FACE('',(#755),#832,.T.);
#866=ADVANCED_FACE('',(#756,#757,#758),#833,.F.);
#867=ADVANCED_FACE('',(#759),#834,.F.);
#868=ADVANCED_FACE('',(#760),#835,.F.);
#869=ADVANCED_FACE('',(#761),#836,.T.);
#870=ADVANCED_FACE('',(#762,#763,#764),#837,.T.);
#871=ADVANCED_FACE('',(#765),#838,.T.);
#872=ADVANCED_FACE('',(#766),#839,.F.);
#873=ADVANCED_FACE('',(#767),#840,.F.);
#874=ADVANCED_FACE('',(#768),#841,.T.);
#875=ADVANCED_FACE('',(#769),#842,.F.);
#876=ADVANCED_FACE('',(#770),#843,.T.);
#877=ADVANCED_FACE('',(#771),#844,.F.);
#878=ADVANCED_FACE('',(#772,#773),#16,.F.);
#879=ADVANCED_FACE('',(#774,#775),#17,.F.);
#880=ADVANCED_FACE('',(#776,#777),#18,.F.);
#881=ADVANCED_FACE('',(#778,#779),#19,.F.);
#882=ADVANCED_FACE('',(#780),#845,.T.);
#883=ADVANCED_FACE('',(#781),#846,.F.);
#884=ADVANCED_FACE('',(#782),#847,.T.);
#885=ADVANCED_FACE('',(#783),#848,.F.);
#886=ADVANCED_FACE('',(#784,#785),#20,.F.);
#887=ADVANCED_FACE('',(#786),#849,.T.);
#888=ADVANCED_FACE('',(#787,#788),#21,.F.);
#889=ADVANCED_FACE('',(#789),#850,.T.);
#890=ADVANCED_FACE('',(#790,#791),#22,.F.);
#891=ADVANCED_FACE('',(#792),#851,.T.);
#892=ADVANCED_FACE('',(#793,#794),#23,.F.);
#893=ADVANCED_FACE('',(#795),#852,.T.);
#894=ADVANCED_FACE('',(#796,#797),#24,.F.);
#895=ADVANCED_FACE('',(#798),#853,.T.);
#896=ADVANCED_FACE('',(#799,#800),#25,.F.);
#897=ADVANCED_FACE('',(#801),#854,.T.);
#898=ADVANCED_FACE('',(#802,#803),#26,.F.);
#899=ADVANCED_FACE('',(#804),#855,.T.);
#900=ADVANCED_FACE('',(#805,#806),#27,.F.);
#901=ADVANCED_FACE('',(#807),#856,.T.);
#902=ADVANCED_FACE('',(#808,#809),#28,.F.);
#903=ADVANCED_FACE('',(#810),#857,.T.);
#904=ADVANCED_FACE('',(#811,#812),#29,.F.);
#905=ADVANCED_FACE('',(#813),#858,.T.);
#906=ADVANCED_FACE('',(#814),#30,.T.);
#907=ADVANCED_FACE('',(#815),#31,.T.);
#908=ADVANCED_FACE('',(#816),#32,.T.);
#909=ADVANCED_FACE('',(#817),#12,.T.);
#910=ADVANCED_FACE('',(#818),#13,.T.);
#911=ADVANCED_FACE('',(#819),#33,.T.);
#912=ADVANCED_FACE('',(#820),#34,.T.);
#913=ADVANCED_FACE('',(#821),#35,.T.);
#914=ADVANCED_FACE('',(#822),#36,.T.);
#915=ADVANCED_FACE('',(#823),#14,.T.);
#916=ADVANCED_FACE('',(#824),#15,.T.);
#917=ADVANCED_FACE('',(#825),#37,.T.);
#918=CLOSED_SHELL('',(#859,#860,#861,#862,#863,#864,#865,#866,#867,#868,
#869,#870,#871,#872,#873,#874,#875,#876,#877,#878,#879,#880,#881,#882,#883,
#884,#885,#886,#887,#888,#889,#890,#891,#892,#893,#894,#895,#896,#897,#898,
#899,#900,#901,#902,#903,#904,#905,#906,#907,#908,#909,#910,#911,#912,#913,
#914,#915,#916,#917));
#919=STYLED_ITEM('',(#920),#927);
#920=PRESENTATION_STYLE_ASSIGNMENT((#921));
#921=SURFACE_STYLE_USAGE(.BOTH.,#922);
#922=SURFACE_SIDE_STYLE('',(#923));
#923=SURFACE_STYLE_FILL_AREA(#924);
#924=FILL_AREA_STYLE('',(#925));
#925=FILL_AREA_STYLE_COLOUR('',#926);
#926=COLOUR_RGB('',0.647058823529412,0.647058823529412,0.647058823529412);
#927=MANIFOLD_SOLID_BREP('Part 2',#918);
#928=SHAPE_DEFINITION_REPRESENTATION(#1568,#929);
#929=SHAPE_REPRESENTATION('Part 2',(#930),#1563);
#930=AXIS2_PLACEMENT_3D('',#1310,#1034,#1035);
#931=AXIS2_PLACEMENT_3D('',#1311,#1036,#1037);
#932=AXIS2_PLACEMENT_3D('',#1312,#1038,#1039);
#933=AXIS2_PLACEMENT_3D('',#1314,#1040,#1041);
#934=AXIS2_PLACEMENT_3D('',#1332,#1050,#1051);
#935=AXIS2_PLACEMENT_3D('',#1341,#1056,#1057);
#936=AXIS2_PLACEMENT_3D('',#1343,#1058,#1059);
#937=AXIS2_PLACEMENT_3D('',#1353,#1064,#1065);
#938=AXIS2_PLACEMENT_3D('',#1370,#1074,#1075);
#939=AXIS2_PLACEMENT_3D('',#1371,#1076,#1077);
#940=AXIS2_PLACEMENT_3D('',#1373,#1078,#1079);
#941=AXIS2_PLACEMENT_3D('',#1375,#1080,#1081);
#942=AXIS2_PLACEMENT_3D('',#1377,#1082,#1083);
#943=AXIS2_PLACEMENT_3D('',#1379,#1084,#1085);
#944=AXIS2_PLACEMENT_3D('',#1381,#1086,#1087);
#945=AXIS2_PLACEMENT_3D('',#1383,#1088,#1089);
#946=AXIS2_PLACEMENT_3D('',#1385,#1090,#1091);
#947=AXIS2_PLACEMENT_3D('',#1387,#1092,#1093);
#948=AXIS2_PLACEMENT_3D('',#1389,#1094,#1095);
#949=AXIS2_PLACEMENT_3D('',#1394,#1097,#1098);
#950=AXIS2_PLACEMENT_3D('',#1398,#1100,#1101);
#951=AXIS2_PLACEMENT_3D('',#1402,#1103,#1104);
#952=AXIS2_PLACEMENT_3D('',#1406,#1106,#1107);
#953=AXIS2_PLACEMENT_3D('',#1409,#1110,#1111);
#954=AXIS2_PLACEMENT_3D('',#1415,#1115,#1116);
#955=AXIS2_PLACEMENT_3D('',#1416,#1117,#1118);
#956=AXIS2_PLACEMENT_3D('',#1418,#1119,#1120);
#957=AXIS2_PLACEMENT_3D('',#1425,#1124,#1125);
#958=AXIS2_PLACEMENT_3D('',#1431,#1129,#1130);
#959=AXIS2_PLACEMENT_3D('',#1432,#1131,#1132);
#960=AXIS2_PLACEMENT_3D('',#1434,#1133,#1134);
#961=AXIS2_PLACEMENT_3D('',#1441,#1138,#1139);
#962=AXIS2_PLACEMENT_3D('',#1450,#1144,#1145);
#963=AXIS2_PLACEMENT_3D('',#1452,#1147,#1148);
#964=AXIS2_PLACEMENT_3D('',#1454,#1150,#1151);
#965=AXIS2_PLACEMENT_3D('',#1465,#1158,#1159);
#966=AXIS2_PLACEMENT_3D('',#1469,#1162,#1163);
#967=AXIS2_PLACEMENT_3D('',#1478,#1169,#1170);
#968=AXIS2_PLACEMENT_3D('',#1480,#1172,#1173);
#969=AXIS2_PLACEMENT_3D('',#1481,#1174,#1175);
#970=AXIS2_PLACEMENT_3D('',#1483,#1177,#1178);
#971=AXIS2_PLACEMENT_3D('',#1485,#1180,#1181);
#972=AXIS2_PLACEMENT_3D('',#1486,#1182,#1183);
#973=AXIS2_PLACEMENT_3D('',#1487,#1184,#1185);
#974=AXIS2_PLACEMENT_3D('',#1488,#1186,#1187);
#975=AXIS2_PLACEMENT_3D('',#1489,#1188,#1189);
#976=AXIS2_PLACEMENT_3D('',#1490,#1190,#1191);
#977=AXIS2_PLACEMENT_3D('',#1493,#1194,#1195);
#978=AXIS2_PLACEMENT_3D('',#1496,#1198,#1199);
#979=AXIS2_PLACEMENT_3D('',#1497,#1200,#1201);
#980=AXIS2_PLACEMENT_3D('',#1498,#1202,#1203);
#981=AXIS2_PLACEMENT_3D('',#1499,#1204,#1205);
#982=AXIS2_PLACEMENT_3D('',#1501,#1206,#1207);
#983=AXIS2_PLACEMENT_3D('',#1502,#1208,#1209);
#984=AXIS2_PLACEMENT_3D('',#1503,#1210,#1211);
#985=AXIS2_PLACEMENT_3D('',#1505,#1212,#1213);
#986=AXIS2_PLACEMENT_3D('',#1506,#1214,#1215);
#987=AXIS2_PLACEMENT_3D('',#1507,#1216,#1217);
#988=AXIS2_PLACEMENT_3D('',#1509,#1218,#1219);
#989=AXIS2_PLACEMENT_3D('',#1510,#1220,#1221);
#990=AXIS2_PLACEMENT_3D('',#1511,#1222,#1223);
#991=AXIS2_PLACEMENT_3D('',#1513,#1224,#1225);
#992=AXIS2_PLACEMENT_3D('',#1514,#1226,#1227);
#993=AXIS2_PLACEMENT_3D('',#1515,#1228,#1229);
#994=AXIS2_PLACEMENT_3D('',#1517,#1230,#1231);
#995=AXIS2_PLACEMENT_3D('',#1518,#1232,#1233);
#996=AXIS2_PLACEMENT_3D('',#1519,#1234,#1235);
#997=AXIS2_PLACEMENT_3D('',#1521,#1236,#1237);
#998=AXIS2_PLACEMENT_3D('',#1522,#1238,#1239);
#999=AXIS2_PLACEMENT_3D('',#1523,#1240,#1241);
#1000=AXIS2_PLACEMENT_3D('',#1525,#1242,#1243);
#1001=AXIS2_PLACEMENT_3D('',#1526,#1244,#1245);
#1002=AXIS2_PLACEMENT_3D('',#1527,#1246,#1247);
#1003=AXIS2_PLACEMENT_3D('',#1529,#1248,#1249);
#1004=AXIS2_PLACEMENT_3D('',#1530,#1250,#1251);
#1005=AXIS2_PLACEMENT_3D('',#1531,#1252,#1253);
#1006=AXIS2_PLACEMENT_3D('',#1533,#1254,#1255);
#1007=AXIS2_PLACEMENT_3D('',#1534,#1256,#1257);
#1008=AXIS2_PLACEMENT_3D('',#1535,#1258,#1259);
#1009=AXIS2_PLACEMENT_3D('',#1537,#1260,#1261);
#1010=AXIS2_PLACEMENT_3D('',#1538,#1262,#1263);
#1011=AXIS2_PLACEMENT_3D('',#1539,#1264,#1265);
#1012=AXIS2_PLACEMENT_3D('',#1540,#1266,#1267);
#1013=AXIS2_PLACEMENT_3D('',#1541,#1268,#1269);
#1014=AXIS2_PLACEMENT_3D('',#1542,#1270,#1271);
#1015=AXIS2_PLACEMENT_3D('',#1543,#1272,#1273);
#1016=AXIS2_PLACEMENT_3D('',#1544,#1274,#1275);
#1017=AXIS2_PLACEMENT_3D('',#1545,#1276,#1277);
#1018=AXIS2_PLACEMENT_3D('',#1546,#1278,#1279);
#1019=AXIS2_PLACEMENT_3D('',#1547,#1280,#1281);
#1020=AXIS2_PLACEMENT_3D('',#1548,#1282,#1283);
#1021=AXIS2_PLACEMENT_3D('',#1549,#1284,#1285);
#1022=AXIS2_PLACEMENT_3D('',#1550,#1286,#1287);
#1023=AXIS2_PLACEMENT_3D('',#1551,#1288,#1289);
#1024=AXIS2_PLACEMENT_3D('',#1552,#1290,#1291);
#1025=AXIS2_PLACEMENT_3D('',#1553,#1292,#1293);
#1026=AXIS2_PLACEMENT_3D('',#1554,#1294,#1295);
#1027=AXIS2_PLACEMENT_3D('',#1555,#1296,#1297);
#1028=AXIS2_PLACEMENT_3D('',#1556,#1298,#1299);
#1029=AXIS2_PLACEMENT_3D('',#1557,#1300,#1301);
#1030=AXIS2_PLACEMENT_3D('',#1558,#1302,#1303);
#1031=AXIS2_PLACEMENT_3D('',#1559,#1304,#1305);
#1032=AXIS2_PLACEMENT_3D('',#1560,#1306,#1307);
#1033=AXIS2_PLACEMENT_3D('',#1561,#1308,#1309);
#1034=DIRECTION('',(0.,0.,1.));
#1035=DIRECTION('',(1.,0.,0.));
#1036=DIRECTION('',(-1.,0.,0.));
#1037=DIRECTION('',(0.,0.,1.));
#1038=DIRECTION('',(-1.,0.,0.));
#1039=DIRECTION('',(0.,0.,1.));
#1040=DIRECTION('',(-1.,0.,0.));
#1041=DIRECTION('',(0.,0.,1.));
#1042=DIRECTION('',(0.,-1.,0.));
#1043=DIRECTION('',(0.,0.,1.));
#1044=DIRECTION('',(0.,-1.,0.));
#1045=DIRECTION('',(0.,0.,1.));
#1046=DIRECTION('',(0.,0.,-1.));
#1047=DIRECTION('',(0.,-1.,0.));
#1048=DIRECTION('',(0.,0.,-1.));
#1049=DIRECTION('',(0.,-1.,0.));
#1050=DIRECTION('',(-1.,-4.18005656861881E-17,0.));
#1051=DIRECTION('',(4.18005656861881E-17,-1.,0.));
#1052=DIRECTION('',(4.18005656861881E-17,-1.,0.));
#1053=DIRECTION('',(0.,0.,1.));
#1054=DIRECTION('',(4.18005656861881E-17,-1.,0.));
#1055=DIRECTION('',(0.,0.,1.));
#1056=DIRECTION('',(-1.,-4.18005656861881E-17,0.));
#1057=DIRECTION('',(4.18005656861881E-17,-1.,0.));
#1058=DIRECTION('',(-1.,-4.18005656861881E-17,0.));
#1059=DIRECTION('',(4.18005656861881E-17,-1.,0.));
#1060=DIRECTION('',(0.,-1.,0.));
#1061=DIRECTION('',(0.,0.,-1.));
#1062=DIRECTION('',(0.,-1.,0.));
#1063=DIRECTION('',(0.,0.,-1.));
#1064=DIRECTION('',(1.,0.,0.));
#1065=DIRECTION('',(0.,0.,-1.));
#1066=DIRECTION('',(0.,-1.,0.));
#1067=DIRECTION('',(0.,0.,-1.));
#1068=DIRECTION('',(0.,-1.,0.));
#1069=DIRECTION('',(0.,0.,-1.));
#1070=DIRECTION('',(0.,-1.,0.));
#1071=DIRECTION('',(0.,0.,-1.));
#1072=DIRECTION('',(0.,-1.,0.));
#1073=DIRECTION('',(0.,0.,-1.));
#1074=DIRECTION('',(0.,0.,1.));
#1075=DIRECTION('',(1.,0.,0.));
#1076=DIRECTION('',(0.,0.,1.));
#1077=DIRECTION('',(1.,0.,0.));
#1078=DIRECTION('',(0.,0.,1.));
#1079=DIRECTION('',(1.,0.,0.));
#1080=DIRECTION('',(0.,0.,1.));
#1081=DIRECTION('',(1.,0.,0.));
#1082=DIRECTION('',(0.,0.,1.));
#1083=DIRECTION('',(1.,0.,0.));
#1084=DIRECTION('',(0.,0.,1.));
#1085=DIRECTION('',(1.,0.,0.));
#1086=DIRECTION('',(0.,0.,1.));
#1087=DIRECTION('',(1.,0.,0.));
#1088=DIRECTION('',(0.,0.,1.));
#1089=DIRECTION('',(1.,0.,0.));
#1090=DIRECTION('',(0.,0.,1.));
#1091=DIRECTION('',(1.,0.,0.));
#1092=DIRECTION('',(0.,0.,1.));
#1093=DIRECTION('',(1.,0.,0.));
#1094=DIRECTION('',(0.,0.,1.));
#1095=DIRECTION('',(1.,0.,0.));
#1096=DIRECTION('',(7.9757401194336E-17,-1.,0.));
#1097=DIRECTION('',(0.,0.,1.));
#1098=DIRECTION('',(1.,0.,0.));
#1099=DIRECTION('',(1.,0.,0.));
#1100=DIRECTION('',(0.,0.,1.));
#1101=DIRECTION('',(1.,0.,0.));
#1102=DIRECTION('',(0.,-1.,0.));
#1103=DIRECTION('',(0.,0.,1.));
#1104=DIRECTION('',(1.,0.,0.));
#1105=DIRECTION('',(1.,0.,0.));
#1106=DIRECTION('',(0.,0.,1.));
#1107=DIRECTION('',(1.,0.,0.));
#1108=DIRECTION('',(-1.,0.,0.));
#1109=DIRECTION('',(-1.,0.,0.));
#1110=DIRECTION('',(0.,-1.,0.));
#1111=DIRECTION('',(0.,0.,-1.));
#1112=DIRECTION('',(1.,0.,0.));
#1113=DIRECTION('',(0.,0.,1.));
#1114=DIRECTION('',(0.,0.,1.));
#1115=DIRECTION('',(-1.,-7.9757401194336E-17,0.));
#1116=DIRECTION('',(7.9757401194336E-17,-1.,0.));
#1117=DIRECTION('',(-1.,-7.9757401194336E-17,0.));
#1118=DIRECTION('',(7.9757401194336E-17,-1.,0.));
#1119=DIRECTION('',(-1.,-7.9757401194336E-17,0.));
#1120=DIRECTION('',(7.9757401194336E-17,-1.,0.));
#1121=DIRECTION('',(7.9757401194336E-17,-1.,0.));
#1122=DIRECTION('',(0.,0.,1.));
#1123=DIRECTION('',(0.,0.,1.));
#1124=DIRECTION('',(0.,-1.,0.));
#1125=DIRECTION('',(0.,0.,-1.));
#1126=DIRECTION('',(0.,0.,1.));
#1127=DIRECTION('',(1.,0.,0.));
#1128=DIRECTION('',(0.,0.,1.));
#1129=DIRECTION('',(-1.,0.,0.));
#1130=DIRECTION('',(0.,0.,1.));
#1131=DIRECTION('',(1.,0.,0.));
#1132=DIRECTION('',(0.,0.,-1.));
#1133=DIRECTION('',(1.,0.,0.));
#1134=DIRECTION('',(0.,0.,-1.));
#1135=DIRECTION('',(0.,-1.,0.));
#1136=DIRECTION('',(0.,0.,1.));
#1137=DIRECTION('',(0.,0.,1.));
#1138=DIRECTION('',(0.,0.,1.));
#1139=DIRECTION('',(1.,0.,0.));
#1140=DIRECTION('',(0.,-1.,0.));
#1141=DIRECTION('',(1.,0.,0.));
#1142=DIRECTION('',(7.9757401194336E-17,-1.,0.));
#1143=DIRECTION('',(1.,0.,0.));
#1144=DIRECTION('',(0.,1.,0.));
#1145=DIRECTION('',(0.,0.,1.));
#1146=DIRECTION('',(-1.,0.,0.));
#1147=DIRECTION('',(0.,1.,0.));
#1148=DIRECTION('',(0.,0.,1.));
#1149=DIRECTION('',(-1.,0.,0.));
#1150=DIRECTION('',(0.,0.,1.));
#1151=DIRECTION('',(1.,0.,0.));
#1152=DIRECTION('',(1.,0.,0.));
#1153=DIRECTION('',(1.,0.,0.));
#1154=DIRECTION('',(0.,-1.,0.));
#1155=DIRECTION('',(1.,0.,0.));
#1156=DIRECTION('',(1.,0.,0.));
#1157=DIRECTION('',(0.,-1.,0.));
#1158=DIRECTION('',(0.,1.,0.));
#1159=DIRECTION('',(0.,0.,1.));
#1160=DIRECTION('',(0.,0.,-1.));
#1161=DIRECTION('',(1.,0.,0.));
#1162=DIRECTION('',(1.,0.,0.));
#1163=DIRECTION('',(0.,0.,-1.));
#1164=DIRECTION('',(0.,-1.,0.));
#1165=DIRECTION('',(0.,0.,-1.));
#1166=DIRECTION('',(0.,0.,-1.));
#1167=DIRECTION('',(0.,-1.,0.));
#1168=DIRECTION('',(0.,0.,-1.));
#1169=DIRECTION('',(0.,1.,0.));
#1170=DIRECTION('',(0.,0.,1.));
#1171=DIRECTION('',(1.,0.,0.));
#1172=DIRECTION('',(0.,0.,1.));
#1173=DIRECTION('',(1.,0.,0.));
#1174=DIRECTION('',(0.,1.,0.));
#1175=DIRECTION('',(0.,0.,1.));
#1176=DIRECTION('',(1.,0.,0.));
#1177=DIRECTION('',(0.,1.,0.));
#1178=DIRECTION('',(0.,0.,1.));
#1179=DIRECTION('',(1.,0.,0.));
#1180=DIRECTION('',(0.,0.,1.));
#1181=DIRECTION('',(1.,0.,0.));
#1182=DIRECTION('',(1.,0.,0.));
#1183=DIRECTION('',(0.,0.,-1.));
#1184=DIRECTION('',(1.,0.,0.));
#1185=DIRECTION('',(0.,0.,-1.));
#1186=DIRECTION('',(1.,0.,0.));
#1187=DIRECTION('',(0.,0.,-1.));
#1188=DIRECTION('',(1.,0.,0.));
#1189=DIRECTION('',(0.,0.,-1.));
#1190=DIRECTION('',(0.,1.,0.));
#1191=DIRECTION('',(0.,0.,1.));
#1192=DIRECTION('',(1.,0.,0.));
#1193=DIRECTION('',(1.,0.,0.));
#1194=DIRECTION('',(0.,1.,0.));
#1195=DIRECTION('',(0.,0.,1.));
#1196=DIRECTION('',(1.,0.,0.));
#1197=DIRECTION('',(1.,0.,0.));
#1198=DIRECTION('',(0.,0.,1.));
#1199=DIRECTION('',(1.,0.,0.));
#1200=DIRECTION('',(0.,0.,1.));
#1201=DIRECTION('',(1.,0.,0.));
#1202=DIRECTION('',(0.,0.,1.));
#1203=DIRECTION('',(1.,0.,0.));
#1204=DIRECTION('',(0.,0.,1.));
#1205=DIRECTION('',(1.,0.,0.));
#1206=DIRECTION('',(0.,0.,1.));
#1207=DIRECTION('',(1.,0.,0.));
#1208=DIRECTION('',(0.,0.,1.));
#1209=DIRECTION('',(1.,0.,0.));
#1210=DIRECTION('',(0.,0.,1.));
#1211=DIRECTION('',(1.,0.,0.));
#1212=DIRECTION('',(0.,0.,1.));
#1213=DIRECTION('',(1.,0.,0.));
#1214=DIRECTION('',(0.,0.,1.));
#1215=DIRECTION('',(1.,0.,0.));
#1216=DIRECTION('',(0.,0.,1.));
#1217=DIRECTION('',(1.,0.,0.));
#1218=DIRECTION('',(0.,0.,1.));
#1219=DIRECTION('',(1.,0.,0.));
#1220=DIRECTION('',(0.,0.,1.));
#1221=DIRECTION('',(1.,0.,0.));
#1222=DIRECTION('',(0.,0.,1.));
#1223=DIRECTION('',(1.,0.,0.));
#1224=DIRECTION('',(0.,0.,1.));
#1225=DIRECTION('',(1.,0.,0.));
#1226=DIRECTION('',(0.,0.,1.));
#1227=DIRECTION('',(1.,0.,0.));
#1228=DIRECTION('',(0.,0.,1.));
#1229=DIRECTION('',(1.,0.,0.));
#1230=DIRECTION('',(0.,0.,1.));
#1231=DIRECTION('',(1.,0.,0.));
#1232=DIRECTION('',(0.,0.,1.));
#1233=DIRECTION('',(1.,0.,0.));
#1234=DIRECTION('',(0.,0.,1.));
#1235=DIRECTION('',(1.,0.,0.));
#1236=DIRECTION('',(0.,0.,1.));
#1237=DIRECTION('',(1.,0.,0.));
#1238=DIRECTION('',(0.,0.,1.));
#1239=DIRECTION('',(1.,0.,0.));
#1240=DIRECTION('',(0.,0.,1.));
#1241=DIRECTION('',(1.,0.,0.));
#1242=DIRECTION('',(0.,0.,1.));
#1243=DIRECTION('',(1.,0.,0.));
#1244=DIRECTION('',(0.,0.,1.));
#1245=DIRECTION('',(1.,0.,0.));
#1246=DIRECTION('',(0.,0.,1.));
#1247=DIRECTION('',(1.,0.,0.));
#1248=DIRECTION('',(0.,0.,1.));
#1249=DIRECTION('',(1.,0.,0.));
#1250=DIRECTION('',(0.,0.,1.));
#1251=DIRECTION('',(1.,0.,0.));
#1252=DIRECTION('',(0.,0.,1.));
#1253=DIRECTION('',(1.,0.,0.));
#1254=DIRECTION('',(0.,0.,1.));
#1255=DIRECTION('',(1.,0.,0.));
#1256=DIRECTION('',(0.,0.,1.));
#1257=DIRECTION('',(1.,0.,0.));
#1258=DIRECTION('',(0.,0.,1.));
#1259=DIRECTION('',(1.,0.,0.));
#1260=DIRECTION('',(0.,0.,1.));
#1261=DIRECTION('',(1.,0.,0.));
#1262=DIRECTION('',(0.,0.,-1.));
#1263=DIRECTION('',(-1.,0.,0.));
#1264=DIRECTION('',(0.,0.,-1.));
#1265=DIRECTION('',(-1.,0.,0.));
#1266=DIRECTION('',(0.,0.,1.));
#1267=DIRECTION('',(1.,0.,0.));
#1268=DIRECTION('',(0.,0.,-1.));
#1269=DIRECTION('',(-1.,0.,0.));
#1270=DIRECTION('',(1.,0.,0.));
#1271=DIRECTION('',(0.,0.,-1.));
#1272=DIRECTION('',(-1.,0.,0.));
#1273=DIRECTION('',(0.,0.,1.));
#1274=DIRECTION('',(1.,0.,0.));
#1275=DIRECTION('',(0.,0.,-1.));
#1276=DIRECTION('',(0.,1.,0.));
#1277=DIRECTION('',(0.,0.,1.));
#1278=DIRECTION('',(-6.93889390390722E-15,1.,0.));
#1279=DIRECTION('',(-1.,-6.93889390390722E-15,0.));
#1280=DIRECTION('',(0.,1.,0.));
#1281=DIRECTION('',(0.,0.,1.));
#1282=DIRECTION('',(0.,1.,6.93889390390722E-15));
#1283=DIRECTION('',(0.,-6.93889390390722E-15,1.));
#1284=DIRECTION('',(-7.9757401194336E-17,1.,0.));
#1285=DIRECTION('',(-1.,-7.9757401194336E-17,0.));
#1286=DIRECTION('',(0.,-1.,0.));
#1287=DIRECTION('',(0.,0.,-1.));
#1288=DIRECTION('',(0.,0.,1.));
#1289=DIRECTION('',(1.,0.,0.));
#1290=DIRECTION('',(0.,0.,-1.));
#1291=DIRECTION('',(-1.,0.,0.));
#1292=DIRECTION('',(0.,0.,-1.));
#1293=DIRECTION('',(-1.,0.,0.));
#1294=DIRECTION('',(0.,0.,-1.));
#1295=DIRECTION('',(-1.,0.,0.));
#1296=DIRECTION('',(0.,-1.,0.));
#1297=DIRECTION('',(0.,0.,-1.));
#1298=DIRECTION('',(0.,-1.,0.));
#1299=DIRECTION('',(0.,0.,-1.));
#1300=DIRECTION('',(-1.,0.,0.));
#1301=DIRECTION('',(0.,0.,1.));
#1302=DIRECTION('',(-1.,0.,0.));
#1303=DIRECTION('',(0.,0.,1.));
#1304=DIRECTION('',(1.,0.,0.));
#1305=DIRECTION('',(0.,0.,-1.));
#1306=DIRECTION('',(1.,0.,0.));
#1307=DIRECTION('',(0.,0.,-1.));
#1308=DIRECTION('',(-1.,0.,0.));
#1309=DIRECTION('',(0.,0.,1.));
#1310=CARTESIAN_POINT('',(0.,0.,0.));
#1311=CARTESIAN_POINT('',(0.0454385603225362,-0.00858531072735786,-0.0135));
#1312=CARTESIAN_POINT('',(0.0454385603225362,0.0279146892726421,-0.0085));
#1313=CARTESIAN_POINT('',(0.0454385603225362,0.0279146892726421,-0.00675));
#1314=CARTESIAN_POINT('',(0.0454385603225362,-0.0420853107273579,-0.0085));
#1315=CARTESIAN_POINT('',(0.0454385603225362,-0.0420853107273579,-0.00675));
#1316=CARTESIAN_POINT('',(0.0454385603225362,-0.00858531072735786,0.));
#1317=CARTESIAN_POINT('',(0.0454385603225362,0.0329146892726421,0.));
#1318=CARTESIAN_POINT('',(0.0454385603225362,-0.0500853107273579,0.));
#1319=CARTESIAN_POINT('',(0.0454385603225362,0.0329146892726421,-0.0135));
#1320=CARTESIAN_POINT('',(0.0454385603225362,0.0329146892726421,-0.0135));
#1321=CARTESIAN_POINT('',(0.0454385603225362,-0.00858531072735786,-0.0135));
#1322=CARTESIAN_POINT('',(0.0454385603225362,-0.0500853107273579,-0.0135));
#1323=CARTESIAN_POINT('',(0.0454385603225362,-0.0500853107273579,-0.0135));
#1324=CARTESIAN_POINT('',(0.0454385603225362,-0.0202009675651789,-0.0025));
#1325=CARTESIAN_POINT('',(0.0454385603225362,-0.0202009675651789,-0.0025));
#1326=CARTESIAN_POINT('',(0.0454385603225362,-0.0202009675651789,-0.0035));
#1327=CARTESIAN_POINT('',(0.0454385603225362,-0.0252009675651788,-0.0025));
#1328=CARTESIAN_POINT('',(0.0454385603225362,-0.0302009675651788,-0.0025));
#1329=CARTESIAN_POINT('',(0.0454385603225362,-0.0302009675651788,-0.0025));
#1330=CARTESIAN_POINT('',(0.0454385603225362,-0.0302009675651788,-0.0035));
#1331=CARTESIAN_POINT('',(0.0454385603225362,-0.0252009675651788,-0.0035));
#1332=CARTESIAN_POINT('',(0.00993856032253617,-0.00858531072735787,-0.0135));
#1333=CARTESIAN_POINT('',(0.00993856032253617,-0.00858531072735787,0.));
#1334=CARTESIAN_POINT('',(0.00993856032253617,0.0329146892726421,0.));
#1335=CARTESIAN_POINT('',(0.00993856032253617,-0.0500853107273579,0.));
#1336=CARTESIAN_POINT('',(0.00993856032253617,-0.0500853107273579,-0.0135));
#1337=CARTESIAN_POINT('',(0.00993856032253617,-0.0500853107273579,-0.0135));
#1338=CARTESIAN_POINT('',(0.00993856032253617,-0.00858531072735787,-0.0135));
#1339=CARTESIAN_POINT('',(0.00993856032253617,0.0329146892726421,-0.0135));
#1340=CARTESIAN_POINT('',(0.00993856032253617,0.0329146892726421,-0.0135));
#1341=CARTESIAN_POINT('',(0.00993856032253617,-0.0420853107273579,-0.0085));
#1342=CARTESIAN_POINT('',(0.00993856032253617,-0.0438353107273579,-0.0085));
#1343=CARTESIAN_POINT('',(0.00993856032253617,0.0279146892726421,-0.0085));
#1344=CARTESIAN_POINT('',(0.00993856032253617,0.0261646892726421,-0.0085));
#1345=CARTESIAN_POINT('',(0.00993856032253617,-0.0252009675651788,-0.0025));
#1346=CARTESIAN_POINT('',(0.00993856032253617,-0.0202009675651789,-0.0025));
#1347=CARTESIAN_POINT('',(0.00993856032253617,-0.0302009675651788,-0.0025));
#1348=CARTESIAN_POINT('',(0.00993856032253617,-0.0202009675651789,-0.0025));
#1349=CARTESIAN_POINT('',(0.00993856032253617,-0.0202009675651789,-0.0035));
#1350=CARTESIAN_POINT('',(0.00993856032253617,-0.0252009675651788,-0.0035));
#1351=CARTESIAN_POINT('',(0.00993856032253617,-0.0302009675651788,-0.0035));
#1352=CARTESIAN_POINT('',(0.00993856032253617,-0.0302009675651788,-0.0025));
#1353=CARTESIAN_POINT('',(0.0444385603225361,-0.0355853107273578,-0.0015));
#1354=CARTESIAN_POINT('',(0.0444385603225361,-0.0420853107273579,-0.0035));
#1355=CARTESIAN_POINT('',(0.0444385603225361,-0.0360853107273578,-0.0035));
#1356=CARTESIAN_POINT('',(0.0444385603225361,-0.0480853107273579,-0.0035));
#1357=CARTESIAN_POINT('',(0.0444385603225361,-0.0360853107273578,-0.0035));
#1358=CARTESIAN_POINT('',(0.0444385603225361,-0.0360853107273578,-0.0135));
#1359=CARTESIAN_POINT('',(0.0444385603225361,-0.0355853107273578,-0.0135));
#1360=CARTESIAN_POINT('',(0.0444385603225361,-0.0350853107273578,-0.0135));
#1361=CARTESIAN_POINT('',(0.0444385603225361,-0.0350853107273578,-0.0015));
#1362=CARTESIAN_POINT('',(0.0444385603225361,-0.0350853107273578,-0.0015));
#1363=CARTESIAN_POINT('',(0.0444385603225361,-0.0355853107273578,-0.0015));
#1364=CARTESIAN_POINT('',(0.0444385603225361,-0.0490853107273579,-0.0015));
#1365=CARTESIAN_POINT('',(0.0444385603225361,-0.0490853107273579,-0.0015));
#1366=CARTESIAN_POINT('',(0.0444385603225361,-0.0490853107273579,-0.0135));
#1367=CARTESIAN_POINT('',(0.0444385603225361,-0.0355853107273578,-0.0135));
#1368=CARTESIAN_POINT('',(0.0444385603225361,-0.0480853107273579,-0.0135));
#1369=CARTESIAN_POINT('',(0.0444385603225361,-0.0480853107273579,-0.0035));
#1370=CARTESIAN_POINT('',(0.0277401274293661,-0.00858531072735786,0.));
#1371=CARTESIAN_POINT('',(0.00899012742936611,-0.0270853107273579,0.));
#1372=CARTESIAN_POINT('',(0.00974012742936611,-0.0270853107273579,0.));
#1373=CARTESIAN_POINT('',(0.00899012742936611,-0.00708531072735787,0.));
#1374=CARTESIAN_POINT('',(0.00974012742936611,-0.00708531072735787,0.));
#1375=CARTESIAN_POINT('',(0.00899012742936611,0.0129146892726421,0.));
#1376=CARTESIAN_POINT('',(0.00974012742936611,0.0129146892726421,0.));
#1377=CARTESIAN_POINT('',(0.00899012742936611,0.0329146892726421,0.));
#1378=CARTESIAN_POINT('',(0.00974012742936611,0.0329146892726421,0.));
#1379=CARTESIAN_POINT('',(0.0464901274293661,-0.0470853107273579,0.));
#1380=CARTESIAN_POINT('',(0.0472401274293661,-0.0470853107273579,0.));
#1381=CARTESIAN_POINT('',(0.0464901274293661,-0.0270853107273579,0.));
#1382=CARTESIAN_POINT('',(0.0472401274293661,-0.0270853107273579,0.));
#1383=CARTESIAN_POINT('',(0.0464901274293661,-0.00708531072735787,0.));
#1384=CARTESIAN_POINT('',(0.0472401274293661,-0.00708531072735787,0.));
#1385=CARTESIAN_POINT('',(0.0464901274293661,0.0129146892726421,0.));
#1386=CARTESIAN_POINT('',(0.0472401274293661,0.0129146892726421,0.));
#1387=CARTESIAN_POINT('',(0.0464901274293661,0.0329146892726421,0.));
#1388=CARTESIAN_POINT('',(0.0472401274293661,0.0329146892726421,0.));
#1389=CARTESIAN_POINT('',(0.00899012742936611,-0.0470853107273579,0.));
#1390=CARTESIAN_POINT('',(0.00974012742936611,-0.0470853107273579,0.));
#1391=CARTESIAN_POINT('',(0.00799012742936611,-0.00858531072735786,0.));
#1392=CARTESIAN_POINT('',(0.00799012742936611,0.0339146892726421,0.));
#1393=CARTESIAN_POINT('',(0.00799012742936611,-0.0510853107273579,0.));
#1394=CARTESIAN_POINT('',(0.00899012742936611,-0.0510853107273579,0.));
#1395=CARTESIAN_POINT('',(0.00899012742936611,-0.0520853107273579,0.));
#1396=CARTESIAN_POINT('',(0.0277401274293661,-0.0520853107273579,0.));
#1397=CARTESIAN_POINT('',(0.0464901274293661,-0.0520853107273579,0.));
#1398=CARTESIAN_POINT('',(0.0464901274293661,-0.0510853107273579,0.));
#1399=CARTESIAN_POINT('',(0.0474901274293661,-0.0510853107273579,0.));
#1400=CARTESIAN_POINT('',(0.0474901274293661,-0.00858531072735786,0.));
#1401=CARTESIAN_POINT('',(0.0474901274293661,0.0339146892726421,0.));
#1402=CARTESIAN_POINT('',(0.0464901274293661,0.0339146892726421,0.));
#1403=CARTESIAN_POINT('',(0.0464901274293661,0.0349146892726422,0.));
#1404=CARTESIAN_POINT('',(0.0277401274293661,0.0349146892726422,0.));
#1405=CARTESIAN_POINT('',(0.00899012742936611,0.0349146892726422,0.));
#1406=CARTESIAN_POINT('',(0.00899012742936611,0.0339146892726421,0.));
#1407=CARTESIAN_POINT('',(0.0276885603225362,0.0329146892726421,0.));
#1408=CARTESIAN_POINT('',(0.0276885603225362,-0.0500853107273579,0.));
#1409=CARTESIAN_POINT('',(0.0277401274293661,0.0349146892726422,-0.0155));
#1410=CARTESIAN_POINT('',(0.0277401274293661,0.0349146892726422,-0.0145));
#1411=CARTESIAN_POINT('',(0.0464901274293661,0.0349146892726422,-0.0145));
#1412=CARTESIAN_POINT('',(0.00899012742936611,0.0349146892726422,-0.0145));
#1413=CARTESIAN_POINT('',(0.00899012742936611,0.0349146892726422,0.));
#1414=CARTESIAN_POINT('',(0.0464901274293661,0.0349146892726422,-0.0155));
#1415=CARTESIAN_POINT('',(0.00799012742936611,-0.00858531072735786,-0.0155));
#1416=CARTESIAN_POINT('',(0.00799012742936611,0.0279146892726421,-0.0085));
#1417=CARTESIAN_POINT('',(0.00799012742936611,0.0261646892726421,-0.0085));
#1418=CARTESIAN_POINT('',(0.00799012742936611,-0.0420853107273579,-0.0085));
#1419=CARTESIAN_POINT('',(0.00799012742936611,-0.0438353107273579,-0.0085));
#1420=CARTESIAN_POINT('',(0.00799012742936611,-0.0520853107273579,-0.0145));
#1421=CARTESIAN_POINT('',(0.00799012742936611,0.0339146892726421,-0.0145));
#1422=CARTESIAN_POINT('',(0.00799012742936611,-0.0510853107273579,-0.0145));
#1423=CARTESIAN_POINT('',(0.00799012742936611,-0.0510853107273579,-0.0155));
#1424=CARTESIAN_POINT('',(0.00799012742936611,0.0339146892726421,-0.0155));
#1425=CARTESIAN_POINT('',(0.0277401274293661,-0.0520853107273579,-0.0155));
#1426=CARTESIAN_POINT('',(0.00899012742936611,-0.0520853107273579,-0.0155));
#1427=CARTESIAN_POINT('',(0.00899012742936611,-0.0520853107273579,-0.0145));
#1428=CARTESIAN_POINT('',(0.0474901274293661,-0.0520853107273579,-0.0145));
#1429=CARTESIAN_POINT('',(0.0464901274293661,-0.0520853107273579,-0.0145));
#1430=CARTESIAN_POINT('',(0.0464901274293661,-0.0520853107273579,0.));
#1431=CARTESIAN_POINT('',(0.0474901274293661,-0.00858531072735786,-0.0155));
#1432=CARTESIAN_POINT('',(0.0474901274293661,0.0279146892726421,-0.0085));
#1433=CARTESIAN_POINT('',(0.0474901274293661,0.0279146892726421,-0.01025));
#1434=CARTESIAN_POINT('',(0.0474901274293661,-0.0420853107273579,-0.0085));
#1435=CARTESIAN_POINT('',(0.0474901274293661,-0.0420853107273579,-0.01025));
#1436=CARTESIAN_POINT('',(0.0474901274293661,-0.00858531072735786,-0.0145));
#1437=CARTESIAN_POINT('',(0.0474901274293661,-0.0510853107273579,-0.0145));
#1438=CARTESIAN_POINT('',(0.0474901274293661,0.0339146892726421,-0.0145));
#1439=CARTESIAN_POINT('',(0.0474901274293661,0.0339146892726421,-0.0155));
#1440=CARTESIAN_POINT('',(0.0474901274293661,-0.0510853107273579,-0.0155));
#1441=CARTESIAN_POINT('',(0.0277401274293661,-0.00858531072735786,-0.0155));
#1442=CARTESIAN_POINT('',(0.0464901274293661,-0.00858531072735786,-0.0155));
#1443=CARTESIAN_POINT('',(0.0464901274293661,0.0339146892726421,-0.0155));
#1444=CARTESIAN_POINT('',(0.0464901274293661,-0.0510853107273579,-0.0155));
#1445=CARTESIAN_POINT('',(0.00799012742936611,-0.0510853107273579,-0.0155));
#1446=CARTESIAN_POINT('',(0.00899012742936611,-0.0510853107273579,-0.0155));
#1447=CARTESIAN_POINT('',(0.00899012742936611,0.0349146892726422,-0.0155));
#1448=CARTESIAN_POINT('',(0.00899012742936611,0.0339146892726421,-0.0155));
#1449=CARTESIAN_POINT('',(0.0277401274293661,0.0339146892726421,-0.0155));
#1450=CARTESIAN_POINT('',(0.0276885603225362,0.0329146892726421,-0.0135));
#1451=CARTESIAN_POINT('',(0.0276885603225362,0.0329146892726421,-0.0135));
#1452=CARTESIAN_POINT('',(0.0276885603225362,-0.0500853107273579,-0.0135));
#1453=CARTESIAN_POINT('',(0.0276885603225362,-0.0500853107273579,-0.0135));
#1454=CARTESIAN_POINT('',(0.0277401274293661,-0.00858531072735786,-0.0135));
#1455=CARTESIAN_POINT('',(0.0434385603225361,-0.0480853107273579,-0.0135));
#1456=CARTESIAN_POINT('',(0.0424385603225361,-0.0480853107273579,-0.0135));
#1457=CARTESIAN_POINT('',(0.0434385603225361,-0.0490853107273579,-0.0135));
#1458=CARTESIAN_POINT('',(0.0424385603225361,-0.0490853107273579,-0.0135));
#1459=CARTESIAN_POINT('',(0.0424385603225361,-0.0355853107273578,-0.0135));
#1460=CARTESIAN_POINT('',(0.0434385603225361,-0.0350853107273578,-0.0135));
#1461=CARTESIAN_POINT('',(0.0424385603225361,-0.0350853107273578,-0.0135));
#1462=CARTESIAN_POINT('',(0.0434385603225361,-0.0360853107273578,-0.0135));
#1463=CARTESIAN_POINT('',(0.0424385603225361,-0.0360853107273578,-0.0135));
#1464=CARTESIAN_POINT('',(0.0424385603225361,-0.0355853107273578,-0.0135));
#1465=CARTESIAN_POINT('',(0.0434385603225361,-0.0350853107273578,-0.0015));
#1466=CARTESIAN_POINT('',(0.0424385603225361,-0.0350853107273578,-0.0015));
#1467=CARTESIAN_POINT('',(0.0424385603225361,-0.0350853107273578,-0.0015));
#1468=CARTESIAN_POINT('',(0.0434385603225361,-0.0350853107273578,-0.0015));
#1469=CARTESIAN_POINT('',(0.0424385603225361,-0.0355853107273578,-0.0015));
#1470=CARTESIAN_POINT('',(0.0424385603225361,-0.0420853107273579,-0.0035));
#1471=CARTESIAN_POINT('',(0.0424385603225361,-0.0360853107273578,-0.0035));
#1472=CARTESIAN_POINT('',(0.0424385603225361,-0.0480853107273579,-0.0035));
#1473=CARTESIAN_POINT('',(0.0424385603225361,-0.0480853107273579,-0.0035));
#1474=CARTESIAN_POINT('',(0.0424385603225361,-0.0490853107273579,-0.0015));
#1475=CARTESIAN_POINT('',(0.0424385603225361,-0.0490853107273579,-0.0015));
#1476=CARTESIAN_POINT('',(0.0424385603225361,-0.0355853107273578,-0.0015));
#1477=CARTESIAN_POINT('',(0.0424385603225361,-0.0360853107273578,-0.0035));
#1478=CARTESIAN_POINT('',(0.0434385603225361,-0.0490853107273579,-0.0015));
#1479=CARTESIAN_POINT('',(0.0434385603225361,-0.0490853107273579,-0.0015));
#1480=CARTESIAN_POINT('',(0.0434385603225361,-0.0420853107273579,-0.0015));
#1481=CARTESIAN_POINT('',(0.0434385603225361,-0.0360853107273578,-0.0035));
#1482=CARTESIAN_POINT('',(0.0434385603225361,-0.0360853107273578,-0.0035));
#1483=CARTESIAN_POINT('',(0.0434385603225361,-0.0480853107273579,-0.0035));
#1484=CARTESIAN_POINT('',(0.0434385603225361,-0.0480853107273579,-0.0035));
#1485=CARTESIAN_POINT('',(0.0434385603225361,-0.0420853107273579,-0.0035));
#1486=CARTESIAN_POINT('',(0.0074901274293661,-0.0420853107273579,-0.0085));
#1487=CARTESIAN_POINT('',(0.0074901274293661,0.0279146892726421,-0.0085));
#1488=CARTESIAN_POINT('',(0.0074901274293661,-0.0420853107273579,-0.0085));
#1489=CARTESIAN_POINT('',(0.0074901274293661,0.0279146892726421,-0.0085));
#1490=CARTESIAN_POINT('',(0.0276885603225362,-0.0202009675651789,-0.0025));
#1491=CARTESIAN_POINT('',(0.0276885603225362,-0.0202009675651789,-0.0035));
#1492=CARTESIAN_POINT('',(0.0276885603225362,-0.0202009675651789,-0.0025));
#1493=CARTESIAN_POINT('',(0.0276885603225362,-0.0302009675651788,-0.0025));
#1494=CARTESIAN_POINT('',(0.0276885603225362,-0.0302009675651788,-0.0035));
#1495=CARTESIAN_POINT('',(0.0276885603225362,-0.0302009675651788,-0.0025));
#1496=CARTESIAN_POINT('',(0.0276885603225362,-0.0252009675651788,-0.0025));
#1497=CARTESIAN_POINT('',(0.0276885603225362,-0.0252009675651788,-0.0035));
#1498=CARTESIAN_POINT('',(0.00899012742936611,-0.0470853107273579,-0.0005));
#1499=CARTESIAN_POINT('',(0.00899012742936611,-0.0470853107273579,-0.0005));
#1500=CARTESIAN_POINT('',(0.00974012742936611,-0.0470853107273579,-0.0005));
#1501=CARTESIAN_POINT('',(0.0277401274293661,-0.00858531072735786,-0.0005));
#1502=CARTESIAN_POINT('',(0.0464901274293661,0.0329146892726421,-0.0005));
#1503=CARTESIAN_POINT('',(0.0464901274293661,0.0329146892726421,-0.0005));
#1504=CARTESIAN_POINT('',(0.0472401274293661,0.0329146892726421,-0.0005));
#1505=CARTESIAN_POINT('',(0.0277401274293661,-0.00858531072735786,-0.0005));
#1506=CARTESIAN_POINT('',(0.0464901274293661,0.0129146892726421,-0.0005));
#1507=CARTESIAN_POINT('',(0.0464901274293661,0.0129146892726421,-0.0005));
#1508=CARTESIAN_POINT('',(0.0472401274293661,0.0129146892726421,-0.0005));
#1509=CARTESIAN_POINT('',(0.0277401274293661,-0.00858531072735786,-0.0005));
#1510=CARTESIAN_POINT('',(0.0464901274293661,-0.00708531072735787,-0.0005));
#1511=CARTESIAN_POINT('',(0.0464901274293661,-0.00708531072735787,-0.0005));
#1512=CARTESIAN_POINT('',(0.0472401274293661,-0.00708531072735787,-0.0005));
#1513=CARTESIAN_POINT('',(0.0277401274293661,-0.00858531072735786,-0.0005));
#1514=CARTESIAN_POINT('',(0.0464901274293661,-0.0270853107273579,-0.0005));
#1515=CARTESIAN_POINT('',(0.0464901274293661,-0.0270853107273579,-0.0005));
#1516=CARTESIAN_POINT('',(0.0472401274293661,-0.0270853107273579,-0.0005));
#1517=CARTESIAN_POINT('',(0.0277401274293661,-0.00858531072735786,-0.0005));
#1518=CARTESIAN_POINT('',(0.0464901274293661,-0.0470853107273579,-0.0005));
#1519=CARTESIAN_POINT('',(0.0464901274293661,-0.0470853107273579,-0.0005));
#1520=CARTESIAN_POINT('',(0.0472401274293661,-0.0470853107273579,-0.0005));
#1521=CARTESIAN_POINT('',(0.0277401274293661,-0.00858531072735786,-0.0005));
#1522=CARTESIAN_POINT('',(0.00899012742936611,0.0329146892726421,-0.0005));
#1523=CARTESIAN_POINT('',(0.00899012742936611,0.0329146892726421,-0.0005));
#1524=CARTESIAN_POINT('',(0.00974012742936611,0.0329146892726421,-0.0005));
#1525=CARTESIAN_POINT('',(0.0277401274293661,-0.00858531072735786,-0.0005));
#1526=CARTESIAN_POINT('',(0.00899012742936611,0.0129146892726421,-0.0005));
#1527=CARTESIAN_POINT('',(0.00899012742936611,0.0129146892726421,-0.0005));
#1528=CARTESIAN_POINT('',(0.00974012742936611,0.0129146892726421,-0.0005));
#1529=CARTESIAN_POINT('',(0.0277401274293661,-0.00858531072735786,-0.0005));
#1530=CARTESIAN_POINT('',(0.00899012742936611,-0.00708531072735787,-0.0005));
#1531=CARTESIAN_POINT('',(0.00899012742936611,-0.00708531072735787,-0.0005));
#1532=CARTESIAN_POINT('',(0.00974012742936611,-0.00708531072735787,-0.0005));
#1533=CARTESIAN_POINT('',(0.0277401274293661,-0.00858531072735786,-0.0005));
#1534=CARTESIAN_POINT('',(0.00899012742936611,-0.0270853107273579,-0.0005));
#1535=CARTESIAN_POINT('',(0.00899012742936611,-0.0270853107273579,-0.0005));
#1536=CARTESIAN_POINT('',(0.00974012742936611,-0.0270853107273579,-0.0005));
#1537=CARTESIAN_POINT('',(0.0277401274293661,-0.00858531072735786,-0.0005));
#1538=CARTESIAN_POINT('',(0.00899012742936611,0.0339146892726421,-0.0155));
#1539=CARTESIAN_POINT('',(0.00899012742936611,0.0339146892726421,-0.0145));
#1540=CARTESIAN_POINT('',(0.0464901274293661,0.0339146892726421,-0.0155));
#1541=CARTESIAN_POINT('',(0.0464901274293661,0.0339146892726421,-0.0145));
#1542=CARTESIAN_POINT('',(0.0277401274293661,0.0339146892726421,-0.0145));
#1543=CARTESIAN_POINT('',(0.00899012742936611,0.0339146892726421,-0.0145));
#1544=CARTESIAN_POINT('',(0.0464901274293661,0.0339146892726421,-0.0145));
#1545=CARTESIAN_POINT('',(0.00899012742936611,0.0339146892726421,-0.0145));
#1546=CARTESIAN_POINT('',(0.00899012742936611,0.0339146892726421,-0.0145));
#1547=CARTESIAN_POINT('',(0.0464901274293661,0.0339146892726421,-0.0145));
#1548=CARTESIAN_POINT('',(0.0464901274293661,0.0339146892726421,-0.0145));
#1549=CARTESIAN_POINT('',(0.00899012742936611,-0.00858531072735786,-0.0145));
#1550=CARTESIAN_POINT('',(0.00899012742936611,-0.0510853107273579,-0.0145));
#1551=CARTESIAN_POINT('',(0.00899012742936611,-0.0510853107273579,-0.0155));
#1552=CARTESIAN_POINT('',(0.00899012742936611,-0.0510853107273579,-0.0145));
#1553=CARTESIAN_POINT('',(0.0464901274293661,-0.0510853107273579,-0.0155));
#1554=CARTESIAN_POINT('',(0.0464901274293661,-0.0510853107273579,-0.0145));
#1555=CARTESIAN_POINT('',(0.0464901274293661,-0.00858531072735786,-0.0145));
#1556=CARTESIAN_POINT('',(0.0464901274293661,-0.0510853107273579,-0.0145));
#1557=CARTESIAN_POINT('',(0.00899012742936611,-0.0510853107273579,-0.0145));
#1558=CARTESIAN_POINT('',(0.00899012742936611,-0.0510853107273579,-0.0145));
#1559=CARTESIAN_POINT('',(0.0464901274293661,-0.0510853107273579,-0.0145));
#1560=CARTESIAN_POINT('',(0.0464901274293661,-0.0510853107273579,-0.0145));
#1561=CARTESIAN_POINT('',(0.0277401274293661,-0.0510853107273579,-0.0145));
#1562=MECHANICAL_DESIGN_GEOMETRIC_PRESENTATION_REPRESENTATION('',(#919),
#1563);
#1563=(
GEOMETRIC_REPRESENTATION_CONTEXT(3)
GLOBAL_UNCERTAINTY_ASSIGNED_CONTEXT((#1564))
GLOBAL_UNIT_ASSIGNED_CONTEXT((#1567,#1566,#1565))
REPRESENTATION_CONTEXT('Part 2','TOP_LEVEL_ASSEMBLY_PART')
);
#1564=UNCERTAINTY_MEASURE_WITH_UNIT(LENGTH_MEASURE(1.E-8),#1567,
'DISTANCE_ACCURACY_VALUE','Maximum Tolerance applied to model');
#1565=(
NAMED_UNIT(*)
SI_UNIT($,.STERADIAN.)
SOLID_ANGLE_UNIT()
);
#1566=(
NAMED_UNIT(*)
PLANE_ANGLE_UNIT()
SI_UNIT($,.RADIAN.)
);
#1567=(
LENGTH_UNIT()
NAMED_UNIT(*)
SI_UNIT($,.METRE.)
);
#1568=PRODUCT_DEFINITION_SHAPE('','',#1569);
#1569=PRODUCT_DEFINITION('','',#1571,#1570);
#1570=PRODUCT_DEFINITION_CONTEXT('',#1577,'design');
#1571=PRODUCT_DEFINITION_FORMATION_WITH_SPECIFIED_SOURCE('','',#1573,
 .NOT_KNOWN.);
#1572=PRODUCT_RELATED_PRODUCT_CATEGORY('','',(#1573));
#1573=PRODUCT('Part 2','Part 2','Part 2',(#1575));
#1574=PRODUCT_CATEGORY('','');
#1575=PRODUCT_CONTEXT('',#1577,'mechanical');
#1576=APPLICATION_PROTOCOL_DEFINITION('international standard',
'ap242_managed_model_based_3d_engineering',2020,#1577);
#1577=APPLICATION_CONTEXT('managed model based 3d engineering');
ENDSEC;
END-ISO-10303-21;
