ISO-10303-21;
HEADER;
/* Generated by software containing ST-Developer
 * from STEP Tools, Inc. (www.steptools.com) 
 */
/* OPTION: using custom renumber hook */

FILE_DESCRIPTION(
/* description */ ('STEP AP242 Edition 2',
'CAx-IF Rec.Pracs.---Representation and Presentation of Product Manufa
cturing Information (PMI)---4.0---2014-10-13',
'CAx-IF Rec.Pracs.---3D Tessellated Geometry---0.4---2014-09-14','2;1',
'CAx-IF Rec.Pracs.---User Defined Attributes---1.5---2016-08-15'),
/* implementation_level */ '2;1');

FILE_NAME(
/* name */ '6a32d8c4fc247f6640c6b65d',
/* time_stamp */ '2026-06-17T17:26:28Z',
/* author */ (''),
/* organization */ (''),
/* preprocessor_version */ 'ST-DEVELOPER v20',
/* originating_system */ 'ONSHAPE BY PTC INC, 1.216',
/* authorisation */ '  ');

FILE_SCHEMA (('AP242_MANAGED_MODEL_BASED_3D_ENGINEERING_MIM_LF { 1 0 10303 442 3 1 4 }'));
ENDSEC;

DATA;
#10=CONTEXT_DEPENDENT_SHAPE_REPRESENTATION(#12,#540);
#11=NEXT_ASSEMBLY_USAGE_OCCURRENCE('NAUO1','Part 1','Part 1',#541,#542,
'');
#12=(
REPRESENTATION_RELATIONSHIP(' ',' ',#307,#306)
REPRESENTATION_RELATIONSHIP_WITH_TRANSFORMATION(#13)
SHAPE_REPRESENTATION_RELATIONSHIP()
);
#13=ITEM_DEFINED_TRANSFORMATION(' ',' ',#308,#347);
#14=SHAPE_REPRESENTATION_RELATIONSHIP('','',#307,#15);
#15=ADVANCED_BREP_SHAPE_REPRESENTATION('',(#303),#532);
#16=SPHERICAL_SURFACE('',#327,0.0005);
#17=SPHERICAL_SURFACE('',#329,0.0005);
#18=SPHERICAL_SURFACE('',#339,0.0005);
#19=SPHERICAL_SURFACE('',#341,0.0005);
#20=CYLINDRICAL_SURFACE('',#320,0.0005);
#21=CYLINDRICAL_SURFACE('',#322,0.0005);
#22=CYLINDRICAL_SURFACE('',#324,0.0005);
#23=CYLINDRICAL_SURFACE('',#331,0.0005);
#24=CYLINDRICAL_SURFACE('',#333,0.0005);
#25=CYLINDRICAL_SURFACE('',#335,0.0005);
#26=CYLINDRICAL_SURFACE('',#337,0.0005);
#27=CYLINDRICAL_SURFACE('',#343,0.0005);
#28=CYLINDRICAL_SURFACE('',#344,0.0013);
#29=ELLIPSE('',#315,0.000530330085889911,0.0005);
#30=ELLIPSE('',#316,0.000530330085889911,0.0005);
#31=ELLIPSE('',#317,0.000530330085889911,0.0005);
#32=ELLIPSE('',#318,0.000530330085889911,0.0005);
#33=CIRCLE('',#314,0.0013);
#34=CIRCLE('',#321,0.0005);
#35=CIRCLE('',#323,0.0005);
#36=CIRCLE('',#325,0.0005);
#37=CIRCLE('',#326,0.0005);
#38=CIRCLE('',#328,0.0005);
#39=CIRCLE('',#330,0.0005);
#40=CIRCLE('',#332,0.0005);
#41=CIRCLE('',#334,0.0005);
#42=CIRCLE('',#336,0.0005);
#43=CIRCLE('',#338,0.0005);
#44=CIRCLE('',#340,0.0005);
#45=CIRCLE('',#342,0.0005);
#46=CIRCLE('',#345,0.0013);
#47=ORIENTED_EDGE('',*,*,#123,.F.);
#48=ORIENTED_EDGE('',*,*,#124,.T.);
#49=ORIENTED_EDGE('',*,*,#125,.T.);
#50=ORIENTED_EDGE('',*,*,#126,.T.);
#51=ORIENTED_EDGE('',*,*,#127,.F.);
#52=ORIENTED_EDGE('',*,*,#128,.T.);
#53=ORIENTED_EDGE('',*,*,#129,.T.);
#54=ORIENTED_EDGE('',*,*,#130,.T.);
#55=ORIENTED_EDGE('',*,*,#131,.F.);
#56=ORIENTED_EDGE('',*,*,#132,.T.);
#57=ORIENTED_EDGE('',*,*,#133,.T.);
#58=ORIENTED_EDGE('',*,*,#134,.T.);
#59=ORIENTED_EDGE('',*,*,#135,.T.);
#60=ORIENTED_EDGE('',*,*,#136,.T.);
#61=ORIENTED_EDGE('',*,*,#137,.F.);
#62=ORIENTED_EDGE('',*,*,#138,.T.);
#63=ORIENTED_EDGE('',*,*,#139,.T.);
#64=ORIENTED_EDGE('',*,*,#137,.T.);
#65=ORIENTED_EDGE('',*,*,#140,.T.);
#66=ORIENTED_EDGE('',*,*,#131,.T.);
#67=ORIENTED_EDGE('',*,*,#141,.T.);
#68=ORIENTED_EDGE('',*,*,#127,.T.);
#69=ORIENTED_EDGE('',*,*,#142,.T.);
#70=ORIENTED_EDGE('',*,*,#123,.T.);
#71=ORIENTED_EDGE('',*,*,#143,.T.);
#72=ORIENTED_EDGE('',*,*,#144,.T.);
#73=ORIENTED_EDGE('',*,*,#145,.T.);
#74=ORIENTED_EDGE('',*,*,#146,.T.);
#75=ORIENTED_EDGE('',*,*,#147,.T.);
#76=ORIENTED_EDGE('',*,*,#142,.F.);
#77=ORIENTED_EDGE('',*,*,#130,.F.);
#78=ORIENTED_EDGE('',*,*,#148,.F.);
#79=ORIENTED_EDGE('',*,*,#124,.F.);
#80=ORIENTED_EDGE('',*,*,#141,.F.);
#81=ORIENTED_EDGE('',*,*,#134,.F.);
#82=ORIENTED_EDGE('',*,*,#149,.F.);
#83=ORIENTED_EDGE('',*,*,#128,.F.);
#84=ORIENTED_EDGE('',*,*,#150,.F.);
#85=ORIENTED_EDGE('',*,*,#129,.F.);
#86=ORIENTED_EDGE('',*,*,#151,.F.);
#87=ORIENTED_EDGE('',*,*,#147,.F.);
#88=ORIENTED_EDGE('',*,*,#148,.T.);
#89=ORIENTED_EDGE('',*,*,#150,.T.);
#90=ORIENTED_EDGE('',*,*,#152,.F.);
#91=ORIENTED_EDGE('',*,*,#151,.T.);
#92=ORIENTED_EDGE('',*,*,#149,.T.);
#93=ORIENTED_EDGE('',*,*,#153,.F.);
#94=ORIENTED_EDGE('',*,*,#152,.T.);
#95=ORIENTED_EDGE('',*,*,#146,.F.);
#96=ORIENTED_EDGE('',*,*,#154,.F.);
#97=ORIENTED_EDGE('',*,*,#125,.F.);
#98=ORIENTED_EDGE('',*,*,#143,.F.);
#99=ORIENTED_EDGE('',*,*,#126,.F.);
#100=ORIENTED_EDGE('',*,*,#155,.F.);
#101=ORIENTED_EDGE('',*,*,#138,.F.);
#102=ORIENTED_EDGE('',*,*,#140,.F.);
#103=ORIENTED_EDGE('',*,*,#136,.F.);
#104=ORIENTED_EDGE('',*,*,#156,.F.);
#105=ORIENTED_EDGE('',*,*,#132,.F.);
#106=ORIENTED_EDGE('',*,*,#153,.T.);
#107=ORIENTED_EDGE('',*,*,#133,.F.);
#108=ORIENTED_EDGE('',*,*,#157,.F.);
#109=ORIENTED_EDGE('',*,*,#144,.F.);
#110=ORIENTED_EDGE('',*,*,#155,.T.);
#111=ORIENTED_EDGE('',*,*,#154,.T.);
#112=ORIENTED_EDGE('',*,*,#158,.F.);
#113=ORIENTED_EDGE('',*,*,#157,.T.);
#114=ORIENTED_EDGE('',*,*,#156,.T.);
#115=ORIENTED_EDGE('',*,*,#159,.F.);
#116=ORIENTED_EDGE('',*,*,#158,.T.);
#117=ORIENTED_EDGE('',*,*,#145,.F.);
#118=ORIENTED_EDGE('',*,*,#159,.T.);
#119=ORIENTED_EDGE('',*,*,#135,.F.);
#120=ORIENTED_EDGE('',*,*,#160,.T.);
#121=ORIENTED_EDGE('',*,*,#139,.F.);
#122=ORIENTED_EDGE('',*,*,#160,.F.);
#123=EDGE_CURVE('',#161,#162,#183,.F.);
#124=EDGE_CURVE('',#161,#163,#184,.T.);
#125=EDGE_CURVE('',#163,#164,#185,.T.);
#126=EDGE_CURVE('',#164,#162,#186,.T.);
#127=EDGE_CURVE('',#165,#166,#187,.F.);
#128=EDGE_CURVE('',#165,#167,#188,.F.);
#129=EDGE_CURVE('',#167,#168,#189,.T.);
#130=EDGE_CURVE('',#168,#166,#190,.F.);
#131=EDGE_CURVE('',#169,#170,#191,.T.);
#132=EDGE_CURVE('',#169,#171,#192,.F.);
#133=EDGE_CURVE('',#171,#172,#193,.T.);
#134=EDGE_CURVE('',#172,#170,#194,.F.);
#135=EDGE_CURVE('',#173,#174,#195,.T.);
#136=EDGE_CURVE('',#174,#175,#196,.T.);
#137=EDGE_CURVE('',#176,#175,#197,.T.);
#138=EDGE_CURVE('',#176,#173,#198,.T.);
#139=EDGE_CURVE('',#177,#177,#33,.T.);
#140=EDGE_CURVE('',#175,#169,#29,.F.);
#141=EDGE_CURVE('',#170,#165,#30,.F.);
#142=EDGE_CURVE('',#166,#161,#31,.F.);
#143=EDGE_CURVE('',#162,#176,#32,.F.);
#144=EDGE_CURVE('',#178,#179,#199,.F.);
#145=EDGE_CURVE('',#179,#180,#200,.F.);
#146=EDGE_CURVE('',#180,#181,#201,.T.);
#147=EDGE_CURVE('',#181,#178,#202,.T.);
#148=EDGE_CURVE('',#163,#168,#34,.T.);
#149=EDGE_CURVE('',#167,#172,#35,.T.);
#150=EDGE_CURVE('',#168,#181,#36,.T.);
#151=EDGE_CURVE('',#178,#167,#37,.T.);
#152=EDGE_CURVE('',#163,#181,#38,.F.);
#153=EDGE_CURVE('',#178,#172,#39,.F.);
#154=EDGE_CURVE('',#164,#180,#40,.T.);
#155=EDGE_CURVE('',#173,#164,#41,.T.);
#156=EDGE_CURVE('',#171,#174,#42,.T.);
#157=EDGE_CURVE('',#179,#171,#43,.T.);
#158=EDGE_CURVE('',#173,#180,#44,.F.);
#159=EDGE_CURVE('',#179,#174,#45,.F.);
#160=EDGE_CURVE('',#182,#182,#46,.T.);
#161=VERTEX_POINT('',#451);
#162=VERTEX_POINT('',#452);
#163=VERTEX_POINT('',#454);
#164=VERTEX_POINT('',#456);
#165=VERTEX_POINT('',#460);
#166=VERTEX_POINT('',#461);
#167=VERTEX_POINT('',#463);
#168=VERTEX_POINT('',#465);
#169=VERTEX_POINT('',#469);
#170=VERTEX_POINT('',#470);
#171=VERTEX_POINT('',#472);
#172=VERTEX_POINT('',#474);
#173=VERTEX_POINT('',#478);
#174=VERTEX_POINT('',#479);
#175=VERTEX_POINT('',#481);
#176=VERTEX_POINT('',#483);
#177=VERTEX_POINT('',#487);
#178=VERTEX_POINT('',#494);
#179=VERTEX_POINT('',#495);
#180=VERTEX_POINT('',#497);
#181=VERTEX_POINT('',#499);
#182=VERTEX_POINT('',#527);
#183=LINE('',#450,#203);
#184=LINE('',#453,#204);
#185=LINE('',#455,#205);
#186=LINE('',#457,#206);
#187=LINE('',#459,#207);
#188=LINE('',#462,#208);
#189=LINE('',#464,#209);
#190=LINE('',#466,#210);
#191=LINE('',#468,#211);
#192=LINE('',#471,#212);
#193=LINE('',#473,#213);
#194=LINE('',#475,#214);
#195=LINE('',#477,#215);
#196=LINE('',#480,#216);
#197=LINE('',#482,#217);
#198=LINE('',#484,#218);
#199=LINE('',#493,#219);
#200=LINE('',#496,#220);
#201=LINE('',#498,#221);
#202=LINE('',#500,#222);
#203=VECTOR('',#352,1.);
#204=VECTOR('',#353,1.);
#205=VECTOR('',#354,1.);
#206=VECTOR('',#355,1.);
#207=VECTOR('',#358,1.);
#208=VECTOR('',#359,1.);
#209=VECTOR('',#360,1.);
#210=VECTOR('',#361,1.);
#211=VECTOR('',#364,1.);
#212=VECTOR('',#365,1.);
#213=VECTOR('',#366,1.);
#214=VECTOR('',#367,1.);
#215=VECTOR('',#370,1.);
#216=VECTOR('',#371,1.);
#217=VECTOR('',#372,1.);
#218=VECTOR('',#373,1.);
#219=VECTOR('',#388,1.);
#220=VECTOR('',#389,1.);
#221=VECTOR('',#390,1.);
#222=VECTOR('',#391,1.);
#223=EDGE_LOOP('',(#47,#48,#49,#50));
#224=EDGE_LOOP('',(#51,#52,#53,#54));
#225=EDGE_LOOP('',(#55,#56,#57,#58));
#226=EDGE_LOOP('',(#59,#60,#61,#62));
#227=EDGE_LOOP('',(#63));
#228=EDGE_LOOP('',(#64,#65,#66,#67,#68,#69,#70,#71));
#229=EDGE_LOOP('',(#72,#73,#74,#75));
#230=EDGE_LOOP('',(#76,#77,#78,#79));
#231=EDGE_LOOP('',(#80,#81,#82,#83));
#232=EDGE_LOOP('',(#84,#85,#86,#87));
#233=EDGE_LOOP('',(#88,#89,#90));
#234=EDGE_LOOP('',(#91,#92,#93));
#235=EDGE_LOOP('',(#94,#95,#96,#97));
#236=EDGE_LOOP('',(#98,#99,#100,#101));
#237=EDGE_LOOP('',(#102,#103,#104,#105));
#238=EDGE_LOOP('',(#106,#107,#108,#109));
#239=EDGE_LOOP('',(#110,#111,#112));
#240=EDGE_LOOP('',(#113,#114,#115));
#241=EDGE_LOOP('',(#116,#117,#118,#119));
#242=EDGE_LOOP('',(#120));
#243=EDGE_LOOP('',(#121));
#244=EDGE_LOOP('',(#122));
#245=FACE_BOUND('',#223,.T.);
#246=FACE_BOUND('',#224,.T.);
#247=FACE_BOUND('',#225,.T.);
#248=FACE_BOUND('',#226,.T.);
#249=FACE_BOUND('',#227,.T.);
#250=FACE_BOUND('',#228,.T.);
#251=FACE_BOUND('',#229,.T.);
#252=FACE_BOUND('',#230,.T.);
#253=FACE_BOUND('',#231,.T.);
#254=FACE_BOUND('',#232,.T.);
#255=FACE_BOUND('',#233,.T.);
#256=FACE_BOUND('',#234,.T.);
#257=FACE_BOUND('',#235,.T.);
#258=FACE_BOUND('',#236,.T.);
#259=FACE_BOUND('',#237,.T.);
#260=FACE_BOUND('',#238,.T.);
#261=FACE_BOUND('',#239,.T.);
#262=FACE_BOUND('',#240,.T.);
#263=FACE_BOUND('',#241,.T.);
#264=FACE_BOUND('',#242,.T.);
#265=FACE_BOUND('',#243,.T.);
#266=FACE_BOUND('',#244,.T.);
#267=PLANE('',#309);
#268=PLANE('',#310);
#269=PLANE('',#311);
#270=PLANE('',#312);
#271=PLANE('',#313);
#272=PLANE('',#319);
#273=PLANE('',#346);
#274=ADVANCED_FACE('',(#245),#267,.F.);
#275=ADVANCED_FACE('',(#246),#268,.F.);
#276=ADVANCED_FACE('',(#247),#269,.T.);
#277=ADVANCED_FACE('',(#248),#270,.T.);
#278=ADVANCED_FACE('',(#249,#250),#271,.F.);
#279=ADVANCED_FACE('',(#251),#272,.T.);
#280=ADVANCED_FACE('',(#252),#20,.T.);
#281=ADVANCED_FACE('',(#253),#21,.T.);
#282=ADVANCED_FACE('',(#254),#22,.T.);
#283=ADVANCED_FACE('',(#255),#16,.T.);
#284=ADVANCED_FACE('',(#256),#17,.T.);
#285=ADVANCED_FACE('',(#257),#23,.T.);
#286=ADVANCED_FACE('',(#258),#24,.T.);
#287=ADVANCED_FACE('',(#259),#25,.T.);
#288=ADVANCED_FACE('',(#260),#26,.T.);
#289=ADVANCED_FACE('',(#261),#18,.T.);
#290=ADVANCED_FACE('',(#262),#19,.T.);
#291=ADVANCED_FACE('',(#263),#27,.T.);
#292=ADVANCED_FACE('',(#264,#265),#28,.F.);
#293=ADVANCED_FACE('',(#266),#273,.F.);
#294=CLOSED_SHELL('',(#274,#275,#276,#277,#278,#279,#280,#281,#282,#283,
#284,#285,#286,#287,#288,#289,#290,#291,#292,#293));
#295=STYLED_ITEM('',(#296),#303);
#296=PRESENTATION_STYLE_ASSIGNMENT((#297));
#297=SURFACE_STYLE_USAGE(.BOTH.,#298);
#298=SURFACE_SIDE_STYLE('',(#299));
#299=SURFACE_STYLE_FILL_AREA(#300);
#300=FILL_AREA_STYLE('',(#301));
#301=FILL_AREA_STYLE_COLOUR('',#302);
#302=DRAUGHTING_PRE_DEFINED_COLOUR('black');
#303=MANIFOLD_SOLID_BREP('Part 1',#294);
#304=SHAPE_DEFINITION_REPRESENTATION(#538,#306);
#305=SHAPE_DEFINITION_REPRESENTATION(#539,#307);
#306=SHAPE_REPRESENTATION('Assembly 1',(#308,#347),#531);
#307=SHAPE_REPRESENTATION('Part 1',(#308),#532);
#308=AXIS2_PLACEMENT_3D('',#448,#348,#349);
#309=AXIS2_PLACEMENT_3D('',#449,#350,#351);
#310=AXIS2_PLACEMENT_3D('',#458,#356,#357);
#311=AXIS2_PLACEMENT_3D('',#467,#362,#363);
#312=AXIS2_PLACEMENT_3D('',#476,#368,#369);
#313=AXIS2_PLACEMENT_3D('',#485,#374,#375);
#314=AXIS2_PLACEMENT_3D('',#486,#376,#377);
#315=AXIS2_PLACEMENT_3D('',#488,#378,#379);
#316=AXIS2_PLACEMENT_3D('',#489,#380,#381);
#317=AXIS2_PLACEMENT_3D('',#490,#382,#383);
#318=AXIS2_PLACEMENT_3D('',#491,#384,#385);
#319=AXIS2_PLACEMENT_3D('',#492,#386,#387);
#320=AXIS2_PLACEMENT_3D('',#501,#392,#393);
#321=AXIS2_PLACEMENT_3D('',#502,#394,#395);
#322=AXIS2_PLACEMENT_3D('',#503,#396,#397);
#323=AXIS2_PLACEMENT_3D('',#504,#398,#399);
#324=AXIS2_PLACEMENT_3D('',#505,#400,#401);
#325=AXIS2_PLACEMENT_3D('',#506,#402,#403);
#326=AXIS2_PLACEMENT_3D('',#507,#404,#405);
#327=AXIS2_PLACEMENT_3D('',#508,#406,#407);
#328=AXIS2_PLACEMENT_3D('',#509,#408,#409);
#329=AXIS2_PLACEMENT_3D('',#510,#410,#411);
#330=AXIS2_PLACEMENT_3D('',#511,#412,#413);
#331=AXIS2_PLACEMENT_3D('',#512,#414,#415);
#332=AXIS2_PLACEMENT_3D('',#513,#416,#417);
#333=AXIS2_PLACEMENT_3D('',#514,#418,#419);
#334=AXIS2_PLACEMENT_3D('',#515,#420,#421);
#335=AXIS2_PLACEMENT_3D('',#516,#422,#423);
#336=AXIS2_PLACEMENT_3D('',#517,#424,#425);
#337=AXIS2_PLACEMENT_3D('',#518,#426,#427);
#338=AXIS2_PLACEMENT_3D('',#519,#428,#429);
#339=AXIS2_PLACEMENT_3D('',#520,#430,#431);
#340=AXIS2_PLACEMENT_3D('',#521,#432,#433);
#341=AXIS2_PLACEMENT_3D('',#522,#434,#435);
#342=AXIS2_PLACEMENT_3D('',#523,#436,#437);
#343=AXIS2_PLACEMENT_3D('',#524,#438,#439);
#344=AXIS2_PLACEMENT_3D('',#525,#440,#441);
#345=AXIS2_PLACEMENT_3D('',#526,#442,#443);
#346=AXIS2_PLACEMENT_3D('',#528,#444,#445);
#347=AXIS2_PLACEMENT_3D('',#529,#446,#447);
#348=DIRECTION('',(0.,0.,1.));
#349=DIRECTION('',(1.,0.,0.));
#350=DIRECTION('',(-0.970142500145332,0.,-0.242535625036334));
#351=DIRECTION('',(-0.242535625036334,0.,0.970142500145332));
#352=DIRECTION('',(0.,1.,0.));
#353=DIRECTION('',(-0.235702260395517,-0.235702260395516,0.942809041582063));
#354=DIRECTION('',(0.,-1.,0.));
#355=DIRECTION('',(0.235702260395517,-0.235702260395516,-0.942809041582063));
#356=DIRECTION('',(0.,-0.970142500145332,-0.242535625036333));
#357=DIRECTION('',(0.,0.242535625036333,-0.970142500145332));
#358=DIRECTION('',(-1.,0.,0.));
#359=DIRECTION('',(-0.235702260395516,0.235702260395516,-0.942809041582063));
#360=DIRECTION('',(1.,0.,0.));
#361=DIRECTION('',(-0.235702260395517,-0.235702260395516,0.942809041582063));
#362=DIRECTION('',(-0.970142500145332,0.,0.242535625036333));
#363=DIRECTION('',(0.242535625036333,0.,0.970142500145332));
#364=DIRECTION('',(0.,1.,0.));
#365=DIRECTION('',(-0.235702260395516,-0.235702260395516,-0.942809041582063));
#366=DIRECTION('',(0.,1.,0.));
#367=DIRECTION('',(0.235702260395516,-0.235702260395516,0.942809041582063));
#368=DIRECTION('',(0.,-0.970142500145332,0.242535625036333));
#369=DIRECTION('',(0.,-0.242535625036333,-0.970142500145332));
#370=DIRECTION('',(-1.,0.,0.));
#371=DIRECTION('',(-0.235702260395516,-0.235702260395516,-0.942809041582063));
#372=DIRECTION('',(-1.,0.,0.));
#373=DIRECTION('',(-0.235702260395517,0.235702260395516,0.942809041582063));
#374=DIRECTION('',(0.,0.,1.));
#375=DIRECTION('',(1.,0.,0.));
#376=DIRECTION('',(0.,0.,1.));
#377=DIRECTION('',(1.,0.,0.));
#378=DIRECTION('',(0.,0.,1.));
#379=DIRECTION('',(-0.707106781186548,-0.707106781186548,0.));
#380=DIRECTION('',(0.,0.,1.));
#381=DIRECTION('',(0.707106781186548,-0.707106781186548,0.));
#382=DIRECTION('',(0.,0.,1.));
#383=DIRECTION('',(0.707106781186549,0.707106781186546,0.));
#384=DIRECTION('',(0.,0.,1.));
#385=DIRECTION('',(-0.707106781186549,0.707106781186546,0.));
#386=DIRECTION('',(0.,0.,1.));
#387=DIRECTION('',(1.,0.,0.));
#388=DIRECTION('',(0.,1.,0.));
#389=DIRECTION('',(-1.,0.,0.));
#390=DIRECTION('',(0.,1.,0.));
#391=DIRECTION('',(-1.,0.,0.));
#392=DIRECTION('',(0.235702260395517,0.235702260395516,-0.942809041582063));
#393=DIRECTION('',(-0.970142500145332,0.,-0.242535625036334));
#394=DIRECTION('',(-0.235702260395516,-0.235702260395511,0.942809041582064));
#395=DIRECTION('',(0.970142500145332,0.,0.242535625036333));
#396=DIRECTION('',(0.235702260395516,-0.235702260395516,0.942809041582063));
#397=DIRECTION('',(0.970142500145332,0.,-0.242535625036333));
#398=DIRECTION('',(0.235702260395511,-0.235702260395516,0.942809041582064));
#399=DIRECTION('',(0.,-0.970142500145332,-0.242535625036333));
#400=DIRECTION('',(-1.,0.,0.));
#401=DIRECTION('',(0.,0.,1.));
#402=DIRECTION('',(1.,0.,0.));
#403=DIRECTION('',(0.,0.,-1.));
#404=DIRECTION('',(-1.,0.,0.));
#405=DIRECTION('',(0.,0.,1.));
#406=DIRECTION('',(0.,0.,1.));
#407=DIRECTION('',(1.,0.,0.));
#408=DIRECTION('',(0.,1.,0.));
#409=DIRECTION('',(0.,0.,1.));
#410=DIRECTION('',(-1.38777878078144E-14,0.,1.));
#411=DIRECTION('',(1.,0.,1.38777878078144E-14));
#412=DIRECTION('',(0.,1.,0.));
#413=DIRECTION('',(0.,0.,1.));
#414=DIRECTION('',(0.,1.,0.));
#415=DIRECTION('',(0.,0.,1.));
#416=DIRECTION('',(0.,-1.,0.));
#417=DIRECTION('',(0.,0.,-1.));
#418=DIRECTION('',(-0.235702260395517,0.235702260395516,0.942809041582063));
#419=DIRECTION('',(0.970142500145332,0.,0.242535625036334));
#420=DIRECTION('',(-0.235702260395521,0.235702260395516,0.942809041582062));
#421=DIRECTION('',(0.970142500145331,0.,0.242535625036338));
#422=DIRECTION('',(-0.235702260395516,-0.235702260395516,-0.942809041582063));
#423=DIRECTION('',(-0.970142500145332,0.,0.242535625036333));
#424=DIRECTION('',(0.235702260395516,0.235702260395519,0.942809041582063));
#425=DIRECTION('',(0.,-0.970142500145331,0.242535625036336));
#426=DIRECTION('',(0.,1.,0.));
#427=DIRECTION('',(0.,0.,1.));
#428=DIRECTION('',(0.,-1.,0.));
#429=DIRECTION('',(0.,0.,-1.));
#430=DIRECTION('',(0.,0.,1.));
#431=DIRECTION('',(1.,0.,0.));
#432=DIRECTION('',(1.,0.,0.));
#433=DIRECTION('',(0.,0.,-1.));
#434=DIRECTION('',(-1.38777878078144E-14,0.,1.));
#435=DIRECTION('',(1.,0.,1.38777878078144E-14));
#436=DIRECTION('',(-1.,0.,0.));
#437=DIRECTION('',(0.,0.,1.));
#438=DIRECTION('',(-1.,0.,0.));
#439=DIRECTION('',(0.,0.,1.));
#440=DIRECTION('',(0.,0.,-1.));
#441=DIRECTION('',(-1.,0.,0.));
#442=DIRECTION('',(0.,0.,1.));
#443=DIRECTION('',(1.,0.,0.));
#444=DIRECTION('',(0.,0.,1.));
#445=DIRECTION('',(1.,0.,0.));
#446=DIRECTION('',(0.,0.,1.));
#447=DIRECTION('',(1.,0.,0.));
#448=CARTESIAN_POINT('',(0.,0.,0.));
#449=CARTESIAN_POINT('',(-0.0473917437652597,0.,-0.011847935941315));
#450=CARTESIAN_POINT('',(-0.0503537277505885,0.0239404637122067,0.));
#451=CARTESIAN_POINT('',(-0.0503537277505885,0.0267053924621341,0.));
#452=CARTESIAN_POINT('',(-0.0503537277505885,0.0211755349622793,0.));
#453=CARTESIAN_POINT('',(-0.0490399313456743,0.0280191888670482,-0.0052551856196566));
#454=CARTESIAN_POINT('',(-0.051759044703718,0.0253000755090045,0.00562126781251817));
#455=CARTESIAN_POINT('',(-0.051759044703718,0.,0.00562126781251817));
#456=CARTESIAN_POINT('',(-0.051759044703718,0.0225808519154089,0.00562126781251817));
#457=CARTESIAN_POINT('',(-0.0463798798220958,0.0172016870337867,-0.0158953917139707));
#458=CARTESIAN_POINT('',(0.,0.0255910246703122,0.00639775616757805));
#459=CARTESIAN_POINT('',(-0.0536037277505885,0.0271904637122067,0.));
#460=CARTESIAN_POINT('',(-0.0563686565005158,0.0271904637122067,0.));
#461=CARTESIAN_POINT('',(-0.0508387990006612,0.0271904637122067,0.));
#462=CARTESIAN_POINT('',(-0.0517264831553646,0.0225482903670555,0.018568693380605));
#463=CARTESIAN_POINT('',(-0.0549633395473863,0.0257851467590772,0.00562126781251817));
#464=CARTESIAN_POINT('',(0.,0.0257851467590772,0.00562126781251817));
#465=CARTESIAN_POINT('',(-0.0522441159537907,0.0257851467590772,0.00562126781251817));
#466=CARTESIAN_POINT('',(-0.049525002595747,0.0285042601171209,-0.0052551856196566));
#467=CARTESIAN_POINT('',(-0.0535093908240833,0.,0.0133773477060208));
#468=CARTESIAN_POINT('',(-0.0568537277505885,0.0239404637122067,0.));
#469=CARTESIAN_POINT('',(-0.0568537277505885,0.0211755349622793,0.));
#470=CARTESIAN_POINT('',(-0.0568537277505885,0.0267053924621341,0.));
#471=CARTESIAN_POINT('',(-0.0548716059290158,0.0231576567838521,0.00792848728629093));
#472=CARTESIAN_POINT('',(-0.055448410797459,0.0225808519154089,0.00562126781251817));
#473=CARTESIAN_POINT('',(-0.055448410797459,0.,0.00562126781251816));
#474=CARTESIAN_POINT('',(-0.055448410797459,0.0253000755090045,0.00562126781251816));
#475=CARTESIAN_POINT('',(-0.0522115544054372,0.0220632191169827,0.018568693380605));
#476=CARTESIAN_POINT('',(0.,0.0194733776114886,-0.00486834440287217));
#477=CARTESIAN_POINT('',(0.,0.0220957806653363,0.00562126781251817));
#478=CARTESIAN_POINT('',(-0.0522441159537907,0.0220957806653363,0.00562126781251817));
#479=CARTESIAN_POINT('',(-0.0549633395473863,0.0220957806653363,0.00562126781251817));
#480=CARTESIAN_POINT('',(-0.0543865346789431,0.0226725855337794,0.00792848728629093));
#481=CARTESIAN_POINT('',(-0.0563686565005158,0.0206904637122067,0.));
#482=CARTESIAN_POINT('',(-0.0536037277505885,0.0206904637122067,0.));
#483=CARTESIAN_POINT('',(-0.0508387990006612,0.0206904637122067,0.));
#484=CARTESIAN_POINT('',(-0.0468649510721685,0.016716615783714,-0.0158953917139707));
#485=CARTESIAN_POINT('',(-0.0536037277505885,0.0239404637122067,0.));
#486=CARTESIAN_POINT('',(-0.0536037277505885,0.0239404637122067,0.));
#487=CARTESIAN_POINT('',(-0.0523037277505885,0.0239404637122067,0.));
#488=CARTESIAN_POINT('',(-0.0563383395473863,0.0212058519154089,0.));
#489=CARTESIAN_POINT('',(-0.0563383395473863,0.0266750755090045,0.));
#490=CARTESIAN_POINT('',(-0.0508691159537907,0.0266750755090045,0.));
#491=CARTESIAN_POINT('',(-0.0508691159537907,0.0212058519154089,0.));
#492=CARTESIAN_POINT('',(-0.0536037277505885,0.0239404637122067,0.006));
#493=CARTESIAN_POINT('',(-0.0549633395473863,0.0239404637122067,0.006));
#494=CARTESIAN_POINT('',(-0.0549633395473863,0.0253000755090045,0.006));
#495=CARTESIAN_POINT('',(-0.0549633395473863,0.0225808519154089,0.006));
#496=CARTESIAN_POINT('',(-0.0536037277505885,0.0225808519154089,0.006));
#497=CARTESIAN_POINT('',(-0.0522441159537907,0.0225808519154089,0.006));
#498=CARTESIAN_POINT('',(-0.0522441159537907,0.0239404637122067,0.006));
#499=CARTESIAN_POINT('',(-0.0522441159537907,0.0253000755090045,0.006));
#500=CARTESIAN_POINT('',(-0.0536037277505885,0.0253000755090045,0.006));
#501=CARTESIAN_POINT('',(-0.049525002595747,0.0280191888670482,-0.00537645343217477));
#502=CARTESIAN_POINT('',(-0.0522441159537907,0.0253000755090045,0.0055));
#503=CARTESIAN_POINT('',(-0.0517264831553646,0.0220632191169827,0.0184474255680869));
#504=CARTESIAN_POINT('',(-0.0549633395473863,0.0253000755090045,0.0055));
#505=CARTESIAN_POINT('',(0.,0.0253000755090045,0.0055));
#506=CARTESIAN_POINT('',(-0.0522441159537907,0.0253000755090045,0.0055));
#507=CARTESIAN_POINT('',(-0.0549633395473863,0.0253000755090045,0.0055));
#508=CARTESIAN_POINT('',(-0.0522441159537907,0.0253000755090045,0.0055));
#509=CARTESIAN_POINT('',(-0.0522441159537907,0.0253000755090045,0.0055));
#510=CARTESIAN_POINT('',(-0.0549633395473863,0.0253000755090045,0.0055));
#511=CARTESIAN_POINT('',(-0.0549633395473863,0.0253000755090045,0.0055));
#512=CARTESIAN_POINT('',(-0.0522441159537907,0.,0.0055));
#513=CARTESIAN_POINT('',(-0.0522441159537907,0.0225808519154089,0.0055));
#514=CARTESIAN_POINT('',(-0.0468649510721685,0.0172016870337867,-0.0160166595264889));
#515=CARTESIAN_POINT('',(-0.0522441159537907,0.0225808519154089,0.0055));
#516=CARTESIAN_POINT('',(-0.0543865346789431,0.0231576567838521,0.00780721947377276));
#517=CARTESIAN_POINT('',(-0.0549633395473863,0.0225808519154089,0.0055));
#518=CARTESIAN_POINT('',(-0.0549633395473863,0.,0.0055));
#519=CARTESIAN_POINT('',(-0.0549633395473863,0.0225808519154089,0.0055));
#520=CARTESIAN_POINT('',(-0.0522441159537907,0.0225808519154089,0.0055));
#521=CARTESIAN_POINT('',(-0.0522441159537907,0.0225808519154089,0.0055));
#522=CARTESIAN_POINT('',(-0.0549633395473863,0.0225808519154089,0.0055));
#523=CARTESIAN_POINT('',(-0.0549633395473863,0.0225808519154089,0.0055));
#524=CARTESIAN_POINT('',(0.,0.0225808519154089,0.0055));
#525=CARTESIAN_POINT('',(-0.0536037277505885,0.0239404637122067,0.001));
#526=CARTESIAN_POINT('',(-0.0536037277505885,0.0239404637122067,0.001));
#527=CARTESIAN_POINT('',(-0.0523037277505885,0.0239404637122067,0.001));
#528=CARTESIAN_POINT('',(-0.0536037277505885,0.0239404637122067,0.001));
#529=CARTESIAN_POINT('',(0.0412895720527659,-0.0332421820366295,-0.00628820571303368));
#530=MECHANICAL_DESIGN_GEOMETRIC_PRESENTATION_REPRESENTATION('',(#295),
#531);
#531=(
GEOMETRIC_REPRESENTATION_CONTEXT(3)
GLOBAL_UNCERTAINTY_ASSIGNED_CONTEXT((#533))
GLOBAL_UNIT_ASSIGNED_CONTEXT((#537,#536,#535))
REPRESENTATION_CONTEXT('Assembly 1','TOP_LEVEL_ASSEMBLY_PART')
);
#532=(
GEOMETRIC_REPRESENTATION_CONTEXT(3)
GLOBAL_UNCERTAINTY_ASSIGNED_CONTEXT((#534))
GLOBAL_UNIT_ASSIGNED_CONTEXT((#537,#536,#535))
REPRESENTATION_CONTEXT('Part 1','COMPONENT_PART')
);
#533=UNCERTAINTY_MEASURE_WITH_UNIT(LENGTH_MEASURE(1.E-8),#537,
'DISTANCE_ACCURACY_VALUE','Maximum Tolerance applied to model');
#534=UNCERTAINTY_MEASURE_WITH_UNIT(LENGTH_MEASURE(1.E-8),#537,
'DISTANCE_ACCURACY_VALUE','Maximum Tolerance applied to model');
#535=(
NAMED_UNIT(*)
SI_UNIT($,.STERADIAN.)
SOLID_ANGLE_UNIT()
);
#536=(
NAMED_UNIT(*)
PLANE_ANGLE_UNIT()
SI_UNIT($,.RADIAN.)
);
#537=(
LENGTH_UNIT()
NAMED_UNIT(*)
SI_UNIT($,.METRE.)
);
#538=PRODUCT_DEFINITION_SHAPE('','',#541);
#539=PRODUCT_DEFINITION_SHAPE('','',#542);
#540=PRODUCT_DEFINITION_SHAPE(' ','NAUO PRDDFN',#11);
#541=PRODUCT_DEFINITION('','',#545,#543);
#542=PRODUCT_DEFINITION('','',#546,#544);
#543=PRODUCT_DEFINITION_CONTEXT('',#556,'design');
#544=PRODUCT_DEFINITION_CONTEXT('',#556,'design');
#545=PRODUCT_DEFINITION_FORMATION_WITH_SPECIFIED_SOURCE('','',#549,
 .NOT_KNOWN.);
#546=PRODUCT_DEFINITION_FORMATION_WITH_SPECIFIED_SOURCE('','',#550,
 .NOT_KNOWN.);
#547=PRODUCT_RELATED_PRODUCT_CATEGORY('','',(#549));
#548=PRODUCT_RELATED_PRODUCT_CATEGORY('','',(#550));
#549=PRODUCT('Assembly 1','Assembly 1','Assembly 1',(#553));
#550=PRODUCT('Part 1','Part 1','Part 1',(#554));
#551=PRODUCT_CATEGORY('','');
#552=PRODUCT_CATEGORY('','');
#553=PRODUCT_CONTEXT('',#556,'mechanical');
#554=PRODUCT_CONTEXT('',#556,'mechanical');
#555=APPLICATION_PROTOCOL_DEFINITION('international standard',
'ap242_managed_model_based_3d_engineering',2020,#556);
#556=APPLICATION_CONTEXT('managed model based 3d engineering');
ENDSEC;
END-ISO-10303-21;
