ISO-10303-21;
HEADER;
/* Generated by software containing ST-Developer
 * from STEP Tools, Inc. (www.steptools.com) 
 */
/* OPTION: using custom renumber hook */

FILE_DESCRIPTION(
/* description */ ('STEP AP242 Edition 2',
'CAx-IF Rec.Pracs.---Representation and Presentation of Product Manufa
cturing Information (PMI)---4.0---2014-10-13',
'CAx-IF Rec.Pracs.---3D Tessellated Geometry---0.4---2014-09-14','2;1',
'CAx-IF Rec.Pracs.---User Defined Attributes---1.5---2016-08-15'),
/* implementation_level */ '2;1');

FILE_NAME(
/* name */ '6a32da14fc247f6640c6be40',
/* time_stamp */ '2026-06-17T17:32:04Z',
/* author */ (''),
/* organization */ (''),
/* preprocessor_version */ 'ST-DEVELOPER v20',
/* originating_system */ 'ONSHAPE BY PTC INC, 1.216',
/* authorisation */ '  ');

FILE_SCHEMA (('AP242_MANAGED_MODEL_BASED_3D_ENGINEERING_MIM_LF { 1 0 10303 442 3 1 4 }'));
ENDSEC;

DATA;
#10=CONTEXT_DEPENDENT_SHAPE_REPRESENTATION(#12,#210);
#11=NEXT_ASSEMBLY_USAGE_OCCURRENCE('NAUO1','Part 1','Part 1',#211,#212,
'');
#12=(
REPRESENTATION_RELATIONSHIP(' ',' ',#123,#122)
REPRESENTATION_RELATIONSHIP_WITH_TRANSFORMATION(#13)
SHAPE_REPRESENTATION_RELATIONSHIP()
);
#13=ITEM_DEFINED_TRANSFORMATION(' ',' ',#124,#136);
#14=SHAPE_REPRESENTATION_RELATIONSHIP('','',#123,#15);
#15=ADVANCED_BREP_SHAPE_REPRESENTATION('',(#119),#202);
#16=CYLINDRICAL_SURFACE('',#127,0.0015);
#17=CIRCLE('',#126,0.0015);
#18=CIRCLE('',#128,0.0015);
#19=CIRCLE('',#129,0.0015);
#20=CIRCLE('',#130,0.0015);
#21=ORIENTED_EDGE('',*,*,#45,.F.);
#22=ORIENTED_EDGE('',*,*,#46,.F.);
#23=ORIENTED_EDGE('',*,*,#47,.F.);
#24=ORIENTED_EDGE('',*,*,#48,.T.);
#25=ORIENTED_EDGE('',*,*,#49,.F.);
#26=ORIENTED_EDGE('',*,*,#50,.F.);
#27=ORIENTED_EDGE('',*,*,#51,.T.);
#28=ORIENTED_EDGE('',*,*,#52,.T.);
#29=ORIENTED_EDGE('',*,*,#46,.T.);
#30=ORIENTED_EDGE('',*,*,#53,.F.);
#31=ORIENTED_EDGE('',*,*,#54,.F.);
#32=ORIENTED_EDGE('',*,*,#49,.T.);
#33=ORIENTED_EDGE('',*,*,#45,.T.);
#34=ORIENTED_EDGE('',*,*,#52,.F.);
#35=ORIENTED_EDGE('',*,*,#55,.F.);
#36=ORIENTED_EDGE('',*,*,#53,.T.);
#37=ORIENTED_EDGE('',*,*,#51,.F.);
#38=ORIENTED_EDGE('',*,*,#55,.T.);
#39=ORIENTED_EDGE('',*,*,#54,.T.);
#40=ORIENTED_EDGE('',*,*,#48,.F.);
#41=ORIENTED_EDGE('',*,*,#56,.F.);
#42=ORIENTED_EDGE('',*,*,#50,.T.);
#43=ORIENTED_EDGE('',*,*,#47,.T.);
#44=ORIENTED_EDGE('',*,*,#56,.T.);
#45=EDGE_CURVE('',#57,#58,#65,.T.);
#46=EDGE_CURVE('',#58,#57,#17,.T.);
#47=EDGE_CURVE('',#59,#60,#18,.T.);
#48=EDGE_CURVE('',#59,#61,#66,.T.);
#49=EDGE_CURVE('',#62,#61,#19,.T.);
#50=EDGE_CURVE('',#60,#62,#67,.T.);
#51=EDGE_CURVE('',#63,#64,#20,.T.);
#52=EDGE_CURVE('',#64,#58,#68,.T.);
#53=EDGE_CURVE('',#63,#57,#69,.T.);
#54=EDGE_CURVE('',#62,#61,#70,.T.);
#55=EDGE_CURVE('',#63,#64,#71,.T.);
#56=EDGE_CURVE('',#60,#59,#72,.T.);
#57=VERTEX_POINT('',#174);
#58=VERTEX_POINT('',#175);
#59=VERTEX_POINT('',#179);
#60=VERTEX_POINT('',#180);
#61=VERTEX_POINT('',#182);
#62=VERTEX_POINT('',#184);
#63=VERTEX_POINT('',#187);
#64=VERTEX_POINT('',#188);
#65=LINE('',#173,#73);
#66=LINE('',#181,#74);
#67=LINE('',#185,#75);
#68=LINE('',#189,#76);
#69=LINE('',#190,#77);
#70=LINE('',#192,#78);
#71=LINE('',#194,#79);
#72=LINE('',#197,#80);
#73=VECTOR('',#141,1.);
#74=VECTOR('',#148,1.);
#75=VECTOR('',#151,1.);
#76=VECTOR('',#154,1.);
#77=VECTOR('',#155,1.);
#78=VECTOR('',#158,1.);
#79=VECTOR('',#161,1.);
#80=VECTOR('',#166,1.);
#81=EDGE_LOOP('',(#21,#22));
#82=EDGE_LOOP('',(#23,#24,#25,#26));
#83=EDGE_LOOP('',(#27,#28,#29,#30));
#84=EDGE_LOOP('',(#31,#32));
#85=EDGE_LOOP('',(#33,#34,#35,#36));
#86=EDGE_LOOP('',(#37,#38));
#87=EDGE_LOOP('',(#39,#40,#41,#42));
#88=EDGE_LOOP('',(#43,#44));
#89=FACE_BOUND('',#81,.T.);
#90=FACE_BOUND('',#82,.T.);
#91=FACE_BOUND('',#83,.T.);
#92=FACE_BOUND('',#84,.T.);
#93=FACE_BOUND('',#85,.T.);
#94=FACE_BOUND('',#86,.T.);
#95=FACE_BOUND('',#87,.T.);
#96=FACE_BOUND('',#88,.T.);
#97=PLANE('',#125);
#98=PLANE('',#131);
#99=PLANE('',#132);
#100=PLANE('',#133);
#101=PLANE('',#134);
#102=PLANE('',#135);
#103=ADVANCED_FACE('',(#89),#97,.F.);
#104=ADVANCED_FACE('',(#90,#91),#16,.T.);
#105=ADVANCED_FACE('',(#92),#98,.T.);
#106=ADVANCED_FACE('',(#93),#99,.F.);
#107=ADVANCED_FACE('',(#94),#100,.T.);
#108=ADVANCED_FACE('',(#95),#101,.F.);
#109=ADVANCED_FACE('',(#96),#102,.T.);
#110=CLOSED_SHELL('',(#103,#104,#105,#106,#107,#108,#109));
#111=STYLED_ITEM('',(#112),#119);
#112=PRESENTATION_STYLE_ASSIGNMENT((#113));
#113=SURFACE_STYLE_USAGE(.BOTH.,#114);
#114=SURFACE_SIDE_STYLE('',(#115));
#115=SURFACE_STYLE_FILL_AREA(#116);
#116=FILL_AREA_STYLE('',(#117));
#117=FILL_AREA_STYLE_COLOUR('',#118);
#118=COLOUR_RGB('',0.615686274509804,0.811764705882353,0.929411764705882);
#119=MANIFOLD_SOLID_BREP('Part 1',#110);
#120=SHAPE_DEFINITION_REPRESENTATION(#208,#122);
#121=SHAPE_DEFINITION_REPRESENTATION(#209,#123);
#122=SHAPE_REPRESENTATION('Assembly 1',(#124,#136),#201);
#123=SHAPE_REPRESENTATION('Part 1',(#124),#202);
#124=AXIS2_PLACEMENT_3D('',#171,#137,#138);
#125=AXIS2_PLACEMENT_3D('',#172,#139,#140);
#126=AXIS2_PLACEMENT_3D('',#176,#142,#143);
#127=AXIS2_PLACEMENT_3D('',#177,#144,#145);
#128=AXIS2_PLACEMENT_3D('',#178,#146,#147);
#129=AXIS2_PLACEMENT_3D('',#183,#149,#150);
#130=AXIS2_PLACEMENT_3D('',#186,#152,#153);
#131=AXIS2_PLACEMENT_3D('',#191,#156,#157);
#132=AXIS2_PLACEMENT_3D('',#193,#159,#160);
#133=AXIS2_PLACEMENT_3D('',#195,#162,#163);
#134=AXIS2_PLACEMENT_3D('',#196,#164,#165);
#135=AXIS2_PLACEMENT_3D('',#198,#167,#168);
#136=AXIS2_PLACEMENT_3D('',#199,#169,#170);
#137=DIRECTION('',(0.,0.,1.));
#138=DIRECTION('',(1.,0.,0.));
#139=DIRECTION('',(0.,0.,1.));
#140=DIRECTION('',(1.,0.,0.));
#141=DIRECTION('',(0.,1.,0.));
#142=DIRECTION('',(0.,0.,1.));
#143=DIRECTION('',(1.,0.,0.));
#144=DIRECTION('',(0.,0.,-1.));
#145=DIRECTION('',(-1.,0.,0.));
#146=DIRECTION('',(0.,0.,1.));
#147=DIRECTION('',(1.,0.,0.));
#148=DIRECTION('',(0.,0.,1.));
#149=DIRECTION('',(0.,0.,1.));
#150=DIRECTION('',(1.,0.,0.));
#151=DIRECTION('',(0.,0.,1.));
#152=DIRECTION('',(0.,0.,1.));
#153=DIRECTION('',(1.,0.,0.));
#154=DIRECTION('',(0.,0.,-1.));
#155=DIRECTION('',(0.,0.,-1.));
#156=DIRECTION('',(0.,0.,1.));
#157=DIRECTION('',(1.,0.,0.));
#158=DIRECTION('',(0.,-1.,0.));
#159=DIRECTION('',(-1.,0.,0.));
#160=DIRECTION('',(0.,0.,1.));
#161=DIRECTION('',(0.,1.,0.));
#162=DIRECTION('',(0.,0.,-1.));
#163=DIRECTION('',(1.,0.,0.));
#164=DIRECTION('',(-1.,0.,0.));
#165=DIRECTION('',(0.,0.,1.));
#166=DIRECTION('',(0.,-1.,0.));
#167=DIRECTION('',(0.,0.,1.));
#168=DIRECTION('',(1.,0.,0.));
#169=DIRECTION('',(0.,0.,1.));
#170=DIRECTION('',(1.,0.,0.));
#171=CARTESIAN_POINT('',(0.,0.,0.));
#172=CARTESIAN_POINT('',(-0.0338193513453007,0.0142798586380636,0.));
#173=CARTESIAN_POINT('',(-0.0328369167418792,0.0142798586380636,0.));
#174=CARTESIAN_POINT('',(-0.0328369167418792,0.0131463586380637,0.));
#175=CARTESIAN_POINT('',(-0.0328369167418792,0.0154133586380637,0.));
#176=CARTESIAN_POINT('',(-0.0338193513453007,0.0142798586380636,0.));
#177=CARTESIAN_POINT('',(-0.0338193513453007,0.0142798586380636,0.0535));
#178=CARTESIAN_POINT('',(-0.0338193513453007,0.0142798586380636,0.0465));
#179=CARTESIAN_POINT('',(-0.0328369167418792,0.0131463586380637,0.0465));
#180=CARTESIAN_POINT('',(-0.0328369167418792,0.0154133586380637,0.0465));
#181=CARTESIAN_POINT('',(-0.0328369167418792,0.0131463586380637,0.0465));
#182=CARTESIAN_POINT('',(-0.0328369167418792,0.0131463586380637,0.0535));
#183=CARTESIAN_POINT('',(-0.0338193513453007,0.0142798586380636,0.0535));
#184=CARTESIAN_POINT('',(-0.0328369167418792,0.0154133586380637,0.0535));
#185=CARTESIAN_POINT('',(-0.0328369167418792,0.0154133586380637,0.0465));
#186=CARTESIAN_POINT('',(-0.0338193513453007,0.0142798586380636,0.007));
#187=CARTESIAN_POINT('',(-0.0328369167418792,0.0131463586380637,0.007));
#188=CARTESIAN_POINT('',(-0.0328369167418792,0.0154133586380637,0.007));
#189=CARTESIAN_POINT('',(-0.0328369167418792,0.0154133586380637,0.007));
#190=CARTESIAN_POINT('',(-0.0328369167418792,0.0131463586380637,0.007));
#191=CARTESIAN_POINT('',(-0.0338193513453007,0.0142798586380636,0.0535));
#192=CARTESIAN_POINT('',(-0.0328369167418792,0.0142798586380636,0.0535));
#193=CARTESIAN_POINT('',(-0.0328369167418792,0.0142798586380636,0.007));
#194=CARTESIAN_POINT('',(-0.0328369167418792,0.0142798586380636,0.007));
#195=CARTESIAN_POINT('',(-0.0338193513453007,0.0142798586380636,0.007));
#196=CARTESIAN_POINT('',(-0.0328369167418792,0.0142798586380636,0.0465));
#197=CARTESIAN_POINT('',(-0.0328369167418792,0.0142798586380636,0.0465));
#198=CARTESIAN_POINT('',(-0.0338193513453007,0.0142798586380636,0.0465));
#199=CARTESIAN_POINT('',(0.0103460736832089,-0.0157110275677187,-0.0145438097342849));
#200=MECHANICAL_DESIGN_GEOMETRIC_PRESENTATION_REPRESENTATION('',(#111),
#201);
#201=(
GEOMETRIC_REPRESENTATION_CONTEXT(3)
GLOBAL_UNCERTAINTY_ASSIGNED_CONTEXT((#203))
GLOBAL_UNIT_ASSIGNED_CONTEXT((#207,#206,#205))
REPRESENTATION_CONTEXT('Assembly 1','TOP_LEVEL_ASSEMBLY_PART')
);
#202=(
GEOMETRIC_REPRESENTATION_CONTEXT(3)
GLOBAL_UNCERTAINTY_ASSIGNED_CONTEXT((#204))
GLOBAL_UNIT_ASSIGNED_CONTEXT((#207,#206,#205))
REPRESENTATION_CONTEXT('Part 1','COMPONENT_PART')
);
#203=UNCERTAINTY_MEASURE_WITH_UNIT(LENGTH_MEASURE(1.E-8),#207,
'DISTANCE_ACCURACY_VALUE','Maximum Tolerance applied to model');
#204=UNCERTAINTY_MEASURE_WITH_UNIT(LENGTH_MEASURE(1.E-8),#207,
'DISTANCE_ACCURACY_VALUE','Maximum Tolerance applied to model');
#205=(
NAMED_UNIT(*)
SI_UNIT($,.STERADIAN.)
SOLID_ANGLE_UNIT()
);
#206=(
NAMED_UNIT(*)
PLANE_ANGLE_UNIT()
SI_UNIT($,.RADIAN.)
);
#207=(
LENGTH_UNIT()
NAMED_UNIT(*)
SI_UNIT($,.METRE.)
);
#208=PRODUCT_DEFINITION_SHAPE('','',#211);
#209=PRODUCT_DEFINITION_SHAPE('','',#212);
#210=PRODUCT_DEFINITION_SHAPE(' ','NAUO PRDDFN',#11);
#211=PRODUCT_DEFINITION('','',#215,#213);
#212=PRODUCT_DEFINITION('','',#216,#214);
#213=PRODUCT_DEFINITION_CONTEXT('',#226,'design');
#214=PRODUCT_DEFINITION_CONTEXT('',#226,'design');
#215=PRODUCT_DEFINITION_FORMATION_WITH_SPECIFIED_SOURCE('','',#219,
 .NOT_KNOWN.);
#216=PRODUCT_DEFINITION_FORMATION_WITH_SPECIFIED_SOURCE('','',#220,
 .NOT_KNOWN.);
#217=PRODUCT_RELATED_PRODUCT_CATEGORY('','',(#219));
#218=PRODUCT_RELATED_PRODUCT_CATEGORY('','',(#220));
#219=PRODUCT('Assembly 1','Assembly 1','Assembly 1',(#223));
#220=PRODUCT('Part 1','Part 1','Part 1',(#224));
#221=PRODUCT_CATEGORY('','');
#222=PRODUCT_CATEGORY('','');
#223=PRODUCT_CONTEXT('',#226,'mechanical');
#224=PRODUCT_CONTEXT('',#226,'mechanical');
#225=APPLICATION_PROTOCOL_DEFINITION('international standard',
'ap242_managed_model_based_3d_engineering',2020,#226);
#226=APPLICATION_CONTEXT('managed model based 3d engineering');
ENDSEC;
END-ISO-10303-21;
