ISO-10303-21;
HEADER;
/* Generated by software containing ST-Developer
 * from STEP Tools, Inc. (www.steptools.com) 
 */
/* OPTION: using custom renumber hook */

FILE_DESCRIPTION(
/* description */ ('STEP AP242 Edition 2',
'CAx-IF Rec.Pracs.---Representation and Presentation of Product Manufa
cturing Information (PMI)---4.0---2014-10-13',
'CAx-IF Rec.Pracs.---3D Tessellated Geometry---0.4---2014-09-14','2;1',
'CAx-IF Rec.Pracs.---User Defined Attributes---1.5---2016-08-15'),
/* implementation_level */ '2;1');

FILE_NAME(
/* name */ '6a32d97dfc247f6640c6b9a4',
/* time_stamp */ '2026-06-17T17:29:33Z',
/* author */ (''),
/* organization */ (''),
/* preprocessor_version */ 'ST-DEVELOPER v20',
/* originating_system */ 'ONSHAPE BY PTC INC, 1.216',
/* authorisation */ '  ');

FILE_SCHEMA (('AP242_MANAGED_MODEL_BASED_3D_ENGINEERING_MIM_LF { 1 0 10303 442 3 1 4 }'));
ENDSEC;

DATA;
#10=CONTEXT_DEPENDENT_SHAPE_REPRESENTATION(#12,#252);
#11=NEXT_ASSEMBLY_USAGE_OCCURRENCE('NAUO1','Part 1','Part 1',#253,#254,
'');
#12=(
REPRESENTATION_RELATIONSHIP(' ',' ',#143,#142)
REPRESENTATION_RELATIONSHIP_WITH_TRANSFORMATION(#13)
SHAPE_REPRESENTATION_RELATIONSHIP()
);
#13=ITEM_DEFINED_TRANSFORMATION(' ',' ',#144,#163);
#14=SHAPE_REPRESENTATION_RELATIONSHIP('','',#143,#15);
#15=ADVANCED_BREP_SHAPE_REPRESENTATION('',(#139),#244);
#16=LINE('',#218,#20);
#17=LINE('',#220,#21);
#18=LINE('',#222,#22);
#19=LINE('',#224,#23);
#20=VECTOR('',#176,1.);
#21=VECTOR('',#179,1.);
#22=VECTOR('',#180,1.);
#23=VECTOR('',#181,1.);
#24=PLANE('',#148);
#25=PLANE('',#150);
#26=PLANE('',#153);
#27=PLANE('',#154);
#28=PLANE('',#157);
#29=PLANE('',#160);
#30=ORIENTED_EDGE('',*,*,#54,.F.);
#31=ORIENTED_EDGE('',*,*,#55,.F.);
#32=ORIENTED_EDGE('',*,*,#54,.T.);
#33=ORIENTED_EDGE('',*,*,#56,.F.);
#34=ORIENTED_EDGE('',*,*,#57,.T.);
#35=ORIENTED_EDGE('',*,*,#57,.F.);
#36=ORIENTED_EDGE('',*,*,#58,.F.);
#37=ORIENTED_EDGE('',*,*,#59,.T.);
#38=ORIENTED_EDGE('',*,*,#60,.T.);
#39=ORIENTED_EDGE('',*,*,#56,.T.);
#40=ORIENTED_EDGE('',*,*,#60,.F.);
#41=ORIENTED_EDGE('',*,*,#61,.F.);
#42=ORIENTED_EDGE('',*,*,#58,.T.);
#43=ORIENTED_EDGE('',*,*,#59,.F.);
#44=ORIENTED_EDGE('',*,*,#61,.T.);
#45=ORIENTED_EDGE('',*,*,#62,.F.);
#46=ORIENTED_EDGE('',*,*,#63,.F.);
#47=ORIENTED_EDGE('',*,*,#64,.T.);
#48=ORIENTED_EDGE('',*,*,#55,.T.);
#49=ORIENTED_EDGE('',*,*,#64,.F.);
#50=ORIENTED_EDGE('',*,*,#62,.T.);
#51=ORIENTED_EDGE('',*,*,#65,.F.);
#52=ORIENTED_EDGE('',*,*,#63,.T.);
#53=ORIENTED_EDGE('',*,*,#65,.T.);
#54=EDGE_CURVE('',#66,#66,#76,.T.);
#55=EDGE_CURVE('',#67,#67,#77,.T.);
#56=EDGE_CURVE('',#68,#69,#78,.T.);
#57=EDGE_CURVE('',#68,#69,#16,.T.);
#58=EDGE_CURVE('',#70,#68,#17,.T.);
#59=EDGE_CURVE('',#70,#71,#18,.T.);
#60=EDGE_CURVE('',#71,#69,#19,.T.);
#61=EDGE_CURVE('',#70,#71,#79,.T.);
#62=EDGE_CURVE('',#72,#72,#80,.T.);
#63=EDGE_CURVE('',#73,#73,#81,.T.);
#64=EDGE_CURVE('',#74,#74,#82,.T.);
#65=EDGE_CURVE('',#75,#75,#83,.T.);
#66=VERTEX_POINT('',#211);
#67=VERTEX_POINT('',#213);
#68=VERTEX_POINT('',#216);
#69=VERTEX_POINT('',#217);
#70=VERTEX_POINT('',#221);
#71=VERTEX_POINT('',#223);
#72=VERTEX_POINT('',#230);
#73=VERTEX_POINT('',#232);
#74=VERTEX_POINT('',#235);
#75=VERTEX_POINT('',#239);
#76=CIRCLE('',#146,0.0075);
#77=CIRCLE('',#147,0.0075);
#78=CIRCLE('',#149,0.0015);
#79=CIRCLE('',#152,0.0015);
#80=CIRCLE('',#155,0.00654574640835616);
#81=CIRCLE('',#156,0.0075);
#82=CIRCLE('',#158,0.00654574640835616);
#83=CIRCLE('',#161,0.0075);
#84=EDGE_LOOP('',(#30));
#85=EDGE_LOOP('',(#31));
#86=EDGE_LOOP('',(#32));
#87=EDGE_LOOP('',(#33,#34));
#88=EDGE_LOOP('',(#35,#36,#37,#38));
#89=EDGE_LOOP('',(#39,#40,#41,#42));
#90=EDGE_LOOP('',(#43,#44));
#91=EDGE_LOOP('',(#45));
#92=EDGE_LOOP('',(#46));
#93=EDGE_LOOP('',(#47));
#94=EDGE_LOOP('',(#48));
#95=EDGE_LOOP('',(#49));
#96=EDGE_LOOP('',(#50));
#97=EDGE_LOOP('',(#51));
#98=EDGE_LOOP('',(#52));
#99=EDGE_LOOP('',(#53));
#100=FACE_BOUND('',#84,.T.);
#101=FACE_BOUND('',#85,.T.);
#102=FACE_BOUND('',#86,.T.);
#103=FACE_BOUND('',#87,.T.);
#104=FACE_BOUND('',#88,.T.);
#105=FACE_BOUND('',#89,.T.);
#106=FACE_BOUND('',#90,.T.);
#107=FACE_BOUND('',#91,.T.);
#108=FACE_BOUND('',#92,.T.);
#109=FACE_BOUND('',#93,.T.);
#110=FACE_BOUND('',#94,.T.);
#111=FACE_BOUND('',#95,.T.);
#112=FACE_BOUND('',#96,.T.);
#113=FACE_BOUND('',#97,.T.);
#114=FACE_BOUND('',#98,.T.);
#115=FACE_BOUND('',#99,.T.);
#116=CYLINDRICAL_SURFACE('',#145,0.0075);
#117=CYLINDRICAL_SURFACE('',#151,0.0015);
#118=CYLINDRICAL_SURFACE('',#159,0.00654574640835616);
#119=CYLINDRICAL_SURFACE('',#162,0.0075);
#120=ADVANCED_FACE('',(#100,#101),#116,.T.);
#121=ADVANCED_FACE('',(#102,#103),#24,.T.);
#122=ADVANCED_FACE('',(#104),#25,.T.);
#123=ADVANCED_FACE('',(#105),#117,.F.);
#124=ADVANCED_FACE('',(#106),#26,.T.);
#125=ADVANCED_FACE('',(#107,#108),#27,.F.);
#126=ADVANCED_FACE('',(#109,#110),#28,.T.);
#127=ADVANCED_FACE('',(#111,#112),#118,.T.);
#128=ADVANCED_FACE('',(#113),#29,.F.);
#129=ADVANCED_FACE('',(#114,#115),#119,.T.);
#130=CLOSED_SHELL('',(#120,#121,#122,#123,#124,#125,#126,#127,#128,#129));
#131=STYLED_ITEM('',(#132),#139);
#132=PRESENTATION_STYLE_ASSIGNMENT((#133));
#133=SURFACE_STYLE_USAGE(.BOTH.,#134);
#134=SURFACE_SIDE_STYLE('',(#135));
#135=SURFACE_STYLE_FILL_AREA(#136);
#136=FILL_AREA_STYLE('',(#137));
#137=FILL_AREA_STYLE_COLOUR('',#138);
#138=COLOUR_RGB('',0.301960784313725,0.290196078431373,0.262745098039216);
#139=MANIFOLD_SOLID_BREP('Part 1',#130);
#140=SHAPE_DEFINITION_REPRESENTATION(#250,#142);
#141=SHAPE_DEFINITION_REPRESENTATION(#251,#143);
#142=SHAPE_REPRESENTATION('Assembly 1',(#144,#163),#243);
#143=SHAPE_REPRESENTATION('Part 1',(#144),#244);
#144=AXIS2_PLACEMENT_3D('',#208,#164,#165);
#145=AXIS2_PLACEMENT_3D('',#209,#166,#167);
#146=AXIS2_PLACEMENT_3D('',#210,#168,#169);
#147=AXIS2_PLACEMENT_3D('',#212,#170,#171);
#148=AXIS2_PLACEMENT_3D('',#214,#172,#173);
#149=AXIS2_PLACEMENT_3D('',#215,#174,#175);
#150=AXIS2_PLACEMENT_3D('',#219,#177,#178);
#151=AXIS2_PLACEMENT_3D('',#225,#182,#183);
#152=AXIS2_PLACEMENT_3D('',#226,#184,#185);
#153=AXIS2_PLACEMENT_3D('',#227,#186,#187);
#154=AXIS2_PLACEMENT_3D('',#228,#188,#189);
#155=AXIS2_PLACEMENT_3D('',#229,#190,#191);
#156=AXIS2_PLACEMENT_3D('',#231,#192,#193);
#157=AXIS2_PLACEMENT_3D('',#233,#194,#195);
#158=AXIS2_PLACEMENT_3D('',#234,#196,#197);
#159=AXIS2_PLACEMENT_3D('',#236,#198,#199);
#160=AXIS2_PLACEMENT_3D('',#237,#200,#201);
#161=AXIS2_PLACEMENT_3D('',#238,#202,#203);
#162=AXIS2_PLACEMENT_3D('',#240,#204,#205);
#163=AXIS2_PLACEMENT_3D('',#241,#206,#207);
#164=DIRECTION('',(0.,0.,1.));
#165=DIRECTION('',(1.,0.,0.));
#166=DIRECTION('',(0.,0.,-1.));
#167=DIRECTION('',(-1.,0.,0.));
#168=DIRECTION('',(0.,0.,1.));
#169=DIRECTION('',(1.,0.,0.));
#170=DIRECTION('',(0.,0.,-1.));
#171=DIRECTION('',(-1.,0.,0.));
#172=DIRECTION('',(0.,0.,1.));
#173=DIRECTION('',(1.,0.,0.));
#174=DIRECTION('',(0.,0.,1.));
#175=DIRECTION('',(1.,0.,0.));
#176=DIRECTION('',(-1.91301662547068E-16,-1.,0.));
#177=DIRECTION('',(-1.,1.91301662547068E-16,0.));
#178=DIRECTION('',(-1.91301662547068E-16,-1.,0.));
#179=DIRECTION('',(0.,0.,1.));
#180=DIRECTION('',(-1.91301662547068E-16,-1.,0.));
#181=DIRECTION('',(0.,0.,1.));
#182=DIRECTION('',(0.,0.,1.));
#183=DIRECTION('',(1.,0.,0.));
#184=DIRECTION('',(0.,0.,1.));
#185=DIRECTION('',(1.,0.,0.));
#186=DIRECTION('',(0.,0.,1.));
#187=DIRECTION('',(1.,0.,0.));
#188=DIRECTION('',(0.,0.,-1.));
#189=DIRECTION('',(-1.,0.,0.));
#190=DIRECTION('',(0.,0.,1.));
#191=DIRECTION('',(1.,0.,0.));
#192=DIRECTION('',(0.,0.,-1.));
#193=DIRECTION('',(-1.,0.,0.));
#194=DIRECTION('',(0.,0.,-1.));
#195=DIRECTION('',(-1.,0.,0.));
#196=DIRECTION('',(0.,0.,1.));
#197=DIRECTION('',(1.,0.,0.));
#198=DIRECTION('',(0.,0.,1.));
#199=DIRECTION('',(1.,0.,0.));
#200=DIRECTION('',(0.,0.,1.));
#201=DIRECTION('',(1.,0.,0.));
#202=DIRECTION('',(0.,0.,1.));
#203=DIRECTION('',(1.,0.,0.));
#204=DIRECTION('',(0.,0.,-1.));
#205=DIRECTION('',(-1.,0.,0.));
#206=DIRECTION('',(0.,0.,1.));
#207=DIRECTION('',(1.,0.,0.));
#208=CARTESIAN_POINT('',(0.,0.,0.));
#209=CARTESIAN_POINT('',(0.,4.59242549680257E-19,0.007));
#210=CARTESIAN_POINT('',(0.,4.59242549680257E-19,0.007));
#211=CARTESIAN_POINT('',(0.0075,4.59242549680257E-19,0.007));
#212=CARTESIAN_POINT('',(0.,4.59242549680257E-19,0.00459229215142497));
#213=CARTESIAN_POINT('',(-0.0075,4.59242549680257E-19,0.00459229215142497));
#214=CARTESIAN_POINT('',(0.,0.,0.007));
#215=CARTESIAN_POINT('',(4.33680868994202E-19,9.11692408547786E-20,0.007));
#216=CARTESIAN_POINT('',(0.000982434603421519,0.0011335,0.007));
#217=CARTESIAN_POINT('',(0.000982434603421517,-0.0011335,0.007));
#218=CARTESIAN_POINT('',(0.000982434603421518,1.7347234759768E-18,0.007));
#219=CARTESIAN_POINT('',(0.000982434603421518,1.7347234759768E-18,0.002));
#220=CARTESIAN_POINT('',(0.000982434603421519,0.0011335,0.002));
#221=CARTESIAN_POINT('',(0.000982434603421519,0.0011335,0.002));
#222=CARTESIAN_POINT('',(0.000982434603421518,1.7347234759768E-18,0.002));
#223=CARTESIAN_POINT('',(0.000982434603421517,-0.0011335,0.002));
#224=CARTESIAN_POINT('',(0.000982434603421517,-0.0011335,0.002));
#225=CARTESIAN_POINT('',(4.33680868994202E-19,9.11692408547786E-20,0.002));
#226=CARTESIAN_POINT('',(4.33680868994202E-19,9.11692408547786E-20,0.002));
#227=CARTESIAN_POINT('',(0.,0.,0.002));
#228=CARTESIAN_POINT('',(-0.00704574640835616,0.,0.00259229215142497));
#229=CARTESIAN_POINT('',(0.,4.59242549680257E-19,0.00259229215142497));
#230=CARTESIAN_POINT('',(0.00654574640835616,4.59242549680257E-19,0.00259229215142497));
#231=CARTESIAN_POINT('',(0.,4.59242549680257E-19,0.00259229215142497));
#232=CARTESIAN_POINT('',(-0.0075,4.59242549680257E-19,0.00259229215142497));
#233=CARTESIAN_POINT('',(-0.00704574640835616,0.,0.00459229215142497));
#234=CARTESIAN_POINT('',(0.,4.59242549680257E-19,0.00459229215142497));
#235=CARTESIAN_POINT('',(0.00654574640835616,4.59242549680257E-19,0.00459229215142497));
#236=CARTESIAN_POINT('',(0.,4.59242549680257E-19,0.0035));
#237=CARTESIAN_POINT('',(0.,0.,0.));
#238=CARTESIAN_POINT('',(0.,4.59242549680257E-19,0.));
#239=CARTESIAN_POINT('',(0.0075,4.59242549680257E-19,0.));
#240=CARTESIAN_POINT('',(0.,4.59242549680257E-19,0.007));
#241=CARTESIAN_POINT('',(0.000385924737202003,0.00106028537265956,-0.00224379264656455));
#242=MECHANICAL_DESIGN_GEOMETRIC_PRESENTATION_REPRESENTATION('',(#131),
#243);
#243=(
GEOMETRIC_REPRESENTATION_CONTEXT(3)
GLOBAL_UNCERTAINTY_ASSIGNED_CONTEXT((#245))
GLOBAL_UNIT_ASSIGNED_CONTEXT((#249,#248,#247))
REPRESENTATION_CONTEXT('Assembly 1','TOP_LEVEL_ASSEMBLY_PART')
);
#244=(
GEOMETRIC_REPRESENTATION_CONTEXT(3)
GLOBAL_UNCERTAINTY_ASSIGNED_CONTEXT((#246))
GLOBAL_UNIT_ASSIGNED_CONTEXT((#249,#248,#247))
REPRESENTATION_CONTEXT('Part 1','COMPONENT_PART')
);
#245=UNCERTAINTY_MEASURE_WITH_UNIT(LENGTH_MEASURE(1.E-8),#249,
'DISTANCE_ACCURACY_VALUE','Maximum Tolerance applied to model');
#246=UNCERTAINTY_MEASURE_WITH_UNIT(LENGTH_MEASURE(1.E-8),#249,
'DISTANCE_ACCURACY_VALUE','Maximum Tolerance applied to model');
#247=(
NAMED_UNIT(*)
SI_UNIT($,.STERADIAN.)
SOLID_ANGLE_UNIT()
);
#248=(
NAMED_UNIT(*)
PLANE_ANGLE_UNIT()
SI_UNIT($,.RADIAN.)
);
#249=(
LENGTH_UNIT()
NAMED_UNIT(*)
SI_UNIT($,.METRE.)
);
#250=PRODUCT_DEFINITION_SHAPE('','',#253);
#251=PRODUCT_DEFINITION_SHAPE('','',#254);
#252=PRODUCT_DEFINITION_SHAPE(' ','NAUO PRDDFN',#11);
#253=PRODUCT_DEFINITION('','',#257,#255);
#254=PRODUCT_DEFINITION('','',#258,#256);
#255=PRODUCT_DEFINITION_CONTEXT('',#268,'design');
#256=PRODUCT_DEFINITION_CONTEXT('',#268,'design');
#257=PRODUCT_DEFINITION_FORMATION_WITH_SPECIFIED_SOURCE('','',#261,
 .NOT_KNOWN.);
#258=PRODUCT_DEFINITION_FORMATION_WITH_SPECIFIED_SOURCE('','',#262,
 .NOT_KNOWN.);
#259=PRODUCT_RELATED_PRODUCT_CATEGORY('','',(#261));
#260=PRODUCT_RELATED_PRODUCT_CATEGORY('','',(#262));
#261=PRODUCT('Assembly 1','Assembly 1','Assembly 1',(#265));
#262=PRODUCT('Part 1','Part 1','Part 1',(#266));
#263=PRODUCT_CATEGORY('','');
#264=PRODUCT_CATEGORY('','');
#265=PRODUCT_CONTEXT('',#268,'mechanical');
#266=PRODUCT_CONTEXT('',#268,'mechanical');
#267=APPLICATION_PROTOCOL_DEFINITION('international standard',
'ap242_managed_model_based_3d_engineering',2020,#268);
#268=APPLICATION_CONTEXT('managed model based 3d engineering');
ENDSEC;
END-ISO-10303-21;
