ISO-10303-21;
HEADER;
/* Generated by software containing ST-Developer
 * from STEP Tools, Inc. (www.steptools.com) 
 */
/* OPTION: using custom renumber hook */

FILE_DESCRIPTION(
/* description */ ('STEP AP242 Edition 2',
'CAx-IF Rec.Pracs.---Representation and Presentation of Product Manufa
cturing Information (PMI)---4.0---2014-10-13',
'CAx-IF Rec.Pracs.---3D Tessellated Geometry---0.4---2014-09-14','2;1',
'CAx-IF Rec.Pracs.---User Defined Attributes---1.5---2016-08-15'),
/* implementation_level */ '2;1');

FILE_NAME(
/* name */ '6a32d7a5fc247f6640c6b257',
/* time_stamp */ '2026-06-17T17:21:42Z',
/* author */ (''),
/* organization */ (''),
/* preprocessor_version */ 'ST-DEVELOPER v20',
/* originating_system */ 'ONSHAPE BY PTC INC, 1.216',
/* authorisation */ '  ');

FILE_SCHEMA (('AP242_MANAGED_MODEL_BASED_3D_ENGINEERING_MIM_LF { 1 0 10303 442 3 1 4 }'));
ENDSEC;

DATA;
#10=CONTEXT_DEPENDENT_SHAPE_REPRESENTATION(#12,#1582);
#11=NEXT_ASSEMBLY_USAGE_OCCURRENCE('NAUO1','Part 2','Part 2',#1583,#1584,
'');
#12=(
REPRESENTATION_RELATIONSHIP(' ',' ',#935,#934)
REPRESENTATION_RELATIONSHIP_WITH_TRANSFORMATION(#13)
SHAPE_REPRESENTATION_RELATIONSHIP()
);
#13=ITEM_DEFINED_TRANSFORMATION(' ',' ',#936,#1040);
#14=SHAPE_REPRESENTATION_RELATIONSHIP('','',#935,#15);
#15=ADVANCED_BREP_SHAPE_REPRESENTATION('',(#931),#1574);
#16=SPHERICAL_SURFACE('',#1023,0.001);
#17=SPHERICAL_SURFACE('',#1025,0.001);
#18=SPHERICAL_SURFACE('',#1035,0.001);
#19=SPHERICAL_SURFACE('',#1037,0.001);
#20=CYLINDRICAL_SURFACE('',#978,0.00175);
#21=CYLINDRICAL_SURFACE('',#979,0.00175);
#22=CYLINDRICAL_SURFACE('',#980,0.00175);
#23=CYLINDRICAL_SURFACE('',#981,0.00175);
#24=CYLINDRICAL_SURFACE('',#986,0.00075);
#25=CYLINDRICAL_SURFACE('',#989,0.00075);
#26=CYLINDRICAL_SURFACE('',#992,0.00075);
#27=CYLINDRICAL_SURFACE('',#995,0.00075);
#28=CYLINDRICAL_SURFACE('',#998,0.00075);
#29=CYLINDRICAL_SURFACE('',#1001,0.00075);
#30=CYLINDRICAL_SURFACE('',#1004,0.00075);
#31=CYLINDRICAL_SURFACE('',#1007,0.00075);
#32=CYLINDRICAL_SURFACE('',#1010,0.00075);
#33=CYLINDRICAL_SURFACE('',#1013,0.00075);
#34=CYLINDRICAL_SURFACE('',#1016,0.001);
#35=CYLINDRICAL_SURFACE('',#1018,0.001);
#36=CYLINDRICAL_SURFACE('',#1020,0.001);
#37=CYLINDRICAL_SURFACE('',#1027,0.001);
#38=CYLINDRICAL_SURFACE('',#1029,0.001);
#39=CYLINDRICAL_SURFACE('',#1031,0.001);
#40=CYLINDRICAL_SURFACE('',#1033,0.001);
#41=CYLINDRICAL_SURFACE('',#1039,0.001);
#42=CIRCLE('',#938,0.00175);
#43=CIRCLE('',#939,0.00175);
#44=CIRCLE('',#942,0.00075);
#45=CIRCLE('',#943,0.00075);
#46=CIRCLE('',#944,0.00075);
#47=CIRCLE('',#945,0.00075);
#48=CIRCLE('',#946,0.00075);
#49=CIRCLE('',#947,0.00075);
#50=CIRCLE('',#948,0.00075);
#51=CIRCLE('',#949,0.00075);
#52=CIRCLE('',#950,0.00075);
#53=CIRCLE('',#951,0.00075);
#54=CIRCLE('',#952,0.001);
#55=CIRCLE('',#953,0.001);
#56=CIRCLE('',#954,0.001);
#57=CIRCLE('',#955,0.001);
#58=CIRCLE('',#958,0.00175);
#59=CIRCLE('',#959,0.00175);
#60=CIRCLE('',#962,0.00175);
#61=CIRCLE('',#963,0.00175);
#62=CIRCLE('',#966,0.00175);
#63=CIRCLE('',#967,0.00175);
#64=CIRCLE('',#987,0.00075);
#65=CIRCLE('',#990,0.00075);
#66=CIRCLE('',#993,0.00075);
#67=CIRCLE('',#996,0.00075);
#68=CIRCLE('',#999,0.00075);
#69=CIRCLE('',#1002,0.00075);
#70=CIRCLE('',#1005,0.00075);
#71=CIRCLE('',#1008,0.00075);
#72=CIRCLE('',#1011,0.00075);
#73=CIRCLE('',#1014,0.00075);
#74=CIRCLE('',#1017,0.001);
#75=CIRCLE('',#1019,0.001);
#76=CIRCLE('',#1021,0.001);
#77=CIRCLE('',#1022,0.001);
#78=CIRCLE('',#1024,0.001);
#79=CIRCLE('',#1026,0.001);
#80=CIRCLE('',#1028,0.001);
#81=CIRCLE('',#1030,0.001);
#82=CIRCLE('',#1032,0.001);
#83=CIRCLE('',#1034,0.001);
#84=CIRCLE('',#1036,0.001);
#85=CIRCLE('',#1038,0.001);
#86=ORIENTED_EDGE('',*,*,#310,.F.);
#87=ORIENTED_EDGE('',*,*,#311,.F.);
#88=ORIENTED_EDGE('',*,*,#312,.T.);
#89=ORIENTED_EDGE('',*,*,#313,.T.);
#90=ORIENTED_EDGE('',*,*,#314,.T.);
#91=ORIENTED_EDGE('',*,*,#315,.T.);
#92=ORIENTED_EDGE('',*,*,#316,.F.);
#93=ORIENTED_EDGE('',*,*,#317,.F.);
#94=ORIENTED_EDGE('',*,*,#318,.T.);
#95=ORIENTED_EDGE('',*,*,#319,.T.);
#96=ORIENTED_EDGE('',*,*,#320,.F.);
#97=ORIENTED_EDGE('',*,*,#321,.T.);
#98=ORIENTED_EDGE('',*,*,#322,.F.);
#99=ORIENTED_EDGE('',*,*,#323,.F.);
#100=ORIENTED_EDGE('',*,*,#324,.T.);
#101=ORIENTED_EDGE('',*,*,#325,.T.);
#102=ORIENTED_EDGE('',*,*,#326,.F.);
#103=ORIENTED_EDGE('',*,*,#327,.F.);
#104=ORIENTED_EDGE('',*,*,#328,.F.);
#105=ORIENTED_EDGE('',*,*,#329,.F.);
#106=ORIENTED_EDGE('',*,*,#330,.F.);
#107=ORIENTED_EDGE('',*,*,#331,.F.);
#108=ORIENTED_EDGE('',*,*,#332,.F.);
#109=ORIENTED_EDGE('',*,*,#333,.F.);
#110=ORIENTED_EDGE('',*,*,#334,.F.);
#111=ORIENTED_EDGE('',*,*,#335,.F.);
#112=ORIENTED_EDGE('',*,*,#336,.F.);
#113=ORIENTED_EDGE('',*,*,#337,.F.);
#114=ORIENTED_EDGE('',*,*,#338,.T.);
#115=ORIENTED_EDGE('',*,*,#339,.T.);
#116=ORIENTED_EDGE('',*,*,#340,.T.);
#117=ORIENTED_EDGE('',*,*,#341,.T.);
#118=ORIENTED_EDGE('',*,*,#342,.F.);
#119=ORIENTED_EDGE('',*,*,#343,.T.);
#120=ORIENTED_EDGE('',*,*,#344,.F.);
#121=ORIENTED_EDGE('',*,*,#345,.T.);
#122=ORIENTED_EDGE('',*,*,#346,.F.);
#123=ORIENTED_EDGE('',*,*,#347,.T.);
#124=ORIENTED_EDGE('',*,*,#348,.T.);
#125=ORIENTED_EDGE('',*,*,#313,.F.);
#126=ORIENTED_EDGE('',*,*,#349,.T.);
#127=ORIENTED_EDGE('',*,*,#350,.T.);
#128=ORIENTED_EDGE('',*,*,#344,.T.);
#129=ORIENTED_EDGE('',*,*,#351,.T.);
#130=ORIENTED_EDGE('',*,*,#352,.F.);
#131=ORIENTED_EDGE('',*,*,#353,.F.);
#132=ORIENTED_EDGE('',*,*,#354,.T.);
#133=ORIENTED_EDGE('',*,*,#355,.T.);
#134=ORIENTED_EDGE('',*,*,#338,.F.);
#135=ORIENTED_EDGE('',*,*,#356,.T.);
#136=ORIENTED_EDGE('',*,*,#340,.F.);
#137=ORIENTED_EDGE('',*,*,#357,.T.);
#138=ORIENTED_EDGE('',*,*,#358,.T.);
#139=ORIENTED_EDGE('',*,*,#359,.T.);
#140=ORIENTED_EDGE('',*,*,#360,.F.);
#141=ORIENTED_EDGE('',*,*,#361,.F.);
#142=ORIENTED_EDGE('',*,*,#362,.T.);
#143=ORIENTED_EDGE('',*,*,#363,.T.);
#144=ORIENTED_EDGE('',*,*,#342,.T.);
#145=ORIENTED_EDGE('',*,*,#364,.T.);
#146=ORIENTED_EDGE('',*,*,#365,.T.);
#147=ORIENTED_EDGE('',*,*,#366,.T.);
#148=ORIENTED_EDGE('',*,*,#367,.T.);
#149=ORIENTED_EDGE('',*,*,#368,.T.);
#150=ORIENTED_EDGE('',*,*,#369,.T.);
#151=ORIENTED_EDGE('',*,*,#370,.T.);
#152=ORIENTED_EDGE('',*,*,#347,.F.);
#153=ORIENTED_EDGE('',*,*,#371,.F.);
#154=ORIENTED_EDGE('',*,*,#372,.F.);
#155=ORIENTED_EDGE('',*,*,#373,.T.);
#156=ORIENTED_EDGE('',*,*,#374,.T.);
#157=ORIENTED_EDGE('',*,*,#375,.F.);
#158=ORIENTED_EDGE('',*,*,#376,.F.);
#159=ORIENTED_EDGE('',*,*,#377,.F.);
#160=ORIENTED_EDGE('',*,*,#346,.T.);
#161=ORIENTED_EDGE('',*,*,#312,.F.);
#162=ORIENTED_EDGE('',*,*,#378,.F.);
#163=ORIENTED_EDGE('',*,*,#371,.T.);
#164=ORIENTED_EDGE('',*,*,#348,.F.);
#165=ORIENTED_EDGE('',*,*,#370,.F.);
#166=ORIENTED_EDGE('',*,*,#379,.T.);
#167=ORIENTED_EDGE('',*,*,#310,.T.);
#168=ORIENTED_EDGE('',*,*,#379,.F.);
#169=ORIENTED_EDGE('',*,*,#369,.F.);
#170=ORIENTED_EDGE('',*,*,#378,.T.);
#171=ORIENTED_EDGE('',*,*,#311,.T.);
#172=ORIENTED_EDGE('',*,*,#380,.T.);
#173=ORIENTED_EDGE('',*,*,#326,.T.);
#174=ORIENTED_EDGE('',*,*,#381,.F.);
#175=ORIENTED_EDGE('',*,*,#382,.F.);
#176=ORIENTED_EDGE('',*,*,#383,.T.);
#177=ORIENTED_EDGE('',*,*,#322,.T.);
#178=ORIENTED_EDGE('',*,*,#384,.F.);
#179=ORIENTED_EDGE('',*,*,#385,.F.);
#180=ORIENTED_EDGE('',*,*,#383,.F.);
#181=ORIENTED_EDGE('',*,*,#386,.F.);
#182=ORIENTED_EDGE('',*,*,#387,.T.);
#183=ORIENTED_EDGE('',*,*,#323,.T.);
#184=ORIENTED_EDGE('',*,*,#388,.T.);
#185=ORIENTED_EDGE('',*,*,#389,.T.);
#186=ORIENTED_EDGE('',*,*,#382,.T.);
#187=ORIENTED_EDGE('',*,*,#390,.F.);
#188=ORIENTED_EDGE('',*,*,#391,.F.);
#189=ORIENTED_EDGE('',*,*,#386,.T.);
#190=ORIENTED_EDGE('',*,*,#385,.T.);
#191=ORIENTED_EDGE('',*,*,#392,.F.);
#192=ORIENTED_EDGE('',*,*,#381,.T.);
#193=ORIENTED_EDGE('',*,*,#325,.F.);
#194=ORIENTED_EDGE('',*,*,#393,.F.);
#195=ORIENTED_EDGE('',*,*,#390,.T.);
#196=ORIENTED_EDGE('',*,*,#387,.F.);
#197=ORIENTED_EDGE('',*,*,#391,.T.);
#198=ORIENTED_EDGE('',*,*,#393,.T.);
#199=ORIENTED_EDGE('',*,*,#324,.F.);
#200=ORIENTED_EDGE('',*,*,#384,.T.);
#201=ORIENTED_EDGE('',*,*,#321,.F.);
#202=ORIENTED_EDGE('',*,*,#394,.F.);
#203=ORIENTED_EDGE('',*,*,#392,.T.);
#204=ORIENTED_EDGE('',*,*,#380,.F.);
#205=ORIENTED_EDGE('',*,*,#389,.F.);
#206=ORIENTED_EDGE('',*,*,#395,.T.);
#207=ORIENTED_EDGE('',*,*,#327,.T.);
#208=ORIENTED_EDGE('',*,*,#394,.T.);
#209=ORIENTED_EDGE('',*,*,#320,.T.);
#210=ORIENTED_EDGE('',*,*,#395,.F.);
#211=ORIENTED_EDGE('',*,*,#388,.F.);
#212=ORIENTED_EDGE('',*,*,#353,.T.);
#213=ORIENTED_EDGE('',*,*,#314,.F.);
#214=ORIENTED_EDGE('',*,*,#352,.T.);
#215=ORIENTED_EDGE('',*,*,#315,.F.);
#216=ORIENTED_EDGE('',*,*,#377,.T.);
#217=ORIENTED_EDGE('',*,*,#361,.T.);
#218=ORIENTED_EDGE('',*,*,#376,.T.);
#219=ORIENTED_EDGE('',*,*,#360,.T.);
#220=ORIENTED_EDGE('',*,*,#396,.F.);
#221=ORIENTED_EDGE('',*,*,#318,.F.);
#222=ORIENTED_EDGE('',*,*,#397,.T.);
#223=ORIENTED_EDGE('',*,*,#372,.T.);
#224=ORIENTED_EDGE('',*,*,#316,.T.);
#225=ORIENTED_EDGE('',*,*,#398,.T.);
#226=ORIENTED_EDGE('',*,*,#374,.F.);
#227=ORIENTED_EDGE('',*,*,#399,.F.);
#228=ORIENTED_EDGE('',*,*,#397,.F.);
#229=ORIENTED_EDGE('',*,*,#317,.T.);
#230=ORIENTED_EDGE('',*,*,#399,.T.);
#231=ORIENTED_EDGE('',*,*,#373,.F.);
#232=ORIENTED_EDGE('',*,*,#396,.T.);
#233=ORIENTED_EDGE('',*,*,#375,.T.);
#234=ORIENTED_EDGE('',*,*,#398,.F.);
#235=ORIENTED_EDGE('',*,*,#319,.F.);
#236=ORIENTED_EDGE('',*,*,#400,.F.);
#237=ORIENTED_EDGE('',*,*,#337,.T.);
#238=ORIENTED_EDGE('',*,*,#400,.T.);
#239=ORIENTED_EDGE('',*,*,#401,.F.);
#240=ORIENTED_EDGE('',*,*,#336,.T.);
#241=ORIENTED_EDGE('',*,*,#401,.T.);
#242=ORIENTED_EDGE('',*,*,#402,.F.);
#243=ORIENTED_EDGE('',*,*,#335,.T.);
#244=ORIENTED_EDGE('',*,*,#402,.T.);
#245=ORIENTED_EDGE('',*,*,#403,.F.);
#246=ORIENTED_EDGE('',*,*,#334,.T.);
#247=ORIENTED_EDGE('',*,*,#403,.T.);
#248=ORIENTED_EDGE('',*,*,#404,.F.);
#249=ORIENTED_EDGE('',*,*,#333,.T.);
#250=ORIENTED_EDGE('',*,*,#404,.T.);
#251=ORIENTED_EDGE('',*,*,#405,.F.);
#252=ORIENTED_EDGE('',*,*,#332,.T.);
#253=ORIENTED_EDGE('',*,*,#405,.T.);
#254=ORIENTED_EDGE('',*,*,#406,.F.);
#255=ORIENTED_EDGE('',*,*,#331,.T.);
#256=ORIENTED_EDGE('',*,*,#406,.T.);
#257=ORIENTED_EDGE('',*,*,#407,.F.);
#258=ORIENTED_EDGE('',*,*,#330,.T.);
#259=ORIENTED_EDGE('',*,*,#407,.T.);
#260=ORIENTED_EDGE('',*,*,#408,.F.);
#261=ORIENTED_EDGE('',*,*,#329,.T.);
#262=ORIENTED_EDGE('',*,*,#408,.T.);
#263=ORIENTED_EDGE('',*,*,#409,.F.);
#264=ORIENTED_EDGE('',*,*,#328,.T.);
#265=ORIENTED_EDGE('',*,*,#409,.T.);
#266=ORIENTED_EDGE('',*,*,#345,.F.);
#267=ORIENTED_EDGE('',*,*,#350,.F.);
#268=ORIENTED_EDGE('',*,*,#410,.F.);
#269=ORIENTED_EDGE('',*,*,#356,.F.);
#270=ORIENTED_EDGE('',*,*,#343,.F.);
#271=ORIENTED_EDGE('',*,*,#363,.F.);
#272=ORIENTED_EDGE('',*,*,#411,.F.);
#273=ORIENTED_EDGE('',*,*,#351,.F.);
#274=ORIENTED_EDGE('',*,*,#412,.F.);
#275=ORIENTED_EDGE('',*,*,#349,.F.);
#276=ORIENTED_EDGE('',*,*,#413,.F.);
#277=ORIENTED_EDGE('',*,*,#368,.F.);
#278=ORIENTED_EDGE('',*,*,#410,.T.);
#279=ORIENTED_EDGE('',*,*,#412,.T.);
#280=ORIENTED_EDGE('',*,*,#414,.F.);
#281=ORIENTED_EDGE('',*,*,#413,.T.);
#282=ORIENTED_EDGE('',*,*,#411,.T.);
#283=ORIENTED_EDGE('',*,*,#415,.F.);
#284=ORIENTED_EDGE('',*,*,#414,.T.);
#285=ORIENTED_EDGE('',*,*,#367,.F.);
#286=ORIENTED_EDGE('',*,*,#416,.F.);
#287=ORIENTED_EDGE('',*,*,#354,.F.);
#288=ORIENTED_EDGE('',*,*,#339,.F.);
#289=ORIENTED_EDGE('',*,*,#355,.F.);
#290=ORIENTED_EDGE('',*,*,#417,.F.);
#291=ORIENTED_EDGE('',*,*,#357,.F.);
#292=ORIENTED_EDGE('',*,*,#341,.F.);
#293=ORIENTED_EDGE('',*,*,#359,.F.);
#294=ORIENTED_EDGE('',*,*,#418,.F.);
#295=ORIENTED_EDGE('',*,*,#364,.F.);
#296=ORIENTED_EDGE('',*,*,#415,.T.);
#297=ORIENTED_EDGE('',*,*,#362,.F.);
#298=ORIENTED_EDGE('',*,*,#419,.F.);
#299=ORIENTED_EDGE('',*,*,#365,.F.);
#300=ORIENTED_EDGE('',*,*,#417,.T.);
#301=ORIENTED_EDGE('',*,*,#416,.T.);
#302=ORIENTED_EDGE('',*,*,#420,.F.);
#303=ORIENTED_EDGE('',*,*,#419,.T.);
#304=ORIENTED_EDGE('',*,*,#418,.T.);
#305=ORIENTED_EDGE('',*,*,#421,.F.);
#306=ORIENTED_EDGE('',*,*,#420,.T.);
#307=ORIENTED_EDGE('',*,*,#366,.F.);
#308=ORIENTED_EDGE('',*,*,#421,.T.);
#309=ORIENTED_EDGE('',*,*,#358,.F.);
#310=EDGE_CURVE('',#422,#423,#502,.T.);
#311=EDGE_CURVE('',#424,#422,#503,.T.);
#312=EDGE_CURVE('',#424,#425,#504,.T.);
#313=EDGE_CURVE('',#425,#423,#505,.T.);
#314=EDGE_CURVE('',#426,#426,#42,.T.);
#315=EDGE_CURVE('',#427,#427,#43,.T.);
#316=EDGE_CURVE('',#428,#429,#506,.T.);
#317=EDGE_CURVE('',#430,#428,#507,.T.);
#318=EDGE_CURVE('',#430,#431,#508,.T.);
#319=EDGE_CURVE('',#431,#429,#509,.T.);
#320=EDGE_CURVE('',#432,#433,#510,.T.);
#321=EDGE_CURVE('',#432,#434,#511,.T.);
#322=EDGE_CURVE('',#435,#434,#512,.T.);
#323=EDGE_CURVE('',#436,#435,#513,.T.);
#324=EDGE_CURVE('',#436,#437,#514,.T.);
#325=EDGE_CURVE('',#437,#438,#515,.T.);
#326=EDGE_CURVE('',#439,#438,#516,.T.);
#327=EDGE_CURVE('',#433,#439,#517,.T.);
#328=EDGE_CURVE('',#440,#440,#44,.T.);
#329=EDGE_CURVE('',#441,#441,#45,.T.);
#330=EDGE_CURVE('',#442,#442,#46,.T.);
#331=EDGE_CURVE('',#443,#443,#47,.T.);
#332=EDGE_CURVE('',#444,#444,#48,.T.);
#333=EDGE_CURVE('',#445,#445,#49,.T.);
#334=EDGE_CURVE('',#446,#446,#50,.T.);
#335=EDGE_CURVE('',#447,#447,#51,.T.);
#336=EDGE_CURVE('',#448,#448,#52,.T.);
#337=EDGE_CURVE('',#449,#449,#53,.T.);
#338=EDGE_CURVE('',#450,#451,#518,.T.);
#339=EDGE_CURVE('',#451,#452,#54,.T.);
#340=EDGE_CURVE('',#452,#453,#519,.T.);
#341=EDGE_CURVE('',#453,#454,#55,.T.);
#342=EDGE_CURVE('',#455,#454,#520,.T.);
#343=EDGE_CURVE('',#455,#456,#56,.T.);
#344=EDGE_CURVE('',#457,#456,#521,.T.);
#345=EDGE_CURVE('',#457,#450,#57,.T.);
#346=EDGE_CURVE('',#458,#425,#522,.T.);
#347=EDGE_CURVE('',#458,#459,#523,.T.);
#348=EDGE_CURVE('',#459,#423,#524,.T.);
#349=EDGE_CURVE('',#460,#461,#525,.F.);
#350=EDGE_CURVE('',#461,#457,#526,.T.);
#351=EDGE_CURVE('',#456,#460,#527,.F.);
#352=EDGE_CURVE('',#462,#462,#58,.T.);
#353=EDGE_CURVE('',#463,#463,#59,.T.);
#354=EDGE_CURVE('',#464,#465,#528,.T.);
#355=EDGE_CURVE('',#465,#451,#529,.T.);
#356=EDGE_CURVE('',#450,#464,#530,.F.);
#357=EDGE_CURVE('',#452,#466,#531,.F.);
#358=EDGE_CURVE('',#466,#467,#532,.T.);
#359=EDGE_CURVE('',#467,#453,#533,.T.);
#360=EDGE_CURVE('',#468,#468,#60,.T.);
#361=EDGE_CURVE('',#469,#469,#61,.T.);
#362=EDGE_CURVE('',#470,#471,#534,.F.);
#363=EDGE_CURVE('',#471,#455,#535,.T.);
#364=EDGE_CURVE('',#454,#470,#536,.F.);
#365=EDGE_CURVE('',#472,#473,#537,.T.);
#366=EDGE_CURVE('',#473,#474,#538,.F.);
#367=EDGE_CURVE('',#474,#475,#539,.F.);
#368=EDGE_CURVE('',#475,#472,#540,.T.);
#369=EDGE_CURVE('',#476,#477,#541,.T.);
#370=EDGE_CURVE('',#477,#459,#542,.T.);
#371=EDGE_CURVE('',#476,#458,#543,.T.);
#372=EDGE_CURVE('',#478,#479,#544,.T.);
#373=EDGE_CURVE('',#478,#480,#545,.T.);
#374=EDGE_CURVE('',#480,#481,#546,.T.);
#375=EDGE_CURVE('',#479,#481,#547,.T.);
#376=EDGE_CURVE('',#482,#482,#62,.T.);
#377=EDGE_CURVE('',#483,#483,#63,.T.);
#378=EDGE_CURVE('',#476,#424,#548,.T.);
#379=EDGE_CURVE('',#477,#422,#549,.T.);
#380=EDGE_CURVE('',#484,#439,#550,.T.);
#381=EDGE_CURVE('',#485,#438,#551,.T.);
#382=EDGE_CURVE('',#484,#485,#552,.T.);
#383=EDGE_CURVE('',#486,#435,#553,.T.);
#384=EDGE_CURVE('',#487,#434,#554,.T.);
#385=EDGE_CURVE('',#486,#487,#555,.T.);
#386=EDGE_CURVE('',#488,#486,#556,.T.);
#387=EDGE_CURVE('',#488,#436,#557,.T.);
#388=EDGE_CURVE('',#489,#490,#558,.T.);
#389=EDGE_CURVE('',#490,#484,#559,.T.);
#390=EDGE_CURVE('',#491,#485,#560,.T.);
#391=EDGE_CURVE('',#488,#491,#561,.T.);
#392=EDGE_CURVE('',#489,#487,#562,.T.);
#393=EDGE_CURVE('',#491,#437,#563,.T.);
#394=EDGE_CURVE('',#489,#432,#564,.T.);
#395=EDGE_CURVE('',#490,#433,#565,.T.);
#396=EDGE_CURVE('',#431,#479,#566,.T.);
#397=EDGE_CURVE('',#430,#478,#567,.T.);
#398=EDGE_CURVE('',#429,#481,#568,.T.);
#399=EDGE_CURVE('',#428,#480,#569,.T.);
#400=EDGE_CURVE('',#492,#492,#64,.T.);
#401=EDGE_CURVE('',#493,#493,#65,.T.);
#402=EDGE_CURVE('',#494,#494,#66,.T.);
#403=EDGE_CURVE('',#495,#495,#67,.T.);
#404=EDGE_CURVE('',#496,#496,#68,.T.);
#405=EDGE_CURVE('',#497,#497,#69,.T.);
#406=EDGE_CURVE('',#498,#498,#70,.T.);
#407=EDGE_CURVE('',#499,#499,#71,.T.);
#408=EDGE_CURVE('',#500,#500,#72,.T.);
#409=EDGE_CURVE('',#501,#501,#73,.T.);
#410=EDGE_CURVE('',#464,#461,#74,.T.);
#411=EDGE_CURVE('',#460,#471,#75,.T.);
#412=EDGE_CURVE('',#461,#475,#76,.T.);
#413=EDGE_CURVE('',#472,#460,#77,.T.);
#414=EDGE_CURVE('',#464,#475,#78,.F.);
#415=EDGE_CURVE('',#472,#471,#79,.F.);
#416=EDGE_CURVE('',#465,#474,#80,.T.);
#417=EDGE_CURVE('',#466,#465,#81,.T.);
#418=EDGE_CURVE('',#470,#467,#82,.T.);
#419=EDGE_CURVE('',#473,#470,#83,.T.);
#420=EDGE_CURVE('',#466,#474,#84,.F.);
#421=EDGE_CURVE('',#473,#467,#85,.F.);
#422=VERTEX_POINT('',#1322);
#423=VERTEX_POINT('',#1323);
#424=VERTEX_POINT('',#1325);
#425=VERTEX_POINT('',#1327);
#426=VERTEX_POINT('',#1330);
#427=VERTEX_POINT('',#1332);
#428=VERTEX_POINT('',#1334);
#429=VERTEX_POINT('',#1335);
#430=VERTEX_POINT('',#1337);
#431=VERTEX_POINT('',#1339);
#432=VERTEX_POINT('',#1343);
#433=VERTEX_POINT('',#1344);
#434=VERTEX_POINT('',#1346);
#435=VERTEX_POINT('',#1348);
#436=VERTEX_POINT('',#1350);
#437=VERTEX_POINT('',#1352);
#438=VERTEX_POINT('',#1354);
#439=VERTEX_POINT('',#1356);
#440=VERTEX_POINT('',#1360);
#441=VERTEX_POINT('',#1362);
#442=VERTEX_POINT('',#1364);
#443=VERTEX_POINT('',#1366);
#444=VERTEX_POINT('',#1368);
#445=VERTEX_POINT('',#1370);
#446=VERTEX_POINT('',#1372);
#447=VERTEX_POINT('',#1374);
#448=VERTEX_POINT('',#1376);
#449=VERTEX_POINT('',#1378);
#450=VERTEX_POINT('',#1380);
#451=VERTEX_POINT('',#1381);
#452=VERTEX_POINT('',#1383);
#453=VERTEX_POINT('',#1385);
#454=VERTEX_POINT('',#1387);
#455=VERTEX_POINT('',#1389);
#456=VERTEX_POINT('',#1391);
#457=VERTEX_POINT('',#1393);
#458=VERTEX_POINT('',#1396);
#459=VERTEX_POINT('',#1398);
#460=VERTEX_POINT('',#1402);
#461=VERTEX_POINT('',#1403);
#462=VERTEX_POINT('',#1408);
#463=VERTEX_POINT('',#1410);
#464=VERTEX_POINT('',#1412);
#465=VERTEX_POINT('',#1413);
#466=VERTEX_POINT('',#1418);
#467=VERTEX_POINT('',#1420);
#468=VERTEX_POINT('',#1424);
#469=VERTEX_POINT('',#1426);
#470=VERTEX_POINT('',#1428);
#471=VERTEX_POINT('',#1429);
#472=VERTEX_POINT('',#1434);
#473=VERTEX_POINT('',#1435);
#474=VERTEX_POINT('',#1437);
#475=VERTEX_POINT('',#1439);
#476=VERTEX_POINT('',#1443);
#477=VERTEX_POINT('',#1444);
#478=VERTEX_POINT('',#1448);
#479=VERTEX_POINT('',#1449);
#480=VERTEX_POINT('',#1451);
#481=VERTEX_POINT('',#1453);
#482=VERTEX_POINT('',#1456);
#483=VERTEX_POINT('',#1458);
#484=VERTEX_POINT('',#1465);
#485=VERTEX_POINT('',#1467);
#486=VERTEX_POINT('',#1470);
#487=VERTEX_POINT('',#1472);
#488=VERTEX_POINT('',#1476);
#489=VERTEX_POINT('',#1480);
#490=VERTEX_POINT('',#1481);
#491=VERTEX_POINT('',#1484);
#492=VERTEX_POINT('',#1509);
#493=VERTEX_POINT('',#1513);
#494=VERTEX_POINT('',#1517);
#495=VERTEX_POINT('',#1521);
#496=VERTEX_POINT('',#1525);
#497=VERTEX_POINT('',#1529);
#498=VERTEX_POINT('',#1533);
#499=VERTEX_POINT('',#1537);
#500=VERTEX_POINT('',#1541);
#501=VERTEX_POINT('',#1545);
#502=LINE('',#1321,#570);
#503=LINE('',#1324,#571);
#504=LINE('',#1326,#572);
#505=LINE('',#1328,#573);
#506=LINE('',#1333,#574);
#507=LINE('',#1336,#575);
#508=LINE('',#1338,#576);
#509=LINE('',#1340,#577);
#510=LINE('',#1342,#578);
#511=LINE('',#1345,#579);
#512=LINE('',#1347,#580);
#513=LINE('',#1349,#581);
#514=LINE('',#1351,#582);
#515=LINE('',#1353,#583);
#516=LINE('',#1355,#584);
#517=LINE('',#1357,#585);
#518=LINE('',#1379,#586);
#519=LINE('',#1384,#587);
#520=LINE('',#1388,#588);
#521=LINE('',#1392,#589);
#522=LINE('',#1395,#590);
#523=LINE('',#1397,#591);
#524=LINE('',#1399,#592);
#525=LINE('',#1401,#593);
#526=LINE('',#1404,#594);
#527=LINE('',#1405,#595);
#528=LINE('',#1411,#596);
#529=LINE('',#1414,#597);
#530=LINE('',#1415,#598);
#531=LINE('',#1417,#599);
#532=LINE('',#1419,#600);
#533=LINE('',#1421,#601);
#534=LINE('',#1427,#602);
#535=LINE('',#1430,#603);
#536=LINE('',#1431,#604);
#537=LINE('',#1433,#605);
#538=LINE('',#1436,#606);
#539=LINE('',#1438,#607);
#540=LINE('',#1440,#608);
#541=LINE('',#1442,#609);
#542=LINE('',#1445,#610);
#543=LINE('',#1446,#611);
#544=LINE('',#1447,#612);
#545=LINE('',#1450,#613);
#546=LINE('',#1452,#614);
#547=LINE('',#1454,#615);
#548=LINE('',#1460,#616);
#549=LINE('',#1462,#617);
#550=LINE('',#1464,#618);
#551=LINE('',#1466,#619);
#552=LINE('',#1468,#620);
#553=LINE('',#1469,#621);
#554=LINE('',#1471,#622);
#555=LINE('',#1473,#623);
#556=LINE('',#1475,#624);
#557=LINE('',#1477,#625);
#558=LINE('',#1479,#626);
#559=LINE('',#1482,#627);
#560=LINE('',#1483,#628);
#561=LINE('',#1485,#629);
#562=LINE('',#1486,#630);
#563=LINE('',#1488,#631);
#564=LINE('',#1491,#632);
#565=LINE('',#1493,#633);
#566=LINE('',#1500,#634);
#567=LINE('',#1501,#635);
#568=LINE('',#1503,#636);
#569=LINE('',#1504,#637);
#570=VECTOR('',#1045,1.);
#571=VECTOR('',#1046,1.);
#572=VECTOR('',#1047,1.);
#573=VECTOR('',#1048,1.);
#574=VECTOR('',#1053,1.);
#575=VECTOR('',#1054,1.);
#576=VECTOR('',#1055,1.);
#577=VECTOR('',#1056,1.);
#578=VECTOR('',#1059,1.);
#579=VECTOR('',#1060,1.);
#580=VECTOR('',#1061,1.);
#581=VECTOR('',#1062,1.);
#582=VECTOR('',#1063,1.);
#583=VECTOR('',#1064,1.);
#584=VECTOR('',#1065,1.);
#585=VECTOR('',#1066,1.);
#586=VECTOR('',#1089,1.);
#587=VECTOR('',#1092,1.);
#588=VECTOR('',#1095,1.);
#589=VECTOR('',#1098,1.);
#590=VECTOR('',#1101,1.);
#591=VECTOR('',#1102,1.);
#592=VECTOR('',#1103,1.);
#593=VECTOR('',#1106,1.);
#594=VECTOR('',#1107,1.);
#595=VECTOR('',#1108,1.);
#596=VECTOR('',#1115,1.);
#597=VECTOR('',#1116,1.);
#598=VECTOR('',#1117,1.);
#599=VECTOR('',#1120,1.);
#600=VECTOR('',#1121,1.);
#601=VECTOR('',#1122,1.);
#602=VECTOR('',#1129,1.);
#603=VECTOR('',#1130,1.);
#604=VECTOR('',#1131,1.);
#605=VECTOR('',#1134,1.);
#606=VECTOR('',#1135,1.);
#607=VECTOR('',#1136,1.);
#608=VECTOR('',#1137,1.);
#609=VECTOR('',#1140,1.);
#610=VECTOR('',#1141,1.);
#611=VECTOR('',#1142,1.);
#612=VECTOR('',#1143,1.);
#613=VECTOR('',#1144,1.);
#614=VECTOR('',#1145,1.);
#615=VECTOR('',#1146,1.);
#616=VECTOR('',#1153,1.);
#617=VECTOR('',#1156,1.);
#618=VECTOR('',#1159,1.);
#619=VECTOR('',#1160,1.);
#620=VECTOR('',#1161,1.);
#621=VECTOR('',#1162,1.);
#622=VECTOR('',#1163,1.);
#623=VECTOR('',#1164,1.);
#624=VECTOR('',#1167,1.);
#625=VECTOR('',#1168,1.);
#626=VECTOR('',#1171,1.);
#627=VECTOR('',#1172,1.);
#628=VECTOR('',#1173,1.);
#629=VECTOR('',#1174,1.);
#630=VECTOR('',#1175,1.);
#631=VECTOR('',#1178,1.);
#632=VECTOR('',#1183,1.);
#633=VECTOR('',#1186,1.);
#634=VECTOR('',#1199,1.);
#635=VECTOR('',#1200,1.);
#636=VECTOR('',#1203,1.);
#637=VECTOR('',#1204,1.);
#638=EDGE_LOOP('',(#86,#87,#88,#89));
#639=EDGE_LOOP('',(#90));
#640=EDGE_LOOP('',(#91));
#641=EDGE_LOOP('',(#92,#93,#94,#95));
#642=EDGE_LOOP('',(#96,#97,#98,#99,#100,#101,#102,#103));
#643=EDGE_LOOP('',(#104));
#644=EDGE_LOOP('',(#105));
#645=EDGE_LOOP('',(#106));
#646=EDGE_LOOP('',(#107));
#647=EDGE_LOOP('',(#108));
#648=EDGE_LOOP('',(#109));
#649=EDGE_LOOP('',(#110));
#650=EDGE_LOOP('',(#111));
#651=EDGE_LOOP('',(#112));
#652=EDGE_LOOP('',(#113));
#653=EDGE_LOOP('',(#114,#115,#116,#117,#118,#119,#120,#121));
#654=EDGE_LOOP('',(#122,#123,#124,#125));
#655=EDGE_LOOP('',(#126,#127,#128,#129));
#656=EDGE_LOOP('',(#130));
#657=EDGE_LOOP('',(#131));
#658=EDGE_LOOP('',(#132,#133,#134,#135));
#659=EDGE_LOOP('',(#136,#137,#138,#139));
#660=EDGE_LOOP('',(#140));
#661=EDGE_LOOP('',(#141));
#662=EDGE_LOOP('',(#142,#143,#144,#145));
#663=EDGE_LOOP('',(#146,#147,#148,#149));
#664=EDGE_LOOP('',(#150,#151,#152,#153));
#665=EDGE_LOOP('',(#154,#155,#156,#157));
#666=EDGE_LOOP('',(#158));
#667=EDGE_LOOP('',(#159));
#668=EDGE_LOOP('',(#160,#161,#162,#163));
#669=EDGE_LOOP('',(#164,#165,#166,#167));
#670=EDGE_LOOP('',(#168,#169,#170,#171));
#671=EDGE_LOOP('',(#172,#173,#174,#175));
#672=EDGE_LOOP('',(#176,#177,#178,#179));
#673=EDGE_LOOP('',(#180,#181,#182,#183));
#674=EDGE_LOOP('',(#184,#185,#186,#187,#188,#189,#190,#191));
#675=EDGE_LOOP('',(#192,#193,#194,#195));
#676=EDGE_LOOP('',(#196,#197,#198,#199));
#677=EDGE_LOOP('',(#200,#201,#202,#203));
#678=EDGE_LOOP('',(#204,#205,#206,#207));
#679=EDGE_LOOP('',(#208,#209,#210,#211));
#680=EDGE_LOOP('',(#212));
#681=EDGE_LOOP('',(#213));
#682=EDGE_LOOP('',(#214));
#683=EDGE_LOOP('',(#215));
#684=EDGE_LOOP('',(#216));
#685=EDGE_LOOP('',(#217));
#686=EDGE_LOOP('',(#218));
#687=EDGE_LOOP('',(#219));
#688=EDGE_LOOP('',(#220,#221,#222,#223));
#689=EDGE_LOOP('',(#224,#225,#226,#227));
#690=EDGE_LOOP('',(#228,#229,#230,#231));
#691=EDGE_LOOP('',(#232,#233,#234,#235));
#692=EDGE_LOOP('',(#236));
#693=EDGE_LOOP('',(#237));
#694=EDGE_LOOP('',(#238));
#695=EDGE_LOOP('',(#239));
#696=EDGE_LOOP('',(#240));
#697=EDGE_LOOP('',(#241));
#698=EDGE_LOOP('',(#242));
#699=EDGE_LOOP('',(#243));
#700=EDGE_LOOP('',(#244));
#701=EDGE_LOOP('',(#245));
#702=EDGE_LOOP('',(#246));
#703=EDGE_LOOP('',(#247));
#704=EDGE_LOOP('',(#248));
#705=EDGE_LOOP('',(#249));
#706=EDGE_LOOP('',(#250));
#707=EDGE_LOOP('',(#251));
#708=EDGE_LOOP('',(#252));
#709=EDGE_LOOP('',(#253));
#710=EDGE_LOOP('',(#254));
#711=EDGE_LOOP('',(#255));
#712=EDGE_LOOP('',(#256));
#713=EDGE_LOOP('',(#257));
#714=EDGE_LOOP('',(#258));
#715=EDGE_LOOP('',(#259));
#716=EDGE_LOOP('',(#260));
#717=EDGE_LOOP('',(#261));
#718=EDGE_LOOP('',(#262));
#719=EDGE_LOOP('',(#263));
#720=EDGE_LOOP('',(#264));
#721=EDGE_LOOP('',(#265));
#722=EDGE_LOOP('',(#266,#267,#268,#269));
#723=EDGE_LOOP('',(#270,#271,#272,#273));
#724=EDGE_LOOP('',(#274,#275,#276,#277));
#725=EDGE_LOOP('',(#278,#279,#280));
#726=EDGE_LOOP('',(#281,#282,#283));
#727=EDGE_LOOP('',(#284,#285,#286,#287));
#728=EDGE_LOOP('',(#288,#289,#290,#291));
#729=EDGE_LOOP('',(#292,#293,#294,#295));
#730=EDGE_LOOP('',(#296,#297,#298,#299));
#731=EDGE_LOOP('',(#300,#301,#302));
#732=EDGE_LOOP('',(#303,#304,#305));
#733=EDGE_LOOP('',(#306,#307,#308,#309));
#734=FACE_BOUND('',#638,.T.);
#735=FACE_BOUND('',#639,.T.);
#736=FACE_BOUND('',#640,.T.);
#737=FACE_BOUND('',#641,.T.);
#738=FACE_BOUND('',#642,.T.);
#739=FACE_BOUND('',#643,.T.);
#740=FACE_BOUND('',#644,.T.);
#741=FACE_BOUND('',#645,.T.);
#742=FACE_BOUND('',#646,.T.);
#743=FACE_BOUND('',#647,.T.);
#744=FACE_BOUND('',#648,.T.);
#745=FACE_BOUND('',#649,.T.);
#746=FACE_BOUND('',#650,.T.);
#747=FACE_BOUND('',#651,.T.);
#748=FACE_BOUND('',#652,.T.);
#749=FACE_BOUND('',#653,.T.);
#750=FACE_BOUND('',#654,.T.);
#751=FACE_BOUND('',#655,.T.);
#752=FACE_BOUND('',#656,.T.);
#753=FACE_BOUND('',#657,.T.);
#754=FACE_BOUND('',#658,.T.);
#755=FACE_BOUND('',#659,.T.);
#756=FACE_BOUND('',#660,.T.);
#757=FACE_BOUND('',#661,.T.);
#758=FACE_BOUND('',#662,.T.);
#759=FACE_BOUND('',#663,.T.);
#760=FACE_BOUND('',#664,.T.);
#761=FACE_BOUND('',#665,.T.);
#762=FACE_BOUND('',#666,.T.);
#763=FACE_BOUND('',#667,.T.);
#764=FACE_BOUND('',#668,.T.);
#765=FACE_BOUND('',#669,.T.);
#766=FACE_BOUND('',#670,.T.);
#767=FACE_BOUND('',#671,.T.);
#768=FACE_BOUND('',#672,.T.);
#769=FACE_BOUND('',#673,.T.);
#770=FACE_BOUND('',#674,.T.);
#771=FACE_BOUND('',#675,.T.);
#772=FACE_BOUND('',#676,.T.);
#773=FACE_BOUND('',#677,.T.);
#774=FACE_BOUND('',#678,.T.);
#775=FACE_BOUND('',#679,.T.);
#776=FACE_BOUND('',#680,.T.);
#777=FACE_BOUND('',#681,.T.);
#778=FACE_BOUND('',#682,.T.);
#779=FACE_BOUND('',#683,.T.);
#780=FACE_BOUND('',#684,.T.);
#781=FACE_BOUND('',#685,.T.);
#782=FACE_BOUND('',#686,.T.);
#783=FACE_BOUND('',#687,.T.);
#784=FACE_BOUND('',#688,.T.);
#785=FACE_BOUND('',#689,.T.);
#786=FACE_BOUND('',#690,.T.);
#787=FACE_BOUND('',#691,.T.);
#788=FACE_BOUND('',#692,.T.);
#789=FACE_BOUND('',#693,.T.);
#790=FACE_BOUND('',#694,.T.);
#791=FACE_BOUND('',#695,.T.);
#792=FACE_BOUND('',#696,.T.);
#793=FACE_BOUND('',#697,.T.);
#794=FACE_BOUND('',#698,.T.);
#795=FACE_BOUND('',#699,.T.);
#796=FACE_BOUND('',#700,.T.);
#797=FACE_BOUND('',#701,.T.);
#798=FACE_BOUND('',#702,.T.);
#799=FACE_BOUND('',#703,.T.);
#800=FACE_BOUND('',#704,.T.);
#801=FACE_BOUND('',#705,.T.);
#802=FACE_BOUND('',#706,.T.);
#803=FACE_BOUND('',#707,.T.);
#804=FACE_BOUND('',#708,.T.);
#805=FACE_BOUND('',#709,.T.);
#806=FACE_BOUND('',#710,.T.);
#807=FACE_BOUND('',#711,.T.);
#808=FACE_BOUND('',#712,.T.);
#809=FACE_BOUND('',#713,.T.);
#810=FACE_BOUND('',#714,.T.);
#811=FACE_BOUND('',#715,.T.);
#812=FACE_BOUND('',#716,.T.);
#813=FACE_BOUND('',#717,.T.);
#814=FACE_BOUND('',#718,.T.);
#815=FACE_BOUND('',#719,.T.);
#816=FACE_BOUND('',#720,.T.);
#817=FACE_BOUND('',#721,.T.);
#818=FACE_BOUND('',#722,.T.);
#819=FACE_BOUND('',#723,.T.);
#820=FACE_BOUND('',#724,.T.);
#821=FACE_BOUND('',#725,.T.);
#822=FACE_BOUND('',#726,.T.);
#823=FACE_BOUND('',#727,.T.);
#824=FACE_BOUND('',#728,.T.);
#825=FACE_BOUND('',#729,.T.);
#826=FACE_BOUND('',#730,.T.);
#827=FACE_BOUND('',#731,.T.);
#828=FACE_BOUND('',#732,.T.);
#829=FACE_BOUND('',#733,.T.);
#830=PLANE('',#937);
#831=PLANE('',#940);
#832=PLANE('',#941);
#833=PLANE('',#956);
#834=PLANE('',#957);
#835=PLANE('',#960);
#836=PLANE('',#961);
#837=PLANE('',#964);
#838=PLANE('',#965);
#839=PLANE('',#968);
#840=PLANE('',#969);
#841=PLANE('',#970);
#842=PLANE('',#971);
#843=PLANE('',#972);
#844=PLANE('',#973);
#845=PLANE('',#974);
#846=PLANE('',#975);
#847=PLANE('',#976);
#848=PLANE('',#977);
#849=PLANE('',#982);
#850=PLANE('',#983);
#851=PLANE('',#984);
#852=PLANE('',#985);
#853=PLANE('',#988);
#854=PLANE('',#991);
#855=PLANE('',#994);
#856=PLANE('',#997);
#857=PLANE('',#1000);
#858=PLANE('',#1003);
#859=PLANE('',#1006);
#860=PLANE('',#1009);
#861=PLANE('',#1012);
#862=PLANE('',#1015);
#863=ADVANCED_FACE('',(#734,#735,#736,#737),#830,.F.);
#864=ADVANCED_FACE('',(#738),#831,.T.);
#865=ADVANCED_FACE('',(#739,#740,#741,#742,#743,#744,#745,#746,#747,#748,
#749,#750),#832,.T.);
#866=ADVANCED_FACE('',(#751),#833,.F.);
#867=ADVANCED_FACE('',(#752,#753,#754),#834,.T.);
#868=ADVANCED_FACE('',(#755),#835,.T.);
#869=ADVANCED_FACE('',(#756,#757,#758),#836,.F.);
#870=ADVANCED_FACE('',(#759),#837,.F.);
#871=ADVANCED_FACE('',(#760,#761,#762,#763),#838,.T.);
#872=ADVANCED_FACE('',(#764),#839,.F.);
#873=ADVANCED_FACE('',(#765),#840,.T.);
#874=ADVANCED_FACE('',(#766,#767,#768),#841,.T.);
#875=ADVANCED_FACE('',(#769),#842,.T.);
#876=ADVANCED_FACE('',(#770),#843,.F.);
#877=ADVANCED_FACE('',(#771),#844,.F.);
#878=ADVANCED_FACE('',(#772),#845,.T.);
#879=ADVANCED_FACE('',(#773),#846,.F.);
#880=ADVANCED_FACE('',(#774),#847,.T.);
#881=ADVANCED_FACE('',(#775),#848,.F.);
#882=ADVANCED_FACE('',(#776,#777),#20,.F.);
#883=ADVANCED_FACE('',(#778,#779),#21,.F.);
#884=ADVANCED_FACE('',(#780,#781),#22,.F.);
#885=ADVANCED_FACE('',(#782,#783),#23,.F.);
#886=ADVANCED_FACE('',(#784),#849,.T.);
#887=ADVANCED_FACE('',(#785),#850,.F.);
#888=ADVANCED_FACE('',(#786),#851,.T.);
#889=ADVANCED_FACE('',(#787),#852,.F.);
#890=ADVANCED_FACE('',(#788,#789),#24,.F.);
#891=ADVANCED_FACE('',(#790),#853,.T.);
#892=ADVANCED_FACE('',(#791,#792),#25,.F.);
#893=ADVANCED_FACE('',(#793),#854,.T.);
#894=ADVANCED_FACE('',(#794,#795),#26,.F.);
#895=ADVANCED_FACE('',(#796),#855,.T.);
#896=ADVANCED_FACE('',(#797,#798),#27,.F.);
#897=ADVANCED_FACE('',(#799),#856,.T.);
#898=ADVANCED_FACE('',(#800,#801),#28,.F.);
#899=ADVANCED_FACE('',(#802),#857,.T.);
#900=ADVANCED_FACE('',(#803,#804),#29,.F.);
#901=ADVANCED_FACE('',(#805),#858,.T.);
#902=ADVANCED_FACE('',(#806,#807),#30,.F.);
#903=ADVANCED_FACE('',(#808),#859,.T.);
#904=ADVANCED_FACE('',(#809,#810),#31,.F.);
#905=ADVANCED_FACE('',(#811),#860,.T.);
#906=ADVANCED_FACE('',(#812,#813),#32,.F.);
#907=ADVANCED_FACE('',(#814),#861,.T.);
#908=ADVANCED_FACE('',(#815,#816),#33,.F.);
#909=ADVANCED_FACE('',(#817),#862,.T.);
#910=ADVANCED_FACE('',(#818),#34,.T.);
#911=ADVANCED_FACE('',(#819),#35,.T.);
#912=ADVANCED_FACE('',(#820),#36,.T.);
#913=ADVANCED_FACE('',(#821),#16,.T.);
#914=ADVANCED_FACE('',(#822),#17,.T.);
#915=ADVANCED_FACE('',(#823),#37,.T.);
#916=ADVANCED_FACE('',(#824),#38,.T.);
#917=ADVANCED_FACE('',(#825),#39,.T.);
#918=ADVANCED_FACE('',(#826),#40,.T.);
#919=ADVANCED_FACE('',(#827),#18,.T.);
#920=ADVANCED_FACE('',(#828),#19,.T.);
#921=ADVANCED_FACE('',(#829),#41,.T.);
#922=CLOSED_SHELL('',(#863,#864,#865,#866,#867,#868,#869,#870,#871,#872,
#873,#874,#875,#876,#877,#878,#879,#880,#881,#882,#883,#884,#885,#886,#887,
#888,#889,#890,#891,#892,#893,#894,#895,#896,#897,#898,#899,#900,#901,#902,
#903,#904,#905,#906,#907,#908,#909,#910,#911,#912,#913,#914,#915,#916,#917,
#918,#919,#920,#921));
#923=STYLED_ITEM('',(#924),#931);
#924=PRESENTATION_STYLE_ASSIGNMENT((#925));
#925=SURFACE_STYLE_USAGE(.BOTH.,#926);
#926=SURFACE_SIDE_STYLE('',(#927));
#927=SURFACE_STYLE_FILL_AREA(#928);
#928=FILL_AREA_STYLE('',(#929));
#929=FILL_AREA_STYLE_COLOUR('',#930);
#930=COLOUR_RGB('',0.647058823529412,0.647058823529412,0.647058823529412);
#931=MANIFOLD_SOLID_BREP('Part 2',#922);
#932=SHAPE_DEFINITION_REPRESENTATION(#1580,#934);
#933=SHAPE_DEFINITION_REPRESENTATION(#1581,#935);
#934=SHAPE_REPRESENTATION('Assembly 1',(#936,#1040),#1573);
#935=SHAPE_REPRESENTATION('Part 2',(#936),#1574);
#936=AXIS2_PLACEMENT_3D('',#1319,#1041,#1042);
#937=AXIS2_PLACEMENT_3D('',#1320,#1043,#1044);
#938=AXIS2_PLACEMENT_3D('',#1329,#1049,#1050);
#939=AXIS2_PLACEMENT_3D('',#1331,#1051,#1052);
#940=AXIS2_PLACEMENT_3D('',#1341,#1057,#1058);
#941=AXIS2_PLACEMENT_3D('',#1358,#1067,#1068);
#942=AXIS2_PLACEMENT_3D('',#1359,#1069,#1070);
#943=AXIS2_PLACEMENT_3D('',#1361,#1071,#1072);
#944=AXIS2_PLACEMENT_3D('',#1363,#1073,#1074);
#945=AXIS2_PLACEMENT_3D('',#1365,#1075,#1076);
#946=AXIS2_PLACEMENT_3D('',#1367,#1077,#1078);
#947=AXIS2_PLACEMENT_3D('',#1369,#1079,#1080);
#948=AXIS2_PLACEMENT_3D('',#1371,#1081,#1082);
#949=AXIS2_PLACEMENT_3D('',#1373,#1083,#1084);
#950=AXIS2_PLACEMENT_3D('',#1375,#1085,#1086);
#951=AXIS2_PLACEMENT_3D('',#1377,#1087,#1088);
#952=AXIS2_PLACEMENT_3D('',#1382,#1090,#1091);
#953=AXIS2_PLACEMENT_3D('',#1386,#1093,#1094);
#954=AXIS2_PLACEMENT_3D('',#1390,#1096,#1097);
#955=AXIS2_PLACEMENT_3D('',#1394,#1099,#1100);
#956=AXIS2_PLACEMENT_3D('',#1400,#1104,#1105);
#957=AXIS2_PLACEMENT_3D('',#1406,#1109,#1110);
#958=AXIS2_PLACEMENT_3D('',#1407,#1111,#1112);
#959=AXIS2_PLACEMENT_3D('',#1409,#1113,#1114);
#960=AXIS2_PLACEMENT_3D('',#1416,#1118,#1119);
#961=AXIS2_PLACEMENT_3D('',#1422,#1123,#1124);
#962=AXIS2_PLACEMENT_3D('',#1423,#1125,#1126);
#963=AXIS2_PLACEMENT_3D('',#1425,#1127,#1128);
#964=AXIS2_PLACEMENT_3D('',#1432,#1132,#1133);
#965=AXIS2_PLACEMENT_3D('',#1441,#1138,#1139);
#966=AXIS2_PLACEMENT_3D('',#1455,#1147,#1148);
#967=AXIS2_PLACEMENT_3D('',#1457,#1149,#1150);
#968=AXIS2_PLACEMENT_3D('',#1459,#1151,#1152);
#969=AXIS2_PLACEMENT_3D('',#1461,#1154,#1155);
#970=AXIS2_PLACEMENT_3D('',#1463,#1157,#1158);
#971=AXIS2_PLACEMENT_3D('',#1474,#1165,#1166);
#972=AXIS2_PLACEMENT_3D('',#1478,#1169,#1170);
#973=AXIS2_PLACEMENT_3D('',#1487,#1176,#1177);
#974=AXIS2_PLACEMENT_3D('',#1489,#1179,#1180);
#975=AXIS2_PLACEMENT_3D('',#1490,#1181,#1182);
#976=AXIS2_PLACEMENT_3D('',#1492,#1184,#1185);
#977=AXIS2_PLACEMENT_3D('',#1494,#1187,#1188);
#978=AXIS2_PLACEMENT_3D('',#1495,#1189,#1190);
#979=AXIS2_PLACEMENT_3D('',#1496,#1191,#1192);
#980=AXIS2_PLACEMENT_3D('',#1497,#1193,#1194);
#981=AXIS2_PLACEMENT_3D('',#1498,#1195,#1196);
#982=AXIS2_PLACEMENT_3D('',#1499,#1197,#1198);
#983=AXIS2_PLACEMENT_3D('',#1502,#1201,#1202);
#984=AXIS2_PLACEMENT_3D('',#1505,#1205,#1206);
#985=AXIS2_PLACEMENT_3D('',#1506,#1207,#1208);
#986=AXIS2_PLACEMENT_3D('',#1507,#1209,#1210);
#987=AXIS2_PLACEMENT_3D('',#1508,#1211,#1212);
#988=AXIS2_PLACEMENT_3D('',#1510,#1213,#1214);
#989=AXIS2_PLACEMENT_3D('',#1511,#1215,#1216);
#990=AXIS2_PLACEMENT_3D('',#1512,#1217,#1218);
#991=AXIS2_PLACEMENT_3D('',#1514,#1219,#1220);
#992=AXIS2_PLACEMENT_3D('',#1515,#1221,#1222);
#993=AXIS2_PLACEMENT_3D('',#1516,#1223,#1224);
#994=AXIS2_PLACEMENT_3D('',#1518,#1225,#1226);
#995=AXIS2_PLACEMENT_3D('',#1519,#1227,#1228);
#996=AXIS2_PLACEMENT_3D('',#1520,#1229,#1230);
#997=AXIS2_PLACEMENT_3D('',#1522,#1231,#1232);
#998=AXIS2_PLACEMENT_3D('',#1523,#1233,#1234);
#999=AXIS2_PLACEMENT_3D('',#1524,#1235,#1236);
#1000=AXIS2_PLACEMENT_3D('',#1526,#1237,#1238);
#1001=AXIS2_PLACEMENT_3D('',#1527,#1239,#1240);
#1002=AXIS2_PLACEMENT_3D('',#1528,#1241,#1242);
#1003=AXIS2_PLACEMENT_3D('',#1530,#1243,#1244);
#1004=AXIS2_PLACEMENT_3D('',#1531,#1245,#1246);
#1005=AXIS2_PLACEMENT_3D('',#1532,#1247,#1248);
#1006=AXIS2_PLACEMENT_3D('',#1534,#1249,#1250);
#1007=AXIS2_PLACEMENT_3D('',#1535,#1251,#1252);
#1008=AXIS2_PLACEMENT_3D('',#1536,#1253,#1254);
#1009=AXIS2_PLACEMENT_3D('',#1538,#1255,#1256);
#1010=AXIS2_PLACEMENT_3D('',#1539,#1257,#1258);
#1011=AXIS2_PLACEMENT_3D('',#1540,#1259,#1260);
#1012=AXIS2_PLACEMENT_3D('',#1542,#1261,#1262);
#1013=AXIS2_PLACEMENT_3D('',#1543,#1263,#1264);
#1014=AXIS2_PLACEMENT_3D('',#1544,#1265,#1266);
#1015=AXIS2_PLACEMENT_3D('',#1546,#1267,#1268);
#1016=AXIS2_PLACEMENT_3D('',#1547,#1269,#1270);
#1017=AXIS2_PLACEMENT_3D('',#1548,#1271,#1272);
#1018=AXIS2_PLACEMENT_3D('',#1549,#1273,#1274);
#1019=AXIS2_PLACEMENT_3D('',#1550,#1275,#1276);
#1020=AXIS2_PLACEMENT_3D('',#1551,#1277,#1278);
#1021=AXIS2_PLACEMENT_3D('',#1552,#1279,#1280);
#1022=AXIS2_PLACEMENT_3D('',#1553,#1281,#1282);
#1023=AXIS2_PLACEMENT_3D('',#1554,#1283,#1284);
#1024=AXIS2_PLACEMENT_3D('',#1555,#1285,#1286);
#1025=AXIS2_PLACEMENT_3D('',#1556,#1287,#1288);
#1026=AXIS2_PLACEMENT_3D('',#1557,#1289,#1290);
#1027=AXIS2_PLACEMENT_3D('',#1558,#1291,#1292);
#1028=AXIS2_PLACEMENT_3D('',#1559,#1293,#1294);
#1029=AXIS2_PLACEMENT_3D('',#1560,#1295,#1296);
#1030=AXIS2_PLACEMENT_3D('',#1561,#1297,#1298);
#1031=AXIS2_PLACEMENT_3D('',#1562,#1299,#1300);
#1032=AXIS2_PLACEMENT_3D('',#1563,#1301,#1302);
#1033=AXIS2_PLACEMENT_3D('',#1564,#1303,#1304);
#1034=AXIS2_PLACEMENT_3D('',#1565,#1305,#1306);
#1035=AXIS2_PLACEMENT_3D('',#1566,#1307,#1308);
#1036=AXIS2_PLACEMENT_3D('',#1567,#1309,#1310);
#1037=AXIS2_PLACEMENT_3D('',#1568,#1311,#1312);
#1038=AXIS2_PLACEMENT_3D('',#1569,#1313,#1314);
#1039=AXIS2_PLACEMENT_3D('',#1570,#1315,#1316);
#1040=AXIS2_PLACEMENT_3D('',#1571,#1317,#1318);
#1041=DIRECTION('',(0.,0.,1.));
#1042=DIRECTION('',(1.,0.,0.));
#1043=DIRECTION('',(-1.,-4.18005656861881E-17,0.));
#1044=DIRECTION('',(4.18005656861881E-17,-1.,0.));
#1045=DIRECTION('',(0.,0.,1.));
#1046=DIRECTION('',(4.18005656861881E-17,-1.,0.));
#1047=DIRECTION('',(0.,0.,1.));
#1048=DIRECTION('',(4.18005656861881E-17,-1.,0.));
#1049=DIRECTION('',(-1.,-4.18005656861881E-17,0.));
#1050=DIRECTION('',(4.18005656861881E-17,-1.,0.));
#1051=DIRECTION('',(-1.,-4.18005656861881E-17,0.));
#1052=DIRECTION('',(4.18005656861881E-17,-1.,0.));
#1053=DIRECTION('',(0.,0.,-1.));
#1054=DIRECTION('',(0.,-1.,0.));
#1055=DIRECTION('',(0.,0.,-1.));
#1056=DIRECTION('',(0.,-1.,0.));
#1057=DIRECTION('',(1.,0.,0.));
#1058=DIRECTION('',(0.,0.,-1.));
#1059=DIRECTION('',(0.,-1.,0.));
#1060=DIRECTION('',(0.,0.,-1.));
#1061=DIRECTION('',(0.,-1.,0.));
#1062=DIRECTION('',(0.,0.,-1.));
#1063=DIRECTION('',(0.,-1.,0.));
#1064=DIRECTION('',(0.,0.,-1.));
#1065=DIRECTION('',(0.,-1.,0.));
#1066=DIRECTION('',(0.,0.,-1.));
#1067=DIRECTION('',(0.,0.,1.));
#1068=DIRECTION('',(1.,0.,0.));
#1069=DIRECTION('',(0.,0.,1.));
#1070=DIRECTION('',(1.,0.,0.));
#1071=DIRECTION('',(0.,0.,1.));
#1072=DIRECTION('',(1.,0.,0.));
#1073=DIRECTION('',(0.,0.,1.));
#1074=DIRECTION('',(1.,0.,0.));
#1075=DIRECTION('',(0.,0.,1.));
#1076=DIRECTION('',(1.,0.,0.));
#1077=DIRECTION('',(0.,0.,1.));
#1078=DIRECTION('',(1.,0.,0.));
#1079=DIRECTION('',(0.,0.,1.));
#1080=DIRECTION('',(1.,0.,0.));
#1081=DIRECTION('',(0.,0.,1.));
#1082=DIRECTION('',(1.,0.,0.));
#1083=DIRECTION('',(0.,0.,1.));
#1084=DIRECTION('',(1.,0.,0.));
#1085=DIRECTION('',(0.,0.,1.));
#1086=DIRECTION('',(1.,0.,0.));
#1087=DIRECTION('',(0.,0.,1.));
#1088=DIRECTION('',(1.,0.,0.));
#1089=DIRECTION('',(7.9757401194336E-17,-1.,0.));
#1090=DIRECTION('',(0.,0.,1.));
#1091=DIRECTION('',(1.,0.,0.));
#1092=DIRECTION('',(1.,0.,0.));
#1093=DIRECTION('',(0.,0.,1.));
#1094=DIRECTION('',(1.,0.,0.));
#1095=DIRECTION('',(0.,-1.,0.));
#1096=DIRECTION('',(0.,0.,1.));
#1097=DIRECTION('',(1.,0.,0.));
#1098=DIRECTION('',(1.,0.,0.));
#1099=DIRECTION('',(0.,0.,1.));
#1100=DIRECTION('',(1.,0.,0.));
#1101=DIRECTION('',(-1.,0.,0.));
#1102=DIRECTION('',(0.,-1.,0.));
#1103=DIRECTION('',(-1.,0.,0.));
#1104=DIRECTION('',(0.,-1.,0.));
#1105=DIRECTION('',(0.,0.,-1.));
#1106=DIRECTION('',(1.,0.,0.));
#1107=DIRECTION('',(0.,0.,1.));
#1108=DIRECTION('',(0.,0.,1.));
#1109=DIRECTION('',(-1.,-7.9757401194336E-17,0.));
#1110=DIRECTION('',(7.9757401194336E-17,-1.,0.));
#1111=DIRECTION('',(-1.,-7.9757401194336E-17,0.));
#1112=DIRECTION('',(7.9757401194336E-17,-1.,0.));
#1113=DIRECTION('',(-1.,-7.9757401194336E-17,0.));
#1114=DIRECTION('',(7.9757401194336E-17,-1.,0.));
#1115=DIRECTION('',(7.9757401194336E-17,-1.,0.));
#1116=DIRECTION('',(0.,0.,1.));
#1117=DIRECTION('',(0.,0.,1.));
#1118=DIRECTION('',(0.,-1.,0.));
#1119=DIRECTION('',(0.,0.,-1.));
#1120=DIRECTION('',(0.,0.,1.));
#1121=DIRECTION('',(1.,0.,0.));
#1122=DIRECTION('',(0.,0.,1.));
#1123=DIRECTION('',(-1.,0.,0.));
#1124=DIRECTION('',(0.,0.,1.));
#1125=DIRECTION('',(1.,0.,0.));
#1126=DIRECTION('',(0.,0.,-1.));
#1127=DIRECTION('',(1.,0.,0.));
#1128=DIRECTION('',(0.,0.,-1.));
#1129=DIRECTION('',(0.,-1.,0.));
#1130=DIRECTION('',(0.,0.,1.));
#1131=DIRECTION('',(0.,0.,1.));
#1132=DIRECTION('',(0.,0.,1.));
#1133=DIRECTION('',(1.,0.,0.));
#1134=DIRECTION('',(0.,-1.,0.));
#1135=DIRECTION('',(1.,0.,0.));
#1136=DIRECTION('',(7.9757401194336E-17,-1.,0.));
#1137=DIRECTION('',(1.,0.,0.));
#1138=DIRECTION('',(-1.,0.,0.));
#1139=DIRECTION('',(0.,0.,1.));
#1140=DIRECTION('',(0.,-1.,0.));
#1141=DIRECTION('',(0.,0.,1.));
#1142=DIRECTION('',(0.,0.,1.));
#1143=DIRECTION('',(0.,0.,-1.));
#1144=DIRECTION('',(0.,-1.,0.));
#1145=DIRECTION('',(0.,0.,-1.));
#1146=DIRECTION('',(0.,-1.,0.));
#1147=DIRECTION('',(-1.,0.,0.));
#1148=DIRECTION('',(0.,0.,1.));
#1149=DIRECTION('',(-1.,0.,0.));
#1150=DIRECTION('',(0.,0.,1.));
#1151=DIRECTION('',(0.,1.,0.));
#1152=DIRECTION('',(0.,0.,1.));
#1153=DIRECTION('',(-1.,0.,0.));
#1154=DIRECTION('',(0.,1.,0.));
#1155=DIRECTION('',(0.,0.,1.));
#1156=DIRECTION('',(-1.,0.,0.));
#1157=DIRECTION('',(0.,0.,1.));
#1158=DIRECTION('',(1.,0.,0.));
#1159=DIRECTION('',(1.,0.,0.));
#1160=DIRECTION('',(1.,0.,0.));
#1161=DIRECTION('',(0.,-1.,0.));
#1162=DIRECTION('',(1.,0.,0.));
#1163=DIRECTION('',(1.,0.,0.));
#1164=DIRECTION('',(0.,-1.,0.));
#1165=DIRECTION('',(0.,1.,0.));
#1166=DIRECTION('',(0.,0.,1.));
#1167=DIRECTION('',(0.,0.,-1.));
#1168=DIRECTION('',(1.,0.,0.));
#1169=DIRECTION('',(1.,0.,0.));
#1170=DIRECTION('',(0.,0.,-1.));
#1171=DIRECTION('',(0.,-1.,0.));
#1172=DIRECTION('',(0.,0.,-1.));
#1173=DIRECTION('',(0.,0.,-1.));
#1174=DIRECTION('',(0.,-1.,0.));
#1175=DIRECTION('',(0.,0.,-1.));
#1176=DIRECTION('',(0.,1.,0.));
#1177=DIRECTION('',(0.,0.,1.));
#1178=DIRECTION('',(1.,0.,0.));
#1179=DIRECTION('',(0.,0.,1.));
#1180=DIRECTION('',(1.,0.,0.));
#1181=DIRECTION('',(0.,1.,0.));
#1182=DIRECTION('',(0.,0.,1.));
#1183=DIRECTION('',(1.,0.,0.));
#1184=DIRECTION('',(0.,1.,0.));
#1185=DIRECTION('',(0.,0.,1.));
#1186=DIRECTION('',(1.,0.,0.));
#1187=DIRECTION('',(0.,0.,1.));
#1188=DIRECTION('',(1.,0.,0.));
#1189=DIRECTION('',(1.,0.,0.));
#1190=DIRECTION('',(0.,0.,-1.));
#1191=DIRECTION('',(1.,0.,0.));
#1192=DIRECTION('',(0.,0.,-1.));
#1193=DIRECTION('',(1.,0.,0.));
#1194=DIRECTION('',(0.,0.,-1.));
#1195=DIRECTION('',(1.,0.,0.));
#1196=DIRECTION('',(0.,0.,-1.));
#1197=DIRECTION('',(0.,1.,0.));
#1198=DIRECTION('',(0.,0.,1.));
#1199=DIRECTION('',(1.,0.,0.));
#1200=DIRECTION('',(1.,0.,0.));
#1201=DIRECTION('',(0.,1.,0.));
#1202=DIRECTION('',(0.,0.,1.));
#1203=DIRECTION('',(1.,0.,0.));
#1204=DIRECTION('',(1.,0.,0.));
#1205=DIRECTION('',(0.,0.,1.));
#1206=DIRECTION('',(1.,0.,0.));
#1207=DIRECTION('',(0.,0.,1.));
#1208=DIRECTION('',(1.,0.,0.));
#1209=DIRECTION('',(0.,0.,1.));
#1210=DIRECTION('',(1.,0.,0.));
#1211=DIRECTION('',(0.,0.,1.));
#1212=DIRECTION('',(1.,0.,0.));
#1213=DIRECTION('',(0.,0.,1.));
#1214=DIRECTION('',(1.,0.,0.));
#1215=DIRECTION('',(0.,0.,1.));
#1216=DIRECTION('',(1.,0.,0.));
#1217=DIRECTION('',(0.,0.,1.));
#1218=DIRECTION('',(1.,0.,0.));
#1219=DIRECTION('',(0.,0.,1.));
#1220=DIRECTION('',(1.,0.,0.));
#1221=DIRECTION('',(0.,0.,1.));
#1222=DIRECTION('',(1.,0.,0.));
#1223=DIRECTION('',(0.,0.,1.));
#1224=DIRECTION('',(1.,0.,0.));
#1225=DIRECTION('',(0.,0.,1.));
#1226=DIRECTION('',(1.,0.,0.));
#1227=DIRECTION('',(0.,0.,1.));
#1228=DIRECTION('',(1.,0.,0.));
#1229=DIRECTION('',(0.,0.,1.));
#1230=DIRECTION('',(1.,0.,0.));
#1231=DIRECTION('',(0.,0.,1.));
#1232=DIRECTION('',(1.,0.,0.));
#1233=DIRECTION('',(0.,0.,1.));
#1234=DIRECTION('',(1.,0.,0.));
#1235=DIRECTION('',(0.,0.,1.));
#1236=DIRECTION('',(1.,0.,0.));
#1237=DIRECTION('',(0.,0.,1.));
#1238=DIRECTION('',(1.,0.,0.));
#1239=DIRECTION('',(0.,0.,1.));
#1240=DIRECTION('',(1.,0.,0.));
#1241=DIRECTION('',(0.,0.,1.));
#1242=DIRECTION('',(1.,0.,0.));
#1243=DIRECTION('',(0.,0.,1.));
#1244=DIRECTION('',(1.,0.,0.));
#1245=DIRECTION('',(0.,0.,1.));
#1246=DIRECTION('',(1.,0.,0.));
#1247=DIRECTION('',(0.,0.,1.));
#1248=DIRECTION('',(1.,0.,0.));
#1249=DIRECTION('',(0.,0.,1.));
#1250=DIRECTION('',(1.,0.,0.));
#1251=DIRECTION('',(0.,0.,1.));
#1252=DIRECTION('',(1.,0.,0.));
#1253=DIRECTION('',(0.,0.,1.));
#1254=DIRECTION('',(1.,0.,0.));
#1255=DIRECTION('',(0.,0.,1.));
#1256=DIRECTION('',(1.,0.,0.));
#1257=DIRECTION('',(0.,0.,1.));
#1258=DIRECTION('',(1.,0.,0.));
#1259=DIRECTION('',(0.,0.,1.));
#1260=DIRECTION('',(1.,0.,0.));
#1261=DIRECTION('',(0.,0.,1.));
#1262=DIRECTION('',(1.,0.,0.));
#1263=DIRECTION('',(0.,0.,1.));
#1264=DIRECTION('',(1.,0.,0.));
#1265=DIRECTION('',(0.,0.,1.));
#1266=DIRECTION('',(1.,0.,0.));
#1267=DIRECTION('',(0.,0.,1.));
#1268=DIRECTION('',(1.,0.,0.));
#1269=DIRECTION('',(0.,0.,-1.));
#1270=DIRECTION('',(-1.,0.,0.));
#1271=DIRECTION('',(0.,0.,-1.));
#1272=DIRECTION('',(-1.,0.,0.));
#1273=DIRECTION('',(0.,0.,1.));
#1274=DIRECTION('',(1.,0.,0.));
#1275=DIRECTION('',(0.,0.,-1.));
#1276=DIRECTION('',(-1.,0.,0.));
#1277=DIRECTION('',(1.,0.,0.));
#1278=DIRECTION('',(0.,0.,-1.));
#1279=DIRECTION('',(-1.,0.,0.));
#1280=DIRECTION('',(0.,0.,1.));
#1281=DIRECTION('',(1.,0.,0.));
#1282=DIRECTION('',(0.,0.,-1.));
#1283=DIRECTION('',(0.,1.,0.));
#1284=DIRECTION('',(0.,0.,1.));
#1285=DIRECTION('',(-6.93889390390722E-15,1.,0.));
#1286=DIRECTION('',(-1.,-6.93889390390722E-15,0.));
#1287=DIRECTION('',(0.,1.,0.));
#1288=DIRECTION('',(0.,0.,1.));
#1289=DIRECTION('',(0.,1.,6.93889390390724E-15));
#1290=DIRECTION('',(0.,-6.93889390390724E-15,1.));
#1291=DIRECTION('',(-7.9757401194336E-17,1.,0.));
#1292=DIRECTION('',(-1.,-7.9757401194336E-17,0.));
#1293=DIRECTION('',(0.,-1.,0.));
#1294=DIRECTION('',(0.,0.,-1.));
#1295=DIRECTION('',(0.,0.,1.));
#1296=DIRECTION('',(1.,0.,0.));
#1297=DIRECTION('',(0.,0.,-1.));
#1298=DIRECTION('',(-1.,0.,0.));
#1299=DIRECTION('',(0.,0.,-1.));
#1300=DIRECTION('',(-1.,0.,0.));
#1301=DIRECTION('',(0.,0.,-1.));
#1302=DIRECTION('',(-1.,0.,0.));
#1303=DIRECTION('',(0.,-1.,0.));
#1304=DIRECTION('',(0.,0.,-1.));
#1305=DIRECTION('',(0.,-1.,0.));
#1306=DIRECTION('',(0.,0.,-1.));
#1307=DIRECTION('',(-1.,0.,0.));
#1308=DIRECTION('',(0.,0.,1.));
#1309=DIRECTION('',(-1.,0.,0.));
#1310=DIRECTION('',(0.,0.,1.));
#1311=DIRECTION('',(1.,0.,0.));
#1312=DIRECTION('',(0.,0.,-1.));
#1313=DIRECTION('',(1.,0.,0.));
#1314=DIRECTION('',(0.,0.,-1.));
#1315=DIRECTION('',(-1.,0.,0.));
#1316=DIRECTION('',(0.,0.,1.));
#1317=DIRECTION('',(0.,0.,1.));
#1318=DIRECTION('',(1.,0.,0.));
#1319=CARTESIAN_POINT('',(0.,0.,0.));
#1320=CARTESIAN_POINT('',(0.00993856032253617,-0.00858531072735787,-0.012));
#1321=CARTESIAN_POINT('',(0.00993856032253617,-0.0500853107273579,-0.012));
#1322=CARTESIAN_POINT('',(0.00993856032253617,-0.0500853107273579,-0.012));
#1323=CARTESIAN_POINT('',(0.00993856032253617,-0.0500853107273579,0.));
#1324=CARTESIAN_POINT('',(0.00993856032253617,-0.00858531072735787,-0.012));
#1325=CARTESIAN_POINT('',(0.00993856032253617,0.0329146892726421,-0.012));
#1326=CARTESIAN_POINT('',(0.00993856032253617,0.0329146892726421,-0.012));
#1327=CARTESIAN_POINT('',(0.00993856032253617,0.0329146892726421,0.));
#1328=CARTESIAN_POINT('',(0.00993856032253617,-0.00858531072735787,0.));
#1329=CARTESIAN_POINT('',(0.00993856032253617,-0.0420853107273579,-0.007));
#1330=CARTESIAN_POINT('',(0.00993856032253617,-0.0438353107273579,-0.007));
#1331=CARTESIAN_POINT('',(0.00993856032253617,0.0279146892726421,-0.007));
#1332=CARTESIAN_POINT('',(0.00993856032253617,0.0261646892726421,-0.007));
#1333=CARTESIAN_POINT('',(0.00993856032253617,-0.0302009675651788,-0.001));
#1334=CARTESIAN_POINT('',(0.00993856032253617,-0.0302009675651788,-0.001));
#1335=CARTESIAN_POINT('',(0.00993856032253617,-0.0302009675651788,-0.002));
#1336=CARTESIAN_POINT('',(0.00993856032253617,-0.0252009675651788,-0.001));
#1337=CARTESIAN_POINT('',(0.00993856032253617,-0.0202009675651789,-0.001));
#1338=CARTESIAN_POINT('',(0.00993856032253617,-0.0202009675651789,-0.001));
#1339=CARTESIAN_POINT('',(0.00993856032253617,-0.0202009675651789,-0.002));
#1340=CARTESIAN_POINT('',(0.00993856032253617,-0.0252009675651788,-0.002));
#1341=CARTESIAN_POINT('',(0.0444385603225361,-0.0355853107273578,0.));
#1342=CARTESIAN_POINT('',(0.0444385603225361,-0.0420853107273579,-0.002));
#1343=CARTESIAN_POINT('',(0.0444385603225361,-0.0360853107273578,-0.002));
#1344=CARTESIAN_POINT('',(0.0444385603225361,-0.0480853107273579,-0.002));
#1345=CARTESIAN_POINT('',(0.0444385603225361,-0.0360853107273578,-0.002));
#1346=CARTESIAN_POINT('',(0.0444385603225361,-0.0360853107273578,-0.012));
#1347=CARTESIAN_POINT('',(0.0444385603225361,-0.0355853107273578,-0.012));
#1348=CARTESIAN_POINT('',(0.0444385603225361,-0.0350853107273578,-0.012));
#1349=CARTESIAN_POINT('',(0.0444385603225361,-0.0350853107273578,0.));
#1350=CARTESIAN_POINT('',(0.0444385603225361,-0.0350853107273578,0.));
#1351=CARTESIAN_POINT('',(0.0444385603225361,-0.0355853107273578,0.));
#1352=CARTESIAN_POINT('',(0.0444385603225361,-0.0490853107273579,0.));
#1353=CARTESIAN_POINT('',(0.0444385603225361,-0.0490853107273579,0.));
#1354=CARTESIAN_POINT('',(0.0444385603225361,-0.0490853107273579,-0.012));
#1355=CARTESIAN_POINT('',(0.0444385603225361,-0.0355853107273578,-0.012));
#1356=CARTESIAN_POINT('',(0.0444385603225361,-0.0480853107273579,-0.012));
#1357=CARTESIAN_POINT('',(0.0444385603225361,-0.0480853107273579,-0.002));
#1358=CARTESIAN_POINT('',(0.0277401274293661,-0.00858531072735786,0.));
#1359=CARTESIAN_POINT('',(0.00899012742936611,-0.0270853107273579,0.));
#1360=CARTESIAN_POINT('',(0.00974012742936611,-0.0270853107273579,0.));
#1361=CARTESIAN_POINT('',(0.00899012742936611,-0.00708531072735787,0.));
#1362=CARTESIAN_POINT('',(0.00974012742936611,-0.00708531072735787,0.));
#1363=CARTESIAN_POINT('',(0.00899012742936611,0.0129146892726421,0.));
#1364=CARTESIAN_POINT('',(0.00974012742936611,0.0129146892726421,0.));
#1365=CARTESIAN_POINT('',(0.00899012742936611,0.0329146892726421,0.));
#1366=CARTESIAN_POINT('',(0.00974012742936611,0.0329146892726421,0.));
#1367=CARTESIAN_POINT('',(0.0464901274293661,-0.0470853107273579,0.));
#1368=CARTESIAN_POINT('',(0.0472401274293661,-0.0470853107273579,0.));
#1369=CARTESIAN_POINT('',(0.0464901274293661,-0.0270853107273579,0.));
#1370=CARTESIAN_POINT('',(0.0472401274293661,-0.0270853107273579,0.));
#1371=CARTESIAN_POINT('',(0.0464901274293661,-0.00708531072735787,0.));
#1372=CARTESIAN_POINT('',(0.0472401274293661,-0.00708531072735787,0.));
#1373=CARTESIAN_POINT('',(0.0464901274293661,0.0129146892726421,0.));
#1374=CARTESIAN_POINT('',(0.0472401274293661,0.0129146892726421,0.));
#1375=CARTESIAN_POINT('',(0.0464901274293661,0.0329146892726421,0.));
#1376=CARTESIAN_POINT('',(0.0472401274293661,0.0329146892726421,0.));
#1377=CARTESIAN_POINT('',(0.00899012742936611,-0.0470853107273579,0.));
#1378=CARTESIAN_POINT('',(0.00974012742936611,-0.0470853107273579,0.));
#1379=CARTESIAN_POINT('',(0.00799012742936611,-0.00858531072735786,0.));
#1380=CARTESIAN_POINT('',(0.00799012742936611,0.0339146892726421,0.));
#1381=CARTESIAN_POINT('',(0.00799012742936611,-0.0510853107273579,0.));
#1382=CARTESIAN_POINT('',(0.00899012742936611,-0.0510853107273579,0.));
#1383=CARTESIAN_POINT('',(0.00899012742936611,-0.0520853107273579,0.));
#1384=CARTESIAN_POINT('',(0.0277401274293661,-0.0520853107273579,0.));
#1385=CARTESIAN_POINT('',(0.0464901274293661,-0.0520853107273579,0.));
#1386=CARTESIAN_POINT('',(0.0464901274293661,-0.0510853107273579,0.));
#1387=CARTESIAN_POINT('',(0.0474901274293661,-0.0510853107273579,0.));
#1388=CARTESIAN_POINT('',(0.0474901274293661,-0.00858531072735786,0.));
#1389=CARTESIAN_POINT('',(0.0474901274293661,0.0339146892726421,0.));
#1390=CARTESIAN_POINT('',(0.0464901274293661,0.0339146892726421,0.));
#1391=CARTESIAN_POINT('',(0.0464901274293661,0.0349146892726422,0.));
#1392=CARTESIAN_POINT('',(0.0277401274293661,0.0349146892726422,0.));
#1393=CARTESIAN_POINT('',(0.00899012742936611,0.0349146892726422,0.));
#1394=CARTESIAN_POINT('',(0.00899012742936611,0.0339146892726421,0.));
#1395=CARTESIAN_POINT('',(0.0276885603225362,0.0329146892726421,0.));
#1396=CARTESIAN_POINT('',(0.0454385603225362,0.0329146892726421,0.));
#1397=CARTESIAN_POINT('',(0.0454385603225362,-0.00858531072735786,0.));
#1398=CARTESIAN_POINT('',(0.0454385603225362,-0.0500853107273579,0.));
#1399=CARTESIAN_POINT('',(0.0276885603225362,-0.0500853107273579,0.));
#1400=CARTESIAN_POINT('',(0.0277401274293661,0.0349146892726422,-0.014));
#1401=CARTESIAN_POINT('',(0.0277401274293661,0.0349146892726422,-0.013));
#1402=CARTESIAN_POINT('',(0.0464901274293661,0.0349146892726422,-0.013));
#1403=CARTESIAN_POINT('',(0.00899012742936611,0.0349146892726422,-0.013));
#1404=CARTESIAN_POINT('',(0.00899012742936611,0.0349146892726422,0.));
#1405=CARTESIAN_POINT('',(0.0464901274293661,0.0349146892726422,-0.014));
#1406=CARTESIAN_POINT('',(0.00799012742936611,-0.00858531072735786,-0.014));
#1407=CARTESIAN_POINT('',(0.00799012742936611,0.0279146892726421,-0.007));
#1408=CARTESIAN_POINT('',(0.00799012742936611,0.0261646892726421,-0.007));
#1409=CARTESIAN_POINT('',(0.00799012742936611,-0.0420853107273579,-0.007));
#1410=CARTESIAN_POINT('',(0.00799012742936611,-0.0438353107273579,-0.007));
#1411=CARTESIAN_POINT('',(0.00799012742936611,-0.0520853107273579,-0.013));
#1412=CARTESIAN_POINT('',(0.00799012742936611,0.0339146892726421,-0.013));
#1413=CARTESIAN_POINT('',(0.00799012742936611,-0.0510853107273579,-0.013));
#1414=CARTESIAN_POINT('',(0.00799012742936611,-0.0510853107273579,-0.014));
#1415=CARTESIAN_POINT('',(0.00799012742936611,0.0339146892726421,-0.014));
#1416=CARTESIAN_POINT('',(0.0277401274293661,-0.0520853107273579,-0.014));
#1417=CARTESIAN_POINT('',(0.00899012742936611,-0.0520853107273579,-0.014));
#1418=CARTESIAN_POINT('',(0.00899012742936611,-0.0520853107273579,-0.013));
#1419=CARTESIAN_POINT('',(0.0474901274293661,-0.0520853107273579,-0.013));
#1420=CARTESIAN_POINT('',(0.0464901274293661,-0.0520853107273579,-0.013));
#1421=CARTESIAN_POINT('',(0.0464901274293661,-0.0520853107273579,0.));
#1422=CARTESIAN_POINT('',(0.0474901274293661,-0.00858531072735786,-0.014));
#1423=CARTESIAN_POINT('',(0.0474901274293661,0.0279146892726421,-0.007));
#1424=CARTESIAN_POINT('',(0.0474901274293661,0.0279146892726421,-0.00875));
#1425=CARTESIAN_POINT('',(0.0474901274293661,-0.0420853107273579,-0.007));
#1426=CARTESIAN_POINT('',(0.0474901274293661,-0.0420853107273579,-0.00875));
#1427=CARTESIAN_POINT('',(0.0474901274293661,-0.00858531072735786,-0.013));
#1428=CARTESIAN_POINT('',(0.0474901274293661,-0.0510853107273579,-0.013));
#1429=CARTESIAN_POINT('',(0.0474901274293661,0.0339146892726421,-0.013));
#1430=CARTESIAN_POINT('',(0.0474901274293661,0.0339146892726421,-0.014));
#1431=CARTESIAN_POINT('',(0.0474901274293661,-0.0510853107273579,-0.014));
#1432=CARTESIAN_POINT('',(0.0277401274293661,-0.00858531072735786,-0.014));
#1433=CARTESIAN_POINT('',(0.0464901274293661,-0.00858531072735786,-0.014));
#1434=CARTESIAN_POINT('',(0.0464901274293661,0.0339146892726421,-0.014));
#1435=CARTESIAN_POINT('',(0.0464901274293661,-0.0510853107273579,-0.014));
#1436=CARTESIAN_POINT('',(0.00799012742936611,-0.0510853107273579,-0.014));
#1437=CARTESIAN_POINT('',(0.00899012742936611,-0.0510853107273579,-0.014));
#1438=CARTESIAN_POINT('',(0.00899012742936611,0.0349146892726422,-0.014));
#1439=CARTESIAN_POINT('',(0.00899012742936611,0.0339146892726421,-0.014));
#1440=CARTESIAN_POINT('',(0.0277401274293661,0.0339146892726421,-0.014));
#1441=CARTESIAN_POINT('',(0.0454385603225362,-0.00858531072735786,-0.012));
#1442=CARTESIAN_POINT('',(0.0454385603225362,-0.00858531072735786,-0.012));
#1443=CARTESIAN_POINT('',(0.0454385603225362,0.0329146892726421,-0.012));
#1444=CARTESIAN_POINT('',(0.0454385603225362,-0.0500853107273579,-0.012));
#1445=CARTESIAN_POINT('',(0.0454385603225362,-0.0500853107273579,-0.012));
#1446=CARTESIAN_POINT('',(0.0454385603225362,0.0329146892726421,-0.012));
#1447=CARTESIAN_POINT('',(0.0454385603225362,-0.0202009675651789,-0.001));
#1448=CARTESIAN_POINT('',(0.0454385603225362,-0.0202009675651789,-0.001));
#1449=CARTESIAN_POINT('',(0.0454385603225362,-0.0202009675651789,-0.002));
#1450=CARTESIAN_POINT('',(0.0454385603225362,-0.0252009675651788,-0.001));
#1451=CARTESIAN_POINT('',(0.0454385603225362,-0.0302009675651788,-0.001));
#1452=CARTESIAN_POINT('',(0.0454385603225362,-0.0302009675651788,-0.001));
#1453=CARTESIAN_POINT('',(0.0454385603225362,-0.0302009675651788,-0.002));
#1454=CARTESIAN_POINT('',(0.0454385603225362,-0.0252009675651788,-0.002));
#1455=CARTESIAN_POINT('',(0.0454385603225362,0.0279146892726421,-0.007));
#1456=CARTESIAN_POINT('',(0.0454385603225362,0.0279146892726421,-0.00525));
#1457=CARTESIAN_POINT('',(0.0454385603225362,-0.0420853107273579,-0.007));
#1458=CARTESIAN_POINT('',(0.0454385603225362,-0.0420853107273579,-0.00525));
#1459=CARTESIAN_POINT('',(0.0276885603225362,0.0329146892726421,-0.012));
#1460=CARTESIAN_POINT('',(0.0276885603225362,0.0329146892726421,-0.012));
#1461=CARTESIAN_POINT('',(0.0276885603225362,-0.0500853107273579,-0.012));
#1462=CARTESIAN_POINT('',(0.0276885603225362,-0.0500853107273579,-0.012));
#1463=CARTESIAN_POINT('',(0.0277401274293661,-0.00858531072735786,-0.012));
#1464=CARTESIAN_POINT('',(0.0434385603225361,-0.0480853107273579,-0.012));
#1465=CARTESIAN_POINT('',(0.0424385603225361,-0.0480853107273579,-0.012));
#1466=CARTESIAN_POINT('',(0.0434385603225361,-0.0490853107273579,-0.012));
#1467=CARTESIAN_POINT('',(0.0424385603225361,-0.0490853107273579,-0.012));
#1468=CARTESIAN_POINT('',(0.0424385603225361,-0.0355853107273578,-0.012));
#1469=CARTESIAN_POINT('',(0.0434385603225361,-0.0350853107273578,-0.012));
#1470=CARTESIAN_POINT('',(0.0424385603225361,-0.0350853107273578,-0.012));
#1471=CARTESIAN_POINT('',(0.0434385603225361,-0.0360853107273578,-0.012));
#1472=CARTESIAN_POINT('',(0.0424385603225361,-0.0360853107273578,-0.012));
#1473=CARTESIAN_POINT('',(0.0424385603225361,-0.0355853107273578,-0.012));
#1474=CARTESIAN_POINT('',(0.0434385603225361,-0.0350853107273578,0.));
#1475=CARTESIAN_POINT('',(0.0424385603225361,-0.0350853107273578,0.));
#1476=CARTESIAN_POINT('',(0.0424385603225361,-0.0350853107273578,0.));
#1477=CARTESIAN_POINT('',(0.0434385603225361,-0.0350853107273578,0.));
#1478=CARTESIAN_POINT('',(0.0424385603225361,-0.0355853107273578,0.));
#1479=CARTESIAN_POINT('',(0.0424385603225361,-0.0420853107273579,-0.002));
#1480=CARTESIAN_POINT('',(0.0424385603225361,-0.0360853107273578,-0.002));
#1481=CARTESIAN_POINT('',(0.0424385603225361,-0.0480853107273579,-0.002));
#1482=CARTESIAN_POINT('',(0.0424385603225361,-0.0480853107273579,-0.002));
#1483=CARTESIAN_POINT('',(0.0424385603225361,-0.0490853107273579,0.));
#1484=CARTESIAN_POINT('',(0.0424385603225361,-0.0490853107273579,0.));
#1485=CARTESIAN_POINT('',(0.0424385603225361,-0.0355853107273578,0.));
#1486=CARTESIAN_POINT('',(0.0424385603225361,-0.0360853107273578,-0.002));
#1487=CARTESIAN_POINT('',(0.0434385603225361,-0.0490853107273579,0.));
#1488=CARTESIAN_POINT('',(0.0434385603225361,-0.0490853107273579,0.));
#1489=CARTESIAN_POINT('',(0.0434385603225361,-0.0420853107273579,0.));
#1490=CARTESIAN_POINT('',(0.0434385603225361,-0.0360853107273578,-0.002));
#1491=CARTESIAN_POINT('',(0.0434385603225361,-0.0360853107273578,-0.002));
#1492=CARTESIAN_POINT('',(0.0434385603225361,-0.0480853107273579,-0.002));
#1493=CARTESIAN_POINT('',(0.0434385603225361,-0.0480853107273579,-0.002));
#1494=CARTESIAN_POINT('',(0.0434385603225361,-0.0420853107273579,-0.002));
#1495=CARTESIAN_POINT('',(0.0074901274293661,-0.0420853107273579,-0.007));
#1496=CARTESIAN_POINT('',(0.0074901274293661,0.0279146892726421,-0.007));
#1497=CARTESIAN_POINT('',(0.0074901274293661,-0.0420853107273579,-0.007));
#1498=CARTESIAN_POINT('',(0.0074901274293661,0.0279146892726421,-0.007));
#1499=CARTESIAN_POINT('',(0.0276885603225362,-0.0202009675651789,-0.001));
#1500=CARTESIAN_POINT('',(0.0276885603225362,-0.0202009675651789,-0.002));
#1501=CARTESIAN_POINT('',(0.0276885603225362,-0.0202009675651789,-0.001));
#1502=CARTESIAN_POINT('',(0.0276885603225362,-0.0302009675651788,-0.001));
#1503=CARTESIAN_POINT('',(0.0276885603225362,-0.0302009675651788,-0.002));
#1504=CARTESIAN_POINT('',(0.0276885603225362,-0.0302009675651788,-0.001));
#1505=CARTESIAN_POINT('',(0.0276885603225362,-0.0252009675651788,-0.001));
#1506=CARTESIAN_POINT('',(0.0276885603225362,-0.0252009675651788,-0.002));
#1507=CARTESIAN_POINT('',(0.00899012742936611,-0.0470853107273579,-0.0005));
#1508=CARTESIAN_POINT('',(0.00899012742936611,-0.0470853107273579,-0.0005));
#1509=CARTESIAN_POINT('',(0.00974012742936611,-0.0470853107273579,-0.0005));
#1510=CARTESIAN_POINT('',(0.0277401274293661,-0.00858531072735786,-0.0005));
#1511=CARTESIAN_POINT('',(0.0464901274293661,0.0329146892726421,-0.0005));
#1512=CARTESIAN_POINT('',(0.0464901274293661,0.0329146892726421,-0.0005));
#1513=CARTESIAN_POINT('',(0.0472401274293661,0.0329146892726421,-0.0005));
#1514=CARTESIAN_POINT('',(0.0277401274293661,-0.00858531072735786,-0.0005));
#1515=CARTESIAN_POINT('',(0.0464901274293661,0.0129146892726421,-0.0005));
#1516=CARTESIAN_POINT('',(0.0464901274293661,0.0129146892726421,-0.0005));
#1517=CARTESIAN_POINT('',(0.0472401274293661,0.0129146892726421,-0.0005));
#1518=CARTESIAN_POINT('',(0.0277401274293661,-0.00858531072735786,-0.0005));
#1519=CARTESIAN_POINT('',(0.0464901274293661,-0.00708531072735787,-0.0005));
#1520=CARTESIAN_POINT('',(0.0464901274293661,-0.00708531072735787,-0.0005));
#1521=CARTESIAN_POINT('',(0.0472401274293661,-0.00708531072735787,-0.0005));
#1522=CARTESIAN_POINT('',(0.0277401274293661,-0.00858531072735786,-0.0005));
#1523=CARTESIAN_POINT('',(0.0464901274293661,-0.0270853107273579,-0.0005));
#1524=CARTESIAN_POINT('',(0.0464901274293661,-0.0270853107273579,-0.0005));
#1525=CARTESIAN_POINT('',(0.0472401274293661,-0.0270853107273579,-0.0005));
#1526=CARTESIAN_POINT('',(0.0277401274293661,-0.00858531072735786,-0.0005));
#1527=CARTESIAN_POINT('',(0.0464901274293661,-0.0470853107273579,-0.0005));
#1528=CARTESIAN_POINT('',(0.0464901274293661,-0.0470853107273579,-0.0005));
#1529=CARTESIAN_POINT('',(0.0472401274293661,-0.0470853107273579,-0.0005));
#1530=CARTESIAN_POINT('',(0.0277401274293661,-0.00858531072735786,-0.0005));
#1531=CARTESIAN_POINT('',(0.00899012742936611,0.0329146892726421,-0.0005));
#1532=CARTESIAN_POINT('',(0.00899012742936611,0.0329146892726421,-0.0005));
#1533=CARTESIAN_POINT('',(0.00974012742936611,0.0329146892726421,-0.0005));
#1534=CARTESIAN_POINT('',(0.0277401274293661,-0.00858531072735786,-0.0005));
#1535=CARTESIAN_POINT('',(0.00899012742936611,0.0129146892726421,-0.0005));
#1536=CARTESIAN_POINT('',(0.00899012742936611,0.0129146892726421,-0.0005));
#1537=CARTESIAN_POINT('',(0.00974012742936611,0.0129146892726421,-0.0005));
#1538=CARTESIAN_POINT('',(0.0277401274293661,-0.00858531072735786,-0.0005));
#1539=CARTESIAN_POINT('',(0.00899012742936611,-0.00708531072735787,-0.0005));
#1540=CARTESIAN_POINT('',(0.00899012742936611,-0.00708531072735787,-0.0005));
#1541=CARTESIAN_POINT('',(0.00974012742936611,-0.00708531072735787,-0.0005));
#1542=CARTESIAN_POINT('',(0.0277401274293661,-0.00858531072735786,-0.0005));
#1543=CARTESIAN_POINT('',(0.00899012742936611,-0.0270853107273579,-0.0005));
#1544=CARTESIAN_POINT('',(0.00899012742936611,-0.0270853107273579,-0.0005));
#1545=CARTESIAN_POINT('',(0.00974012742936611,-0.0270853107273579,-0.0005));
#1546=CARTESIAN_POINT('',(0.0277401274293661,-0.00858531072735786,-0.0005));
#1547=CARTESIAN_POINT('',(0.00899012742936611,0.0339146892726421,-0.014));
#1548=CARTESIAN_POINT('',(0.00899012742936611,0.0339146892726421,-0.013));
#1549=CARTESIAN_POINT('',(0.0464901274293661,0.0339146892726421,-0.014));
#1550=CARTESIAN_POINT('',(0.0464901274293661,0.0339146892726421,-0.013));
#1551=CARTESIAN_POINT('',(0.0277401274293661,0.0339146892726421,-0.013));
#1552=CARTESIAN_POINT('',(0.00899012742936611,0.0339146892726421,-0.013));
#1553=CARTESIAN_POINT('',(0.0464901274293661,0.0339146892726421,-0.013));
#1554=CARTESIAN_POINT('',(0.00899012742936611,0.0339146892726421,-0.013));
#1555=CARTESIAN_POINT('',(0.00899012742936611,0.0339146892726421,-0.013));
#1556=CARTESIAN_POINT('',(0.0464901274293661,0.0339146892726421,-0.013));
#1557=CARTESIAN_POINT('',(0.0464901274293661,0.0339146892726421,-0.013));
#1558=CARTESIAN_POINT('',(0.00899012742936611,-0.00858531072735786,-0.013));
#1559=CARTESIAN_POINT('',(0.00899012742936611,-0.0510853107273579,-0.013));
#1560=CARTESIAN_POINT('',(0.00899012742936611,-0.0510853107273579,-0.014));
#1561=CARTESIAN_POINT('',(0.00899012742936611,-0.0510853107273579,-0.013));
#1562=CARTESIAN_POINT('',(0.0464901274293661,-0.0510853107273579,-0.014));
#1563=CARTESIAN_POINT('',(0.0464901274293661,-0.0510853107273579,-0.013));
#1564=CARTESIAN_POINT('',(0.0464901274293661,-0.00858531072735786,-0.013));
#1565=CARTESIAN_POINT('',(0.0464901274293661,-0.0510853107273579,-0.013));
#1566=CARTESIAN_POINT('',(0.00899012742936611,-0.0510853107273579,-0.013));
#1567=CARTESIAN_POINT('',(0.00899012742936611,-0.0510853107273579,-0.013));
#1568=CARTESIAN_POINT('',(0.0464901274293661,-0.0510853107273579,-0.013));
#1569=CARTESIAN_POINT('',(0.0464901274293661,-0.0510853107273579,-0.013));
#1570=CARTESIAN_POINT('',(0.0277401274293661,-0.0510853107273579,-0.013));
#1571=CARTESIAN_POINT('',(-0.0145210721461621,-0.00520771711319686,0.00599464733245742));
#1572=MECHANICAL_DESIGN_GEOMETRIC_PRESENTATION_REPRESENTATION('',(#923),
#1573);
#1573=(
GEOMETRIC_REPRESENTATION_CONTEXT(3)
GLOBAL_UNCERTAINTY_ASSIGNED_CONTEXT((#1575))
GLOBAL_UNIT_ASSIGNED_CONTEXT((#1579,#1578,#1577))
REPRESENTATION_CONTEXT('Assembly 1','TOP_LEVEL_ASSEMBLY_PART')
);
#1574=(
GEOMETRIC_REPRESENTATION_CONTEXT(3)
GLOBAL_UNCERTAINTY_ASSIGNED_CONTEXT((#1576))
GLOBAL_UNIT_ASSIGNED_CONTEXT((#1579,#1578,#1577))
REPRESENTATION_CONTEXT('Part 2','COMPONENT_PART')
);
#1575=UNCERTAINTY_MEASURE_WITH_UNIT(LENGTH_MEASURE(1.E-8),#1579,
'DISTANCE_ACCURACY_VALUE','Maximum Tolerance applied to model');
#1576=UNCERTAINTY_MEASURE_WITH_UNIT(LENGTH_MEASURE(1.E-8),#1579,
'DISTANCE_ACCURACY_VALUE','Maximum Tolerance applied to model');
#1577=(
NAMED_UNIT(*)
SI_UNIT($,.STERADIAN.)
SOLID_ANGLE_UNIT()
);
#1578=(
NAMED_UNIT(*)
PLANE_ANGLE_UNIT()
SI_UNIT($,.RADIAN.)
);
#1579=(
LENGTH_UNIT()
NAMED_UNIT(*)
SI_UNIT($,.METRE.)
);
#1580=PRODUCT_DEFINITION_SHAPE('','',#1583);
#1581=PRODUCT_DEFINITION_SHAPE('','',#1584);
#1582=PRODUCT_DEFINITION_SHAPE(' ','NAUO PRDDFN',#11);
#1583=PRODUCT_DEFINITION('','',#1587,#1585);
#1584=PRODUCT_DEFINITION('','',#1588,#1586);
#1585=PRODUCT_DEFINITION_CONTEXT('',#1598,'design');
#1586=PRODUCT_DEFINITION_CONTEXT('',#1598,'design');
#1587=PRODUCT_DEFINITION_FORMATION_WITH_SPECIFIED_SOURCE('','',#1591,
 .NOT_KNOWN.);
#1588=PRODUCT_DEFINITION_FORMATION_WITH_SPECIFIED_SOURCE('','',#1592,
 .NOT_KNOWN.);
#1589=PRODUCT_RELATED_PRODUCT_CATEGORY('','',(#1591));
#1590=PRODUCT_RELATED_PRODUCT_CATEGORY('','',(#1592));
#1591=PRODUCT('Assembly 1','Assembly 1','Assembly 1',(#1595));
#1592=PRODUCT('Part 2','Part 2','Part 2',(#1596));
#1593=PRODUCT_CATEGORY('','');
#1594=PRODUCT_CATEGORY('','');
#1595=PRODUCT_CONTEXT('',#1598,'mechanical');
#1596=PRODUCT_CONTEXT('',#1598,'mechanical');
#1597=APPLICATION_PROTOCOL_DEFINITION('international standard',
'ap242_managed_model_based_3d_engineering',2020,#1598);
#1598=APPLICATION_CONTEXT('managed model based 3d engineering');
ENDSEC;
END-ISO-10303-21;
